<?xml version="1.0" encoding="UTF-8" standalone="no"?>
<svg width="94px" height="118px" viewBox="0 0 94 118" version="1.1" xmlns="http://www.w3.org/2000/svg" xmlns:xlink="http://www.w3.org/1999/xlink" xmlns:sketch="http://www.bohemiancoding.com/sketch/ns">
    <!-- Generator: Sketch 3.1.1 (8761) - http://www.bohemiancoding.com/sketch -->
    <title>Group</title>
    <desc>Created with Sketch.</desc>
    <defs></defs>
    <g id="Welcome" stroke="none" stroke-width="1" fill="none" fill-rule="evenodd" sketch:type="MSPage">
        <g id="Desktop" sketch:type="MSArtboardGroup" transform="translate(-100.000000, -281.000000)" fill="#FFFFFF">
            <g id="Group" sketch:type="MSLayerGroup" transform="translate(100.000000, 281.000000)">
                <path d="M90.2178374,18.0427975 C90.206374,18.0898481 90.1788618,18.1495949 90.1544065,18.2033671 C90.1536423,18.2056076 90.1498211,18.2033671 90.1482927,18.2056076 C90.1475285,18.2078481 89.9664065,18.4318987 89.753187,18.3280886 C89.6882276,18.2959747 89.6247967,18.2578861 89.5613659,18.217557 C89.4604878,18.126443 89.3542602,18.0577342 89.2258699,17.9845443 C89.0974797,17.8979114 88.9583902,17.813519 88.8154797,17.7806582 C88.7719187,17.7649747 88.6825041,17.7358481 88.6244228,17.7358481 C88.5518211,17.7358481 88.4845691,17.7918608 88.4784553,17.863557 C88.4677561,18.0009747 88.6190732,18.0241266 88.729122,18.040557 L88.7298862,18.0390633 C88.7849106,18.0599747 88.8529268,18.0898481 88.9285854,18.1316709 L89.2029431,18.3019494 C89.2633171,18.3452658 89.3252195,18.3885823 89.3878862,18.4311519 C89.4986992,18.5342152 89.588878,18.6671519 89.6698862,18.8463924 C89.7073333,18.9285443 89.7256748,19.006962 89.7455447,19.0838861 C89.7501301,19.1286962 89.7585366,19.1727595 89.7585366,19.2190633 C89.7585366,19.5670886 89.7998049,20.0502911 89.5521951,20.3169114 C89.494878,20.3803924 89.4704228,20.3863671 89.4306829,20.4670253 C89.3710732,20.5842785 89.3160488,20.6925696 89.2319837,20.7948861 C89.1142927,20.9367848 88.9851382,21.0503038 88.8429919,21.1705443 C88.6343577,21.344557 88.4570569,21.4886962 88.2079187,21.5364937 C88.0428455,21.5686076 87.883122,21.5738354 87.7211057,21.580557 C87.4819024,21.4491139 87.4482764,21.2810759 87.3963089,20.9606835 C87.3871382,20.8979494 87.376439,20.8329747 87.3634472,20.7627722 C87.2702114,20.2496962 87.1540488,20.2496962 87.0921463,20.2496962 C87.0470569,20.2496962 87.0019675,20.2735949 86.9759837,20.3086962 C86.9423577,20.3535063 86.9087317,20.3998101 87.0409431,20.7866709 C87.1777398,21.1817468 86.976748,21.8479241 86.8919187,22.0936329 C86.7214959,22.3132025 86.5281463,22.5170886 86.3332683,22.7224684 C86.0398049,22.905443 85.7730894,23.0936456 85.4406504,23.1952152 C85.2610569,23.250481 85.0822276,23.3378608 84.8972846,23.3864051 C84.7513171,23.4200127 84.6,23.4476456 84.506,23.5716203 C84.4379837,23.6649747 84.2713821,23.7015696 84.3500976,23.9525063 C84.3500976,24.0122532 84.5686667,24.1422025 84.5701951,24.2019494 C84.5808943,24.5096456 83.8632846,24.2616962 83.7173171,24.2019494 C83.5713496,24.1451899 83.4834634,24.1339873 83.3329106,24.0772278 C83.1579024,24.0137468 82.9355122,23.903962 82.7796098,23.7919367 C82.6481626,23.6970886 82.5434634,23.5350253 82.4349431,23.4170253 C82.3692195,23.3483165 82.2943252,23.2766203 82.2133171,23.2108987 C81.883935,22.8300127 81.4949431,22.3266456 81.2694959,21.8509114 C80.8140163,20.8972025 80.9179512,20.068962 81.034878,19.9673924 C81.2618537,19.773962 81.3665528,19.360962 81.377252,19.3139114 C81.3910081,19.2578987 81.3665528,19.1988987 81.3153496,19.1675316 C81.2656748,19.1361646 81.2014797,19.1413924 81.1533333,19.1772405 C81.1334634,19.1936709 80.6458862,19.5872532 80.551122,19.9815823 C80.4769919,20.2885316 80.3898699,20.3953291 80.3998049,20.4080253 C80.1965203,20.3236329 79.9305691,19.5006203 79.9305691,19.2407215 C79.9305691,19.1772405 79.916813,19.0637215 79.8992358,18.9218228 C79.849561,18.5155443 79.7654959,17.8359241 79.9351545,17.509557 C80.2546016,16.8904304 80.8086667,16.4378481 81.1105366,16.2235063 C81.2656748,16.1129747 81.4162276,15.9807848 81.3673171,15.8321646 C81.3443902,15.7642025 81.2756098,15.6835443 81.0730894,15.6835443 C81.0394634,15.6835443 81.0165366,15.6857848 81.0165366,15.6857848 C80.9897886,15.6887722 80.9630407,15.698481 80.9424065,15.7141646 C80.6030894,15.9770506 80.2225041,16.2593544 80.0352683,16.3825823 C79.9657236,16.1585316 79.8625528,15.6962405 79.916813,15.4998228 C80.1139837,14.8030253 80.0964065,14.7806203 80.0497886,14.7201266 C80.0230407,14.6857722 79.9802439,14.6656076 79.9374472,14.6656076 C79.866374,14.6656076 79.7601463,14.6656076 79.5706179,15.4378354 C79.439935,15.9665949 79.4391707,16.7888608 79.4391707,16.8179873 C79.4238862,17.2048481 79.345935,17.8889494 79.2091382,18.0771519 C79.037187,18.3101646 79.1235447,18.8463924 79.2450569,19.4714937 C79.2786829,19.642519 79.3100163,19.8045823 79.3100163,19.8628354 C79.2893821,20.1063038 78.1636748,22.3901266 77.9603902,22.7351646 C77.919122,22.8061139 77.8946667,22.8606329 77.8847317,22.9099241 L76.6413333,22.6298608 C76.1323577,22.8807975 75.4980488,23.2706456 75.0761951,23.8031392 C74.739935,23.7613165 74.4082602,23.7949241 74.0941626,23.8733418 C74.1125041,23.7404051 74.1361951,23.6119494 74.192748,23.4693038 C74.2607642,23.2982785 74.2852195,23.1272532 74.337187,22.9539873 C74.3769268,22.8128354 74.4097886,22.6769114 74.4762764,22.5492025 C74.5725691,22.3677215 74.7926667,22.2108861 74.8774959,22.0196962 C74.9646179,21.821038 74.8606829,21.5715949 74.9478049,21.3721899 C75.1541463,20.9061646 75.3604878,20.4378987 75.5675935,19.9703797 C75.6570081,19.7702278 75.7502439,19.5872532 75.8159675,19.3781392 C75.8809268,19.1742532 75.968813,18.9778354 76.072748,18.7888861 C76.1636911,18.6223418 76.3088943,18.4931392 76.4090081,18.3325696 C76.4884878,18.2063544 76.5947154,18.008443 76.6428618,17.8665443 C76.6673171,17.7948481 76.6619675,17.7007468 76.6841301,17.6253165 C76.7162276,17.518519 76.7735447,17.4162025 76.8300976,17.3206076 C77.0830569,16.9031266 77.5224878,16.6477089 77.8060163,16.2578608 C77.8954309,16.1368734 77.9535122,15.9919873 78.0582114,15.8836962 C78.1101789,15.8276835 78.1789593,15.807519 78.234748,15.7612152 C78.292065,15.7119241 78.3042927,15.6454557 78.3493821,15.5789873 C78.4387967,15.4512785 78.4739512,15.3138608 78.5091057,15.1644937 C78.5610732,14.9523924 78.6856423,14.7963038 78.7865203,14.6252785 C78.9271382,14.3758354 79.0998537,14.1607468 79.3413496,13.9927089 C79.4666829,13.9053291 79.5797886,13.7903165 79.7257561,13.7372911 C79.8862439,13.6782911 79.9955285,13.5737342 80.148374,13.4863544 C80.285935,13.4094304 80.4013333,13.3018861 80.5274309,13.2137595 C80.6497073,13.1278734 80.8056098,13.089038 80.9584553,13.0546835 C81.2488618,12.988962 81.5492033,12.9964304 81.8426667,12.9598354 C81.9290244,12.9486329 82.0031545,12.9083038 82.0925691,12.9000886 C82.1804553,12.8918734 82.2744553,12.9000886 82.3615772,12.9000886 C82.7115935,12.9000886 83.0516748,12.9060633 83.394813,12.9434051 C83.7112033,12.9792532 84.0619837,13.0718608 84.3202927,13.2496076 C84.4532683,13.338481 84.5617886,13.452 84.7291545,13.5057722 C84.8590732,13.5475949 84.9882276,13.6319873 85.1105041,13.6947215 C85.2274309,13.7544684 85.2664065,13.8373671 85.3359512,13.9553671 C85.3986179,14.055443 85.4933821,14.1331139 85.5827967,14.2175063 C85.5942602,14.2287089 85.6034309,14.2384177 85.6126016,14.2488734 C85.8831382,14.7604557 86.3386179,15.7373165 86.2774797,16.4049873 C86.1926504,17.3355443 85.6798537,18.753038 85.4230732,19.0316076 C85.1670569,19.3116709 85.0463089,19.6223544 85.7218862,19.1988987 C86.4906992,18.716443 87.1723902,16.4886329 87.1723902,16.1555443 C87.1723902,15.9374684 87.359626,15.7798861 87.5804878,15.680557 C87.6194634,15.6887722 87.6569106,15.698481 87.7241626,15.694 C88.1085691,15.6708481 88.5250732,15.6962405 88.8575122,15.9090886 C89.1226992,16.0756329 89.4153984,16.2048354 89.6515447,16.3997595 C89.9396585,16.6409873 90.2338862,17.1652658 90.2583415,17.5371899 C90.2690407,17.7022405 90.2606341,17.8919367 90.2178374,18.0427975 L90.2178374,18.0427975 Z M78.1904228,22.9793797 C78.2561463,22.9084304 78.3501463,22.7911772 78.4961138,22.588038 L78.533561,22.5350127 C79.4865528,21.2034051 79.8105854,21.004 79.9191057,21.004 C80.1995772,21.004 80.4257886,21.4446329 80.464,21.6716709 C80.497626,21.875557 80.642065,21.9913165 80.7696911,22.0936329 C80.8430569,22.1518861 80.9118374,22.2071519 80.9523415,22.2721266 L80.9783252,22.315443 C81.1067154,22.5185823 81.3711382,22.9383038 81.3482114,23.2183671 C81.3451545,23.2661646 81.3451545,23.2661646 81.1632683,23.4401772 C81.0333496,23.5581772 80.9928455,23.6067215 80.8980813,23.7292025 C80.7643415,23.9024684 80.5388943,24.1504177 80.4792846,24.3483291 C80.379935,24.5813418 80.2148618,24.8240633 80.0482602,25.0286962 C79.8839512,24.9487848 79.7135285,24.8770886 79.5285854,24.8248101 C79.3994309,23.9263671 78.9271382,23.2713924 78.8094472,23.119038 L78.1904228,22.9793797 L78.1904228,22.9793797 Z M79.2137236,34.211038 L78.5213333,34.211038 C77.3505366,33.262557 74.4831545,32.3103418 70.3945366,32.3103418 C66.3066829,32.3103418 63.5096098,33.262557 62.338813,34.211038 L61.6655285,34.211038 L57.9116423,27.1385063 L59.3132358,26.5186329 L59.5394472,28.1549494 L60.3976748,26.9166962 L61.4844065,29.1467468 L59.9926341,29.1265823 C59.9926341,29.1265823 60.8057724,30.5418354 62.7499675,30.275962 C63.3644065,30.1930633 63.7839675,29.9309241 64.0896585,29.6187468 C64.0338699,29.6396582 63.5019675,29.8144177 63.158065,29.4372658 C62.7965854,29.0392025 63.3384228,28.5970759 63.3384228,28.5970759 C63.3384228,28.5970759 63.3850407,28.9062658 63.758748,28.9503291 C64.1301626,28.9936456 64.151561,28.4566709 64.151561,28.4566709 C64.151561,28.4566709 63.8802602,28.3670506 63.8366992,28.1549494 C63.8030732,27.9996076 64.1118211,27.7651013 64.1118211,27.7651013 C64.1118211,27.7651013 63.654813,26.7292405 62.9769431,27.0055696 C62.2860813,27.2871266 62.9310894,27.9772025 62.9310894,27.9772025 C62.9310894,27.9772025 62.0277724,27.8457595 61.6380163,27.4925063 C61.2467317,27.1385063 61.348374,26.3416329 62.2983089,26.1653797 C63.2474797,25.9891266 63.9261138,26.6963797 63.9261138,26.6963797 C63.9261138,26.6963797 63.5187805,25.9450633 63.4293659,25.2378101 C63.3384228,24.530557 63.8366992,23.9114304 63.8366992,23.9114304 C63.8366992,23.9114304 64.6949268,24.353557 64.8775772,24.7523671 C65.057935,25.1489367 65.0113171,26.5186329 65.0113171,26.5186329 C65.0113171,26.5186329 65.7617886,25.4805316 66.2333171,25.3251899 C66.5046179,25.2378101 67.1840163,25.2826203 67.2734309,25.9891266 C67.3636098,26.6963797 66.5504715,27.271443 66.5504715,27.271443 C66.5504715,27.271443 66.5833333,26.8741266 66.3693496,26.6075063 C66.1546016,26.3416329 65.826748,26.5186329 65.5997724,26.7934684 C65.3888455,27.0496329 65.3743252,27.4476962 65.3743252,27.4476962 C65.3743252,27.4476962 65.6899512,27.7128228 65.6899512,27.8457595 C65.6899512,27.9772025 65.5562114,28.2438228 65.5562114,28.2438228 C65.5562114,28.2438228 65.7358049,28.5970759 66.0529593,28.5096962 C66.3693496,28.4208228 66.2333171,27.8009494 66.2333171,27.8009494 C66.2333171,27.8009494 66.5970894,28.0675696 66.8217724,28.2438228 C67.0479837,28.4208228 66.867626,28.800962 66.5504715,29.0392025 C66.4587642,29.1071646 66.3196748,29.1721392 66.1729431,29.2318861 C66.5023252,29.3222532 66.8981951,29.377519 67.4094634,29.3483924 C68.5879024,29.2819241 69.2428455,28.805443 69.6043252,28.3461392 L70.0338211,27.0279747 L68.5856098,27.9772025 L68.3601626,25.1489367 L70.1232358,26.2542532 L69.4438374,24.3976203 L71.8863089,24.3976203 L71.0273171,26.2998101 L72.7919187,25.2826203 L72.5221463,28.0675696 L71.1174959,27.0279747 L71.5034309,28.4297848 C71.8343415,28.8532405 72.3425528,29.2916329 73.1083089,29.4372658 C73.6493821,29.5395823 74.1789919,29.4290506 74.6551057,29.2490633 C74.6421138,29.2393544 74.6283577,29.2333797 74.6207154,29.2266582 C74.3066179,28.9839367 74.1331382,28.5985696 74.363935,28.4260506 C74.5916748,28.2535316 74.9585041,27.9928861 74.9585041,27.9928861 C74.9585041,27.9928861 74.8125366,28.610519 75.1273984,28.7046203 C75.4422602,28.7994684 75.6287317,28.446962 75.6287317,28.446962 C75.6287317,28.446962 75.4980488,28.1803418 75.5003415,28.0481519 C75.5033984,27.9152152 75.8251382,27.6560633 75.8251382,27.6560633 C75.8251382,27.6560633 75.8167317,27.2550127 75.609626,26.9973544 C75.388,26.7202785 75.0647317,26.5380506 74.8446341,26.7986962 C74.6245366,27.0600886 74.6520488,27.4588987 74.6520488,27.4588987 C74.6520488,27.4588987 73.8473171,26.8696456 73.951252,26.1638861 C74.0536585,25.4596203 74.7330569,25.4260127 75.002065,25.5201139 C75.472065,25.6821772 76.2026667,26.7337215 76.2026667,26.7337215 C76.2026667,26.7337215 76.1812683,25.3625316 76.3700325,24.9682025 C76.5572683,24.5738734 77.4246667,24.1466835 77.4246667,24.1466835 C77.4246667,24.1466835 77.9114797,24.7740253 77.8083089,25.479038 C77.7051382,26.1855443 77.2855772,26.9301392 77.2855772,26.9301392 C77.2855772,26.9301392 77.9741463,26.2333418 78.9225528,26.4267722 C79.8679024,26.6194557 79.9557886,27.4155823 79.5591545,27.7636076 C79.1640488,28.1116329 78.2561463,28.2281392 78.2561463,28.2281392 C78.2561463,28.2281392 78.9156748,27.548519 78.2278699,27.253519 C77.5553496,26.9652405 77.0830569,27.9958734 77.0830569,27.9958734 C77.0830569,27.9958734 77.3849268,28.2333671 77.3490081,28.3887089 C77.3000976,28.601557 77.0257398,28.6844557 77.0257398,28.6844557 C77.0257398,28.6844557 77.0394959,29.2236709 77.4147317,29.1863291 C77.7861463,29.1474937 77.838878,28.8383038 77.838878,28.8383038 C77.838878,28.8383038 78.3738374,29.2901392 78.0039512,29.681481 C77.7295935,29.9749873 77.3306667,29.9197215 77.1480163,29.8726709 C77.3979187,30.1982911 77.7036098,30.4888101 78.0826667,30.6307089 C79.6577398,31.2192152 80.9783252,29.7023924 80.9783252,29.7023924 L79.4406992,29.4917848 L80.7972033,27.2273797 L81.6118699,28.8173924 L81.8373171,27.0055696 L83.1922927,28.0220127 L79.2137236,34.211038 L79.2137236,34.211038 Z M79.148,43.9169114 C79.0585854,43.9400633 78.950065,43.8885316 78.8866341,43.832519 C78.7055122,43.673443 78.5985203,43.4314684 78.4342114,43.251481 C78.3172846,43.1222785 78.2339837,42.9213797 78.1759024,42.7563291 C78.1346341,42.643557 78.0291707,42.2477342 77.8663902,42.3171899 C77.8847317,42.1461646 77.6760976,41.9041899 77.6027317,41.7555696 C77.5156098,41.5830506 77.4835122,41.409038 77.412439,41.2327848 C77.3497724,41.0692278 77.200748,41.0109747 77.0394959,40.9153797 C76.7552033,40.7458481 76.5022439,40.524038 76.2546341,40.3007342 C75.8992683,39.9781013 75.643252,39.6106582 75.3452033,39.2454557 C75.2305691,39.1028101 75.1961789,39.0116962 75.1526179,38.8391772 C75.1144065,38.6920506 74.9890732,38.5777848 74.9623252,38.4358861 C74.9340488,38.282038 74.9867805,38.1027975 74.9753171,37.9437215 C74.9646179,37.7458101 74.8453984,37.6315443 74.7422276,37.4709747 C74.5901463,37.2297468 74.5274797,36.9519241 74.4541138,36.6875443 C74.3945041,36.4672278 74.4021463,36.226 74.3234309,36.0109114 C74.2386016,35.7876076 74.0697073,35.5934304 73.9596585,35.3858101 C73.8778862,35.2312152 73.8305041,35.0736329 73.7502602,34.9220253 C73.6944715,34.8137342 73.6608455,34.5291899 73.6149919,34.2506203 C75.6990407,34.5754937 76.9638374,35.1565316 77.4116748,35.5194937 L77.6990244,35.6203165 C77.7364715,35.817481 77.7853821,36.0131519 77.8266504,36.1968734 C77.9145366,36.5904557 78.036813,36.9825443 78.1078862,37.3843418 C78.1545041,37.6367722 78.2423902,37.891443 78.2935935,38.1438734 C78.3134634,38.2432025 78.3302764,38.3836076 78.3470894,38.5038481 C78.3715447,38.6801013 78.4472033,38.8473924 78.4693659,39.0251392 C78.4907642,39.2111013 78.4762439,39.4037848 78.4693659,39.589 C78.4556098,39.8683165 78.3532033,40.1259747 78.2553821,40.3843797 C78.1858374,40.5725823 77.9909593,40.7264304 78.0505691,40.9377848 C78.0994797,41.1065696 78.2026504,41.304481 78.2767805,41.4687848 C78.2821301,41.477 79.0830407,43.2372911 79.0830407,43.2372911 C79.1296585,43.3911392 79.191561,43.546481 79.2228943,43.7033165 C79.2427642,43.8168354 79.2740976,43.8862911 79.148,43.9169114 L79.148,43.9169114 Z M72.8637561,34.7883418 C72.806439,34.8943924 72.8087317,35.1221772 72.7926829,35.2409241 C72.6864553,35.9638608 72.7315447,36.8384051 72.3387317,37.4903924 C72.3570732,37.465 72.3647154,37.4747089 72.38,37.465 C72.3540163,37.5307215 72.3830569,37.650962 72.3769431,37.7383418 C72.370065,37.8772532 72.3540163,38.0146709 72.3456098,38.1505949 C72.3333821,38.3626962 72.3417886,38.5777848 72.3417886,38.7898861 C72.3417886,39.0102025 72.3570732,39.2335063 72.3433171,39.4508354 C72.3379675,39.5397089 72.3158049,39.643519 72.2944065,39.7271646 C72.2325041,39.9870633 72.1346829,40.2342658 72.0467967,40.4881899 C71.9726667,40.7137342 71.8801951,40.9221013 71.7044228,41.0931266 C71.5615122,41.2350253 71.3910894,41.3410759 71.225252,41.4531013 C71.0930407,41.5419747 70.8889919,41.6263671 70.791935,41.7510886 C70.6062276,41.9923165 70.620748,42.4680506 70.5748943,42.7697722 C70.4770732,43.432962 70.5282764,44.1222911 70.5198699,44.7951899 C70.5175772,44.958 70.3761951,46.0976709 70.0659187,45.6764557 C69.8534634,45.3926582 69.8817398,44.9968354 69.9039024,44.6682278 C69.9253008,44.3007848 69.9314146,43.9400633 69.9466992,43.5741139 C69.9619837,43.2178734 69.9619837,42.8519241 69.8985528,42.5038987 C69.8771545,42.3761899 69.8886179,42.1670759 69.8091382,42.0684937 C69.781626,42.0326456 69.6616423,41.962443 69.6173171,41.9258481 C69.5156748,41.8414557 69.4285528,41.7578101 69.338374,41.658481 C69.2298537,41.5389873 69.0846504,41.4583291 68.9937073,41.3186709 C68.7736098,40.9900633 68.7453333,40.5643671 68.6597398,40.1916962 C68.5687967,39.8055823 68.5947805,39.4127468 68.5947805,39.0214051 C68.5947805,38.2297595 68.6910732,37.451557 68.5917236,36.6681266 C68.5420488,36.2730506 68.5657398,35.863038 68.5290569,35.4649747 C68.5145366,35.3200886 68.4404065,34.6352405 68.3341789,34.1124557 C68.9669593,34.051962 69.6402439,34.0093924 70.3945366,34.0093924 C71.3582276,34.0093924 72.2141626,34.0676456 72.9806829,34.1587595 C72.9294797,34.4410633 72.8897398,34.7397975 72.8637561,34.7883418 L72.8637561,34.7883418 Z M67.2894797,34.7495063 C67.1801951,34.9153038 67.1465691,35.1386076 67.0785528,35.3245696 C67.0158862,35.5023165 66.9073659,35.6613924 66.8446992,35.8406329 C66.696439,36.276038 66.5894472,36.7286203 66.4450081,37.1632785 C66.3884553,37.333557 66.3555935,37.5023418 66.320439,37.6718734 C66.2661789,37.9355063 66.1469593,38.1834557 66.0437886,38.4373797 C65.9046992,38.7771899 65.7472683,39.0460506 65.5600325,39.3477722 C65.4209431,39.5673418 65.2306504,39.7585316 65.0999675,39.9833291 C64.9379512,40.2566709 64.7071545,40.5046203 64.4106341,40.6442785 C64.1737236,40.7533165 63.9054797,40.8302405 63.6830894,40.9616835 C63.4927967,41.072962 63.3919187,41.2447342 63.2864553,41.422481 C63.1557724,41.6398101 62.9685366,41.844443 62.8745366,42.0938861 C62.8103415,42.2626709 62.7690732,42.4262278 62.6582602,42.5733544 C62.5550894,42.7107722 62.406065,42.8227975 62.3403415,42.9766456 C62.2723252,43.1402025 62.184439,43.2387848 62.0705691,43.3709747 C61.9589919,43.4979367 61.8993821,43.6629873 61.6861626,43.6256456 C61.338439,43.5636582 61.5486016,43.2776203 61.6479512,43.1140633 C61.7786341,42.9071899 61.9077886,42.6995696 62.0369431,42.4912025 C62.1959024,42.235038 62.3571545,41.9758861 62.5145854,41.7197215 C62.5902439,41.5584051 62.6781301,41.4000759 62.7262764,41.2283038 C62.8905854,40.6659367 62.5474472,39.9691392 62.4343415,39.4381392 C62.3502764,39.0408228 62.3349919,38.6629241 62.4710244,38.2857722 C62.5474472,38.0781519 62.6437398,37.8854684 62.6941789,37.6681392 C62.8240976,37.0818734 63.0281463,36.5083038 63.1771707,35.9429494 C63.2077398,35.8279367 63.2230244,35.708443 63.2436585,35.5911899 L63.4484715,35.5187468 C63.9169431,35.1393544 65.2596911,34.519481 67.492,34.2058101 C67.4056423,34.4522658 67.330748,34.6852785 67.2894797,34.7495063 L67.2894797,34.7495063 Z M62.8470244,22.7822152 L62.4702602,22.8606329 C62.3495122,23.0107468 61.8657561,23.6582532 61.7205528,24.5537089 C61.5394309,24.6007595 61.3674797,24.6634937 61.2054634,24.7381772 C61.1810081,24.6351139 61.1596098,24.5163671 61.0969431,24.4416835 C61.0090569,24.3393671 60.8982439,24.2572152 60.8157073,24.1519114 C60.6781463,23.9823797 60.5688618,23.7994051 60.432065,23.6336076 C60.3518211,23.4259873 60.2799837,23.1907342 60.2799837,22.9943165 C60.2799837,22.7971519 60.7660325,21.8927342 61.0419187,21.5320127 C61.0763089,21.4872025 61.1106992,21.4401519 61.1458537,21.3923544 C61.3468455,21.1160253 61.5310244,20.8673291 61.8107317,20.9741266 C62.2218862,21.1242405 62.5894797,22.0801899 62.8470244,22.7822152 L62.8470244,22.7822152 Z M57.7396911,23.2848354 C57.6946016,23.1511519 57.612065,23.0338987 57.5058374,22.9412911 C57.3682764,22.819557 57.1733984,22.7822152 57.0022114,22.723962 C56.7912846,22.651519 56.578065,22.5783291 56.3717236,22.4954304 C56.195187,22.424481 56.0484553,22.306481 55.8810894,22.2153671 C55.7847967,22.1623418 55.6770407,22.1048354 55.5906829,22.0383671 C55.4034472,21.897962 55.3285528,21.6417975 55.1573659,21.5073671 C54.8585528,21.2780886 54.4168293,21.3550127 54.0706341,21.2287975 C53.8123252,21.1317089 53.5845854,20.9965316 53.3346829,20.8658354 C53.1741951,20.7844304 52.9640325,20.7336456 52.834878,20.6178861 C52.2762276,20.1167595 52.1134472,19.3617089 52.0309106,18.6604304 C52.0118049,18.4826835 52.0118049,18.2937342 51.9200976,18.126443 C51.8734797,18.0375696 51.8215122,18.0009747 51.7993496,17.9023924 C51.7527317,17.6887975 51.6289268,17.4714684 51.6289268,17.2481646 C51.6289268,17.1182152 51.6258699,16.9942405 51.6617886,16.8687722 C51.7588455,16.5162658 51.8803577,16.0629367 52.1287317,15.7843671 C52.3786341,15.5028101 52.6178374,15.2451519 52.9678537,15.0815949 C53.1826016,14.981519 53.4133984,14.9008608 53.6441951,14.8388734 C53.9483577,14.7582152 54.2486992,14.6417089 54.5574472,14.5789747 C54.6201138,14.5670253 54.6850732,14.5588101 54.7530894,14.5588101 C54.852439,14.5603038 54.9258049,14.5162405 55.0052846,14.4744177 C54.7943577,15.0935443 54.5826667,16.0644304 54.956374,16.8217215 C55.554,18.0330886 55.5593496,17.7866329 55.8994309,18.1996329 C56.2418049,18.6096456 56.450439,19.0838861 56.450439,19.0838861 C56.450439,19.0838861 56.578065,18.8359367 56.4091707,18.5058354 C56.0813171,17.8710253 55.5960325,16.742557 55.5960325,15.6125949 C55.5960325,14.8015316 55.7916748,14.0905443 56.3273984,13.4960633 C56.5520813,13.3362405 56.7866992,13.1906076 56.9884553,13.0053924 C57.219252,12.7932911 57.3965528,12.553557 57.7312846,12.5027722 C57.9681951,12.4654304 58.195935,12.3720759 58.4320813,12.3317468 C58.612439,12.2996329 58.7927967,12.2981392 58.9769756,12.2981392 C59.1237073,12.2981392 59.270439,12.2966456 59.4156423,12.2981392 C59.6410894,12.3011266 59.871122,12.3563924 60.0935122,12.3937342 C60.3281301,12.4318228 60.5665691,12.4758861 60.7904878,12.5617722 C60.9127642,12.6103165 61.0289268,12.6566203 61.1611382,12.6857468 C61.5142114,12.7656582 61.7908618,13.0001646 62.0927317,13.2010633 C62.1722114,13.2540886 62.2287642,13.2951646 62.2944878,13.3564051 C62.3609756,13.4213797 62.4351057,13.4938228 62.516878,13.5431139 C62.630748,13.6133165 62.7553171,13.6476709 62.859252,13.7320633 C63.0762927,13.915038 63.3154959,14.1256456 63.4110244,14.3907722 C63.4889756,14.6051139 63.5485854,14.8441013 63.6823252,15.040519 C63.7312358,15.1159494 63.782439,15.2249873 63.8535122,15.2712911 C63.9016585,15.3019114 63.9482764,15.2936962 64.0025366,15.3153544 C64.1469756,15.3698734 64.1798374,15.5289494 64.2256911,15.6521772 C64.2577886,15.7455316 64.279187,15.8090127 64.2853008,15.9075949 C64.3021138,16.1047595 64.3403252,16.2578608 64.4633659,16.415443 C64.5971057,16.5857215 64.7247317,16.7739241 64.766,16.9890127 C64.8149106,17.241443 64.8821626,17.5132911 64.9967967,17.7470506 C65.1473496,18.0562405 65.3422276,18.3131519 65.4950732,18.6126329 C65.578374,18.7732025 65.5607967,18.9472152 65.6142927,19.1145063 C65.6670244,19.2750759 65.7946504,19.2646203 65.8863577,19.3811266 C65.9436748,19.4573038 65.9666016,19.5678354 66.0063415,19.655962 C66.0674797,19.7926329 66.1362602,19.9270633 66.1790569,20.0726962 C66.2356098,20.2735949 66.296748,20.4677722 66.3525366,20.6671772 C66.4274309,20.9285696 66.5122602,21.1824937 66.5122602,21.4550886 C66.5122602,21.5977342 66.4641138,21.8061013 66.5535285,21.9218608 C66.5917398,21.9733924 66.6299512,21.9905696 66.6582276,22.0473291 C66.7071382,22.1406835 66.7071382,22.2512152 66.7591057,22.3438228 C66.8714472,22.5521899 66.9639187,22.7822152 67.0571545,23.0062658 C67.1144715,23.1429367 67.1893659,23.2781139 67.176374,23.4297215 C67.1702602,23.5185949 67.142748,23.5693797 67.109122,23.6365949 C67.1037724,23.6477975 67.0923089,23.6657215 67.0854309,23.6791646 C66.7957886,23.6112025 66.4946829,23.5753544 66.1897561,23.6074684 C65.7763089,23.0682532 65.1511707,22.6679494 64.6483089,22.4087975 L63.5325366,22.6403165 C63.423252,22.2444937 63.2841626,21.8598734 63.184813,21.6656962 C62.8936423,21.0966076 62.6055285,19.8591013 62.6055285,19.6163797 C62.6055285,19.5506582 62.6169919,19.3841139 62.630748,19.166038 C62.6926504,18.2153165 62.7446179,17.2593671 62.6422114,16.9471899 C62.4954797,16.5013291 61.5080976,15.7925823 61.3965203,15.7119241 C61.3369106,15.6708481 61.2566667,15.6813038 61.2100488,15.7335823 C61.1626667,15.7873544 61.1649593,15.8672658 61.2153984,15.9180506 C61.2176911,15.9195443 61.3827642,16.0890759 61.7037398,16.6768354 C61.936065,17.1017848 61.9139024,17.4811772 61.8833333,18.0062025 C61.8718699,18.2041139 61.8581138,18.4184557 61.8581138,18.657443 C61.8581138,19.2676076 61.4744715,19.9360253 61.2765366,20.2429747 C61.2176911,20.132443 61.1496748,19.9688861 61.109935,19.7590253 C61.0205203,19.2765696 60.7981301,18.9673797 60.7881951,18.9546835 C60.7469268,18.8994177 60.6727967,18.8814937 60.6124228,18.9121139 C60.5512846,18.9419873 60.5214797,19.0121899 60.542878,19.0756709 C60.5444065,19.0808987 60.7003089,19.5760506 60.5367642,20.8508987 C60.3762764,22.1055823 58.7385366,23.1623544 58.7217236,23.1720633 C58.7049106,23.182519 58.706439,23.2041772 58.6957398,23.2206076 C58.6315447,23.254962 58.5635285,23.2870759 58.5069756,23.3281519 C58.4038049,23.4005949 58.3518374,23.4961899 58.2349106,23.5432405 C58.1332683,23.586557 57.9368618,23.608962 57.8420976,23.5350253 C57.7725528,23.477519 57.7656748,23.3647468 57.7396911,23.2848354 L57.7396911,23.2848354 Z M64.5459024,8.40264557 C64.6223252,8.07179747 64.8966829,7.88732911 64.9180813,7.58859494 C64.9280163,7.44520253 64.9478862,7.40562025 64.9433008,7.27268354 C64.9348943,7.11883544 64.9914472,6.87611392 65.0625203,6.74691139 C65.1389431,6.61920253 65.2673333,6.51539241 65.3575122,6.39888608 C65.4897236,6.23532911 65.6272846,6.14944304 65.783187,6.02098734 C65.9085203,5.91643038 66.0430244,5.8178481 66.1889919,5.74167089 C66.4732846,5.59753165 66.8034309,5.54749367 67.1068293,5.45413924 C67.4935285,5.33613924 68.8026504,5.39962025 69.1855285,5.64010127 C69.3979837,5.77378481 69.9115447,6.1001519 70.1958374,6.27939241 C70.3708455,6.55124051 70.7453171,7.21592405 70.7453171,7.98292405 C70.7453171,8.63416456 70.9493659,9.83582278 71.0930407,10.5946076 C71.167935,10.9993924 71.372748,10.7663797 71.372748,10.7663797 C71.372748,10.7663797 71.5989593,8.90003797 71.6402276,7.81563291 C71.6807317,6.82383544 71.7212358,6.667 71.9573821,6.36079747 C72.5198537,6.11135443 73.0830894,5.86191139 73.6432683,5.61396203 C73.7494959,5.56541772 73.850374,5.50865823 73.961187,5.49521519 C74.2454797,5.46011392 74.5542276,5.40634177 74.8392846,5.42426582 C74.9997724,5.43098734 75.1640813,5.43920253 75.3199837,5.45862025 C75.4667154,5.4765443 75.5821138,5.51836709 75.7273171,5.56317722 C75.9886829,5.64906329 76.2546341,5.76631646 76.4854309,5.92688608 C76.6688455,6.05534177 76.8843577,6.13226582 77.0555447,6.27864557 C77.2015122,6.40411392 77.261122,6.58858228 77.3436585,6.75886076 C77.4781626,7.04340506 77.6134309,7.32794937 77.7486992,7.61398734 C77.7486992,7.61398734 78.0811382,8.68494937 78.0811382,9.59011392 C78.0811382,10.0337342 77.2978049,11.513962 77.2978049,11.513962 L75.8014472,13.2899367 C75.8014472,13.2899367 75.7792846,13.8209367 75.679935,13.9598481 C75.5614797,14.1219114 74.9271707,14.4617215 74.9271707,14.5707595 C74.9271707,14.8612785 75.5782927,14.6693418 75.5782927,14.6693418 C75.5782927,14.6693418 75.3413821,16.3265696 75.2779512,16.6103671 C75.2580813,16.6992405 75.2084065,16.8351646 75.1487967,16.9793038 C75.1304553,17.0315823 75.1075285,17.0846076 75.0838374,17.1346456 C75.0547967,17.2070886 75.0242276,17.2772911 74.995187,17.3407722 C74.9118862,17.5252405 74.8446341,17.6671392 74.8446341,17.6671392 L74.0039837,21.24 C73.8175122,22.1421772 73.6661951,23.0577975 73.4430407,23.9525063 C73.4269919,24.0159873 73.4178211,24.0861899 73.404065,24.1519114 C73.2718537,24.2303291 73.1442276,24.3147215 73.031122,24.4147975 L71.8863089,22.6985696 L69.4438374,22.6985696 L68.2837398,24.308 C68.1736911,24.1997089 68.0453008,24.1078481 67.9130894,24.021962 C67.8939837,23.8561646 67.851187,23.6828987 67.8389593,23.541 C67.8221463,23.3565316 67.7663577,23.1907342 67.7159187,23.0092532 C67.673122,22.8427089 67.6456098,22.6500253 67.636439,22.4715316 C67.6333821,22.42 67.6318537,22.369962 67.6318537,22.3229114 C67.6333821,22.1048354 67.6211545,21.8964684 67.5837073,21.6813797 C67.5309756,21.4050506 67.498878,21.1160253 67.4958211,20.835962 C67.4935285,20.5842785 67.4881789,20.3116835 67.4362114,20.0764304 C67.371252,19.8038354 67.2994146,19.5319873 67.2405691,19.2586456 C67.2054146,19.1047975 67.1565041,18.9472152 67.142748,18.7888861 C67.1167642,18.5319747 66.9937236,18.2832785 66.9937236,18.0188987 L66.9226504,17.5655696 C66.8928455,17.3609367 66.8416423,17.4311392 66.8660976,17.223519 C66.7094309,16.8366582 67.928374,17.5312152 68.1423577,17.3631772 C68.183626,17.1563038 67.0754959,16.5722785 66.9723252,16.4647342 C66.9341138,16.3235823 66.8836748,16.2578608 66.8087805,16.1458354 C66.7208943,16.0203671 66.6758049,15.8329114 66.6345366,15.6887722 C66.5206667,15.2697975 66.3632358,14.8441013 66.3020976,14.4057089 C66.263122,14.1271392 66.2356098,13.8448354 66.1889919,13.5670127 C66.1553659,13.3437089 66.1316748,13.1189114 66.098813,12.8948608 C66.5000325,13.1226456 66.9776748,13.4056962 67.2122927,13.5573038 C67.5783577,13.7962911 68.3326504,14.573 68.3402927,14.5804684 C68.3807967,14.6207975 68.4396423,14.6342405 68.4931382,14.6125823 C68.5458699,14.5924177 68.5802602,14.5431266 68.5802602,14.4863671 C68.5802602,14.4856203 68.5810244,14.2817342 68.610065,14.0076456 C68.610065,14.0076456 68.6253496,13.9971899 68.6712033,13.9971899 C68.8798374,13.9971899 69.3880488,14.210038 69.8695122,14.7821139 C70.1828455,15.1532911 70.2187642,15.6588987 70.2577398,16.1928861 C70.2844878,16.5618228 70.312,16.9434557 70.4419187,17.2743038 C70.526748,17.4908861 70.5664878,18.0771519 70.6024065,18.5947089 C70.6742439,19.6372911 70.7086341,19.9666456 70.9463089,19.9666456 C70.9822276,19.9666456 71.0349593,19.9569367 71.0846341,19.9068987 C71.3704553,19.6201139 71.3406504,17.2406962 71.312374,16.1846709 C71.3819187,16.0711519 71.6157724,15.6917595 71.7586829,15.4796582 C72.0842439,14.9874937 72.9042602,14.6110886 73.7877073,14.2376709 C74.6948455,13.851557 75.1113496,12.9463924 75.206878,12.7103924 C75.354374,12.6446709 75.7800488,12.453481 76.0933821,12.317557 C76.5037724,12.1398101 77.1503089,11.1099241 77.2221463,10.9934177 C77.261122,10.9314304 77.2420163,10.8492785 77.1793496,10.8096962 C77.1182114,10.7686203 77.0326179,10.7843038 76.9898211,10.8447975 C76.7582602,11.1636962 76.4762602,11.459443 76.4028943,11.4773671 C76.2920813,11.4564557 76.1101951,11.2958861 76.0154309,11.1875949 C75.9680488,11.1353165 75.8885691,11.1248608 75.831252,11.1636962 C75.7716423,11.2040253 75.7533008,11.2794557 75.7869268,11.341443 C75.7892195,11.3444304 75.9825691,11.6991772 75.7395447,11.8761772 C75.6218537,11.9620633 75.4926992,12.0053797 75.3559024,12.0053797 C75.3054634,12.0053797 75.2641951,11.9994051 75.2351545,11.9941772 C74.5496423,10.7887848 74.542,10.7887848 74.4365366,10.7887848 C74.3906829,10.7887848 74.3455935,10.8126835 74.3196098,10.8507722 C74.2752846,10.9172405 74.3043252,10.9799747 74.3318374,11.0397215 L74.3570569,11.096481 C74.5358862,11.4900633 74.8698537,12.2204684 74.3830407,12.9538608 C74.1782276,13.2630506 73.4843089,13.629 72.430439,13.9844937 C71.9191707,14.1547722 71.4682764,14.573 71.1686992,14.8485823 C71.0899837,14.9217722 71.0028618,15.0016835 70.9508943,15.0420127 C70.8981626,14.9830127 70.8125691,14.8508228 70.7468455,14.7485063 C70.6268618,14.5617975 70.4908293,14.350443 70.3333984,14.1853924 C70.1010732,13.9419241 69.8664553,13.8762025 69.398748,13.7455063 C69.1465528,13.6753038 68.8324553,13.5871772 68.4014309,13.4407975 C67.6761789,13.1965823 67.5668943,12.4236076 67.5141626,12.0524304 C67.4874146,11.8657215 67.4683089,11.7305443 67.3223415,11.7305443 C67.2061789,11.7305443 67.1572683,11.8418228 67.1182927,11.9321899 C66.9272358,12.3675949 67.0143577,12.7036709 67.0953659,12.8829114 C67.0647967,12.8717089 67.0242927,12.8545316 66.9723252,12.8261519 C66.7086667,12.6812658 66.0162764,12.2787215 65.6142927,12.044962 C64.9073821,11.3250127 64.4618374,10.4049114 64.4618374,9.40489873 C64.4618374,9.05164557 64.4725366,8.73498734 64.5459024,8.40264557 L64.5459024,8.40264557 Z M36.394813,14.5901772 L34.1067154,14.5901772 C34.1067154,14.5901772 33.259187,14.5901772 33.259187,15.4191646 L33.259187,25.3916582 C32.5706179,25.2131646 31.7322602,25.0391519 30.7166016,24.8823165 L30.7166016,15.4139367 C30.7166016,15.4139367 30.7166016,14.5849494 29.8698374,14.5849494 L26.1411707,14.5849494 L26.1411707,13.9038354 C26.1411707,13.9038354 26.1411707,13.224962 26.7212195,12.6200253 L28.780813,10.4743671 C28.780813,10.4743671 29.3608618,9.87092405 30.207626,9.87092405 L35.5465203,9.87092405 C35.5465203,9.87092405 36.394813,9.87092405 36.394813,10.6969241 L36.394813,14.5901772 L36.394813,14.5901772 Z M35.575561,33.5276835 C35.575561,33.5276835 33.2874634,31.3812785 21.049122,31.3812785 C8.81154472,31.3812785 6.60063415,33.5276835 6.60063415,33.5276835 L6.38435772,28.2975949 C6.38435772,28.2975949 8.79855285,26.187038 21.049122,26.187038 C33.3012195,26.187038 35.7864878,28.2975949 35.7864878,28.2975949 L35.575561,33.5276835 L35.575561,33.5276835 Z M33.2584228,39.4508354 C33.2584228,39.4508354 33.3012195,41.0259114 31.9447154,41.0259114 C30.5889756,41.0259114 30.7166016,39.4508354 30.7166016,39.4508354 L30.7166016,33.8943797 C31.8163252,34.0766076 32.644748,34.2752658 33.2584228,34.456 L33.2584228,39.4508354 L33.2584228,39.4508354 Z M24.8549756,43.6771772 C24.9405691,44.1738228 25.0689593,45.0535949 24.5179512,45.1387342 C23.9661789,45.2253671 23.5848293,44.7541139 23.4572033,44.4635949 C23.3311057,44.1738228 22.9069593,43.3045063 22.7373008,41.9796203 C22.6601138,41.3799114 23.0261789,35.3551899 23.0261789,34.8988734 C23.0261789,34.7435316 23.0620976,34.093038 23.1102439,33.2752532 C23.8553659,33.2916835 24.5523415,33.3170759 25.2103415,33.3491899 C24.9665528,35.2424177 24.433122,40.2267975 24.433122,41.2335316 C24.433122,42.3515443 24.8053008,43.3791899 24.8549756,43.6771772 L24.8549756,43.6771772 Z M19.6475285,41.9796203 C19.4778699,43.3045063 19.0544878,44.1738228 18.927626,44.4635949 C18.8007642,44.7541139 18.4186504,45.2253671 17.8676423,45.1387342 C17.3166341,45.0535949 17.4442602,44.1738228 17.5298537,43.6771772 C17.5795285,43.3791899 17.9524715,42.3515443 17.9524715,41.2335316 C17.9524715,40.2230633 17.4144553,35.2088101 17.1721951,33.330519 C17.8294309,33.3021392 18.5317561,33.2819747 19.2738211,33.2677848 C19.3219675,34.0893038 19.3578862,34.7427848 19.3578862,34.8988734 C19.3578862,35.3551899 19.7247154,41.3799114 19.6475285,41.9796203 L19.6475285,41.9796203 Z M10.1542927,41.0259114 C8.79855285,41.0259114 8.84058537,39.4508354 8.84058537,39.4508354 L8.84058537,34.4455443 C9.45655285,34.2625696 10.2865041,34.0654051 11.3824065,33.8839241 L11.3824065,39.4508354 C11.3824065,39.4508354 11.5100325,41.0259114 10.1542927,41.0259114 L10.1542927,41.0259114 Z M5.70495935,10.6969241 C5.70495935,9.87092405 6.5524878,9.87092405 6.5524878,9.87092405 L11.8921463,9.87092405 C12.7389106,9.87092405 13.3189593,10.4743671 13.3189593,10.4743671 L15.3785528,12.6200253 C15.9586016,13.224962 15.9586016,13.9038354 15.9586016,13.9038354 L15.9586016,14.5849494 L12.2291707,14.5849494 C11.3824065,14.5849494 11.3824065,15.4139367 11.3824065,15.4139367 L11.3824065,24.8718608 C10.366748,25.0272025 9.52915447,25.2012152 8.83905691,25.3782152 L8.83905691,15.4191646 C8.83905691,14.5901772 7.99305691,14.5901772 7.99305691,14.5901772 L5.70495935,14.5901772 L5.70495935,10.6969241 L5.70495935,10.6969241 Z M17.9922114,6.0411519 C19.7698049,5.34510127 20.800748,5.78050633 21.1927967,6.02770886 C21.5833171,5.78050633 22.6150244,5.34510127 24.3918537,6.0411519 C26.2214146,6.75662025 27.0796423,7.98516456 26.7823577,9.51692405 C26.568374,10.6282152 24.728878,12.6670759 23.5007642,13.9456582 C24.8817236,14.9785316 27.1384878,16.5804937 27.1866341,17.219038 C27.3127317,18.9165949 26.944374,20.9464937 26.8052846,21.9801139 C26.7647805,22.2818354 26.6333333,23.2258354 26.464439,24.4386962 C25.6039187,24.3834304 24.6700325,24.3408608 23.6566667,24.3132278 C23.7537236,22.7710127 23.8385528,21.4423924 23.8385528,21.4423924 C23.8385528,21.4423924 23.9233821,19.9106329 23.8385528,19.3721646 C23.7537236,18.834443 22.7808618,17.8822278 22.7808618,17.8822278 C22.7808618,17.8822278 22.2183902,17.3206076 21.5817886,16.6820633 C22.2084553,16.2347089 23.0598049,15.5618101 23.1614472,15.1226709 C23.422813,13.9971899 22.9184228,13.8157089 22.8603415,13.7985316 C22.7953821,13.7791139 22.7250732,13.7985316 22.6815122,13.8485696 C22.6364228,13.8963671 22.6241951,13.9680633 22.6524715,14.0278101 L22.6776911,14.0756076 C22.6929756,14.1629873 22.6815122,14.4139241 22.6303089,14.5827089 C22.4935122,15.0285696 22.2199187,15.3273038 21.5153008,15.3153544 C21.4533984,15.3153544 21.2783902,15.2780127 21.1843902,15.2623291 C21.1026179,15.2600886 21.0185528,15.3168481 20.9986829,15.394519 C20.9413659,15.6140886 21.3945528,15.8344051 21.415187,15.8448608 C21.4404065,15.8568101 21.4633333,15.8672658 21.4870244,15.875481 L21.089626,16.3945316 C20.3422114,17.1443544 19.6047317,17.8822278 19.6047317,17.8822278 C19.6047317,17.8822278 18.6311057,18.834443 18.5462764,19.3721646 C18.4606829,19.9106329 18.5462764,21.4423924 18.5462764,21.4423924 C18.5462764,21.4423924 18.6303415,22.7642911 18.7273984,24.303519 C17.715561,24.3266709 16.7801463,24.3647595 15.9173333,24.4155443 C15.7492033,23.2131392 15.6200488,22.2803418 15.5795447,21.9801139 C15.4404553,20.9464937 15.0713333,18.9165949 15.1981951,17.219038 C15.2455772,16.5804937 17.5023415,14.9785316 18.8833008,13.9456582 C17.6559512,12.6670759 15.8164553,10.6282152 15.6017073,9.51692405 C15.305187,7.98516456 16.1634146,6.75662025 17.9922114,6.0411519 L17.9922114,6.0411519 Z M46.9954146,0 L0,0 L0,67.9015316 C0.227739837,68.5774177 0.456243902,69.2338861 0.684747967,69.8843797 L46.9954146,39.2335063 L93.308374,69.8843797 C93.5361138,69.2338861 93.7638537,68.5774177 93.9923577,67.9015316 L93.9923577,0 L46.9954146,0 L46.9954146,0 Z" id="Fill-1" sketch:type="MSShapeGroup"></path>
                <path d="M20.7862276,11.7111266 C20.1442764,12.2144937 19.4083252,12.8679747 19.3227317,13.288443 C19.0682439,14.5334177 20.1580325,14.859038 20.1725528,14.859038 L20.2994146,14.9247595 C20.3238699,14.9389494 20.3536748,14.9464177 20.3819512,14.9464177 L20.3873008,14.9464177 C20.4637236,14.9486582 20.5615447,14.8747215 20.5615447,14.7821139 C20.5615447,14.7335696 20.5370894,14.6880127 20.4996423,14.6573924 C20.414813,14.5289367 20.1075935,14.0181013 20.2787805,13.5804557 C20.4576098,13.1248861 20.928374,13.0561772 21.1927967,13.0561772 C21.4793821,13.0561772 21.6742602,13.1345949 21.7055935,13.1644684 C21.7438049,13.2107722 21.8049431,13.2720127 21.8981789,13.2720127 C21.979187,13.2720127 22.0624878,13.2040506 22.080065,13.1301139 C22.1190407,12.9501266 21.8790732,12.558038 21.4098374,12.3548987 C21.304374,12.3085949 21.1591707,12.285443 20.9650569,12.2891772 L21.2531707,11.990443 C22.0013496,11.3877468 22.7632846,10.7798228 22.9948455,10.5117089 C23.6734797,9.72529114 23.9684715,8.35858228 23.5030569,7.73870886 C23.1278211,7.23683544 22.3590081,6.70359494 21.935626,6.49597468 C21.7636748,6.41232911 21.4098374,6.29432911 21.1927967,6.22337975 C20.9742276,6.29432911 20.6211545,6.41232911 20.4492033,6.49597468 C20.0265854,6.70359494 19.2570081,7.23683544 18.8817724,7.73870886 C18.4155935,8.35858228 18.7113496,9.72529114 19.390748,10.5117089 C19.5863902,10.738 20.1626179,11.2077595 20.7862276,11.7111266" id="Fill-2" sketch:type="MSShapeGroup"></path>
                <path d="M19.8905528,26.853962 L20.3995285,28.1437468 L19.0812358,27.6456076 L19.0812358,29.8771519 L20.3995285,29.3790127 L19.8920813,30.6687975 L22.1748293,30.6687975 L21.6658537,29.3805063 L22.9841463,29.8771519 L22.9841463,27.6456076 L21.6658537,28.1437468 L22.1748293,26.853962 L19.8905528,26.853962" id="Fill-3" sketch:type="MSShapeGroup"></path>
                <path d="M48.0156585,65.6027722 C48.0156585,65.6027722 48.0156585,65.1128481 48.5078211,65.0165063 C48.5078211,65.0165063 50.9930894,63.5444937 56.0117724,63.5444937 C61.0304553,63.5444937 65.1870894,65.7864937 65.1870894,65.7864937 C65.1870894,65.7864937 65.6242276,66.0232405 65.6242276,66.5116709 L65.6242276,93.0332911 C65.6242276,93.0332911 65.6242276,93.5232152 65.1328293,93.4283671 C65.1328293,93.4283671 60.1233171,91.2931646 55.0052846,91.458962 C49.8880163,91.6240127 48.4398049,92.5179747 48.4398049,92.5179747 C48.4398049,92.5179747 48.0156585,92.7808608 48.0156585,92.2909367 L48.0156585,65.6027722 L48.0156585,65.6027722 Z M66.8446992,95.0766329 C67.4025854,94.7793924 67.4025854,94.2849873 67.4025854,94.2849873 L67.4025854,68.1121392 C67.4744228,68.1323038 67.5286829,68.1644177 67.5286829,68.1644177 L69.7586992,69.5221646 C70.1881951,69.7850506 70.1881951,70.2794557 70.1881951,70.2794557 L70.1859024,98.3500127 C70.1859024,98.8444177 69.7266016,99.0542785 69.7266016,99.0542785 L67.7625366,98.9482278 C67.7625366,98.9482278 65.2619837,96.0266076 55.6487642,96.0266076 C51.3866667,96.0266076 49.1153821,98.2506835 49.1153821,98.2506835 L44.8777398,98.2506835 C44.8777398,98.2506835 42.6041626,96.0266076 38.3428293,96.0266076 C28.7296098,96.0266076 26.2290569,98.9482278 26.2290569,98.9482278 L24.2649919,99.0542785 C24.2649919,99.0542785 23.8079837,98.8444177 23.8079837,98.3500127 L23.8033984,70.2794557 C23.8033984,70.2794557 23.8033984,69.7850506 24.2328943,69.5221646 L26.464439,68.1644177 C26.464439,68.1644177 26.5194634,68.1323038 26.5897724,68.1121392 L26.5897724,94.2849873 C26.5897724,94.2849873 26.5897724,94.7793924 27.1468943,95.0766329 C27.7047805,95.3731266 28.2779512,95.175962 28.2779512,95.175962 C28.2779512,95.175962 35.353935,92.1072152 40.4192358,93.0459873 C44.478813,93.8002911 46.3947317,94.7121772 46.9969431,95.0430253 C47.597626,94.7121772 49.5127805,93.8002911 53.5738862,93.0459873 C58.6384228,92.1072152 65.7136423,95.175962 65.7136423,95.175962 C65.7136423,95.175962 66.2883415,95.3731266 66.8446992,95.0766329 L66.8446992,95.0766329 Z M28.3673659,66.5116709 C28.3673659,66.0232405 28.8052683,65.7864937 28.8052683,65.7864937 C28.8052683,65.7864937 32.960374,63.5444937 37.9805854,63.5444937 C42.9992683,63.5444937 45.4845366,65.0165063 45.4845366,65.0165063 C45.9766992,65.1128481 45.9766992,65.6027722 45.9766992,65.6027722 L45.9766992,92.2909367 C45.9766992,92.7808608 45.5517886,92.5179747 45.5517886,92.5179747 C45.5517886,92.5179747 44.1043415,91.6240127 38.9870732,91.458962 C33.8682764,91.2931646 28.8587642,93.4283671 28.8587642,93.4283671 C28.3673659,93.5232152 28.3673659,93.0332911 28.3673659,93.0332911 L28.3673659,66.5116709 L28.3673659,66.5116709 Z M2.3859187,74.5274557 C14.6777561,106.70262 26.1885528,105.607013 46.9946504,117.636291 C67.8030407,105.607013 79.3161301,106.70262 91.6056748,74.5274557 L47.0557886,45.1686076 L2.3859187,74.5274557 L2.3859187,74.5274557 Z" id="Fill-4" sketch:type="MSShapeGroup"></path>
            </g>
        </g>
    </g>
</svg>