<svg xmlns="http://www.w3.org/2000/svg" width="1072.458" height="517.186"><g fill="#443C3C" stroke="#000" stroke-width=".499"><path d="M250.76 314.778l10.435-.844 5.392 2.016 5.603 3.575-2.423 3.421-2.1 7.41-2.907.163s-4.247.13-5.595-.48c-1.347-.613-3.057-2.87-1.886-2.778 1.172.092 1.295.129 2.947-1.568 1.653-1.696 1.05-3.214.584-4.088-.466-.876-2.11-2.046-2.916-2.026-.807.02-3.158 1.167-3.414.69-.254-.478-1.52-1.131-2.735-1.302-1.214-.172-2.858-1.341-2.793-1.989.065-.646 1.808-2.2 1.808-2.2zm-117.768-57.634l-1.269 7.082-3.268-3.14-2.202-.815-.29-1.358 3.7-3.19zm.811-.484l-1.941-3.331-2.636-1.508-.646-1.431 1.667-.867 2.129.872 6.163 6.9 12.929 8.995 3.164 4.018 1.179 2.938-.924 1.255-5.045-4.487-1.253-2.741zm147.447 66.032l1.084 3.479-3.946 2.62-3.056-3.083zm15.228-1.121l-1.677 1.418-1.556-1.61-.494-6.56-1.408-2.006-6.605-.313-15.175-5.68-5.693-1.22-6.606-.306-3.66 2.163-1.473-.325-2.247-3.115-7.468-2.56 1.177-2.522 8.009 2.11 4.429 1.17 17.04 2.844 11.526.557 14.003 2.748 25.955 2.459 6.568 2.808.398 1.976-13.438.297-16.091-4.448-5.992-.428-1.05.974.225 1.222 6.174.839-.475 1.87-1.724.894-.824.427zm26.702 37.682l-5.762.794-3.762-2.096-.386-2.306 1.124-1.17 2.78-.437zM205.584 465.8l3.393 7.024-.214 1.319-1.502.277-2.52-3.751-5.272-16.984 4.745 4.169zM978.85 263.413l-1.614.044-6.644-4.022-7.662 2.666-3.048-2.13.386-3.617 3.899-2.68-.719-4.625 5.205 5.267 4.917.705 2.02 1.263.55 2.392 3.029 2.464zM722.036 429.05l2.6-.345 1.376-2.425 2.451-.754-.171 5.514-6.378-1.137zm-44.413 40.465l-1.693-1.226 1.818-5.101 4.79-5.425 1.283 1.408-1.538 7.944zM161.704 272.966c.854.26 7.25 2.683 7.25 2.683s12.219 4.536 14.26 5.493c2.041.958 10.183 3.752 10.183 3.752l23.688 5.755 15.877 5.347 6.296 3.258-.326 1.471-6.97-1.459-5.295-2.885-4.411-1.398-15.757-4.972-10.26-.288s-3.095 1.257-3.683.344c0 0-1.087-1.466-1.308-2.268-.221-.801-.31-1.163-1.419-1.902-1.108-.74-5.68-1.27-6.397-.889-.718.382-.889 1.597-2.65.592-1.76-1.005-2.612-2.799-2.111-3.779.5-.981-1-1.307-1.696-1.653-.696-.346-6.71-2.052-7.893-2.547-1.182-.494-8.003-2.18-10.173-1.843-2.171.337-.417-2.127.693-2.923 1.111-.793 1.249-.15 2.102.111zm196.299 170.722c-.702.986-.845 4.944 1.087 4.734 1.931-.21 3.703-.335 3.758-1.385.054-1.05-.498-.553-1.748-2.135s-2.396-2.2-3.097-1.214zm620.403-74.289c-.373 1.22-.248 2.992.569 3.375.816.383 1.687-.285 2.06-1.504.373-1.22.596-1.953-.304-2.494-.903-.542-1.952-.597-2.325.623zm7.224 1.675c.285 1.687 1.908 2.05 3.025 1.458s2.04-2.31 1.128-3.256c-.913-.946-4.437.11-4.153 1.798zm4.847-6.254c-.787.825 2.92 7.028 3.845 5.31.924-1.717-3.058-6.138-3.845-5.31z"/><path d="M441.518 301.028l41.615-13.881 3.505-3.226 8.073-1.134 19.51-5.425 2.926 2.488 1.815.53 1.982.583 3.404 3.923 2.968 1.48 1.49 2.965 5.265 2.93 1.095 1.657s-3.229-.894-4.127-.127c-.896.768-2.586 1.955-3.429 2.549-.845.593-1.48.76.674 1.815 2.157 1.055 2.736 1.328 2.592 2.418-.145 1.093 1.285 7.87 1.473 8.497.186.625-1.03 2.747-1.304 3.327-.27.58-.364 1.498-1.83 2.28-1.47.781-1.689 1.187-3.505 1.863-1.816.676-2.934.978-3.45 1.69-.52.71.922 2.554 2.565 1.826 1.643-.728 3.249-2.888 4.98-2.359 1.731.53 2.72-.287 2.91-2.707.189-2.42.806-2.894 1.779-2.975.971-.081 1.696 1.009 1.765-2.68.07-3.687.802-6.398-.175-6.602-.978-.204-1.966-.694-.495-1.476 1.47-.782 1.827-1.697 2.232-2.347.405-.65.897-1.636 2.508-1.332 1.61.302 4.62 1.601 5.375 1.926.752.326 1.804 1.214.615 1.703-1.192.488-.834 1.432.217 1.77 1.049.339 3.586 1.02 4.857 1.504 1.273.482 1.528 1.507.631 2.275-.898.767-2.208 1.029-2.271 3.092-.062 2.063.644 2.847 1.685.988 1.042-1.86 2.398-3.45 4.169-3.666 1.77-.215 1.92-1.02 2.704-1.729.783-.707 2.418-1.72 3.504-1.863 1.084-.141 3.332-1.046 3.866-1.186.533-.138 2.154 1.057 1.572 2.96-.581 1.904-.75 4.314-.615 5.112.136.799-.677 5-.714 5.745-.039.747-.557 2.499.254 2.937.815.438.45 1.935.119 2.403-.332.467-3.212 5.187-4.035 6.64-.824 1.453-1.616 1.874-1.525 3.132.088 1.257-.057 2.35 1.604.016 1.66-2.332 3.975-6.753 4.48-4.99.498 1.763.236 2.628 1.826 2.074 1.589-.556 3.6-.32 1.388-1.753-2.212-1.432-4.103-1.444-2.444-3.776 1.66-2.332 1.823-3.117 1.602-4.62-.22-1.506-.187-1.668 1.208-4.003 1.394-2.336 1.372-3.195 2.248-4.82.875-1.626 1.893-2.168 2.608-1.096.713 1.07 1.457 3.285 1.457 3.285s.531-3.908.798-4.775c.264-.865 1.272-2.561 2.177-3.042.905-.481 1.98-.91 1.98-.91s-.441-1.65-1.472-1.68c-1.033-.03-2.549-.702-2.93-2.239-.382-1.537-.726-3.819-.8-4.505-.075-.685.988-2.554-1.76-1.673-2.748.88-4.923.877-5.761 1.757-.837.88-3.02.591-3.6.319-.577-.272-2.36-.946-3.285-.453-.926.49-2.588 2.271-3.146 2.86-.558.585-1.723 1.665-2.727.869-1.004-.797-2.631-1.672-3.203-1.66-.573.015-2.33-.788-4.042-.46-1.708.328-1.36-1.741-1.36-1.741l4.684-.428 11.47-1.98 2.158 1.516 12.992-4.47 12.932-6.082 6.151-4.31 1.616-.497.117 1.25s-3.658 2.597-5.287 3.898c-1.627 1.302-5.478 3.059-6.156 3.42-.678.36-.624.187-.716 1.106-.092.918-.124 1.95-.387 2.816-.266.865-1.04.55-2.456 1.16-1.416.607-1.696.9-2.954.99-1.257.088-2.342.23-.996 1.4 1.347 1.169 1.56.476 3.096.092 1.536-.38 1.98-.642 2.756.275.778.919 3.656 3.012 3.656 3.012s-.088-1.257 2.006-2.227c2.096-.97 2.572-2.528 4.8-.522 2.227 2.006 1.654 2.02 2.547 3.43.897 1.41 3.582.414 3.582.414s-3.316-1.28-3.313-3.457c.004-2.177-1.41-3.745-2.065-4.703-.653-.957-1.078-1.483-2.169-1.626s-2.41-.169-1.414-1.57c.996-1.399 1.581-1.71 3.1-.488 1.52 1.223 4.806 1.675 6.455 1.233a12.453 12.453 0 0 0 3.852-1.755c.957-.655 1.195-1.072 2.906-1.402 1.71-.329 1.625.877 2.573 2.112.947 1.237 5.78 4.057 5.78 4.057s.945-3.136 1.962-3.677c1.014-.541 2.925-1.412 1.519-1.824-1.404-.413-3.754-.47-4.142-2.291-.39-1.823-1.032-4.12-2.35-4.143-1.317-.024-5.43.422-6.96 1.092-1.529.668-2.347.813-4.675 1.617-2.329.803-2.476-.568-1.588-1.62l.398-1.275-.072-3.431 2.065-.912 12.587-1.302 21.432-4.696 3.92-1.933 5.77-1.048s4.294 4.937 8.222 3.87c3.927-1.067 7.377-1.88 8.746-1.995 1.369-.115 3.619-.494 4.062 1.108.445 1.603-.919 5.189-1.873 5.696-.957.509-2.54 1.76-3.143.241-.601-1.519-2.224-1.88-3.085-.811-.861 1.07-4.494 4.228-4.494 4.228s2.28.831 3.33.885c1.051.054-1.157 2.046-2.189 2.799-1.029.751-3.96 2.923-4.409 4.387-.447 1.464-.248 2.992.016 3.873.265.881 2.59.258 3.007-2.415.418-2.674 2.138-4.815 3.773-4.05 1.633.766 3.21 2.584 3.998 1.756.785-.826 1.901-1.42 1.785-2.788-.115-1.369 1.617-3.107 2.573-3.615.956-.509 4.036-3.166 4.036-3.166s4.128.461 6.364 2.746 2.54 4.778 4.97 5.12c2.428.344 5.792-.63 5.792-.63s-1.214-3.44-2.933-4.364c-1.718-.924-3.58-4.428-2.89-5.819.692-1.39.756-2.036.756-2.036s-4.286-.377-2.903-3.156c1.383-2.778-1.196-2.633-1.704-3.587-.508-.956-.718-2.888-.194-4.596.522-1.707-.928-4.818-1.436-5.774-.51-.955-1.544-3.673-2.68-3.887-1.137-.214-2.11-.512-3.695.738-1.583 1.25-2.846 2.33-4.026 3.57-1.18 1.24-2.847 2.331-3.909 1.874-1.06-.457-1.942-.193-2.962.962-1.02 1.156-5.291 4.653-6.246 5.16-.955.508-3.778 1.986-3.778 1.986l-1.211-2.223 4.713-2.278 4.025-3.046 10.714-6.226 8.684-7.135 13.286-8.993 5.815-6.189 13.514-10.73 8.833-5.696 4.8-1.784 1.372.876s-.712 3.361.147 5.358c.856 1.996-.029 5.327-.73 6.312-.7.986-1.69 3.351-2.467 4.581-.777 1.23-.27 2.185.07 2.823.338.638 1.301 3.599 1.301 3.599s.696-4.456 1.557-5.527c.86-1.07 4.399-4.79 4.399-4.79s.2 1.528 1.687-.285c1.488-1.812 3.4-2.829 4.962-4.885 1.562-2.057 1.916-4.084.219-4.203-1.7-.12-3.565-.556-3.214-2.582.355-2.027.567-3.161.462-4.127-.104-.966-1.398-1.095-2.26-.024-.861 1.07-4.257 3.09-4.257 3.09l.66-2.921 3.574-1.768 8.564-5.376 5.934-6.577s1.581 3.789 3.185 3.345c1.602-.443 2.007-.454 4.118.058 2.11.512 4.754-.28 2.707-1.44-2.046-1.159-4.062-1.109-5.292-1.885-1.229-.777-2.36-2.678-2.36-2.678l4.748-5.273 5.033-3.482s.71.98-.217 2.7c-.924 1.717-.004 3.066 2.365.99 2.369-2.078 2.52-2.566 4.65-1.248 2.132 1.319 6.632.56 7.821-.276 1.19-.837 3.54-3.721 3.54-3.721s.887 3.206 3.21 2.583c2.325-.623 3.346-1.779 4.894-1.171 1.548.606 3.277 1.934 3.277 1.934s1.234-2.29 1.682-3.754c.447-1.464 1.48-5.283 5.159-3.358 3.68 1.926 4.817 2.14 6.196 2.428s2.26.024 2.61-2.003c.353-2.026 1.503-4.476 2.045-5.377.542-.901 1.488-1.813 4.171-.992 2.684.82 3.773 2.488 3.773 2.488s2.946-4.835 6.321-5.403c3.377-.569 5.457-1.268 7.303-1.636 1.847-.368 2.72-1.036 3.748-1.788 1.031-.753-1.325-1.34-3.106-1.618-1.784-.277-8.35-1.486-9.645-1.614-1.294-.129-3.863.42-5.7 1.192-1.838.772-3.036 1.206-4.703 2.297-1.668 1.09-8.21 4.16-9.164 4.668-.955.508-1.254 1.484-3.863.42-2.609-1.065-3.171-.97-4.933-.442s-5.75-.824-6.676.893c-.925 1.718-4.494 4.229-8.018 5.285-3.526 1.058-3.494 2.267-6.137 3.06a34.822 34.822 0 0 1-5.14 1.096l-.473-1.677 11.898-13.271 7.63-4.33 16.044-15.89 15.885-8.746 5.932-5.218 6.832-3.095 2.77-1.25 13.202-8.877 8.909-7.82 4.851-2.434 4.92-.004 15.612-8.258 6.933-1.039 8.85-5.313 2.174-.285 2.736 1.77.475-3.82 12.69-8.942 11.143-6.46 17.232-12.862 1.711 3.2 1.184-.676.242-4.371 11.19-7.125 1.989-2.197 5.558-6.143 10.965-4.23 5.386-4.616 3.339-.62 5.77-2.969 20.003-3.016 11.558-3.975 1.705 1.282 2.586-1.975 6.36-3.875 15.653-4.736 5.959-8.21 7.609 1.267 1.603 1.356-.989 5.708-1.398 4.505 2.518 10.462-6.785 16.998-5.896 8.756-1.72.573-.913-.693-1.873 2.684.362 1.505-2.752 6.92-4.2 15.737-2.19.615-1.966 2.297-.433 2.01-5.135 7.458-12.131 10.951.469 1.87 1.126 4.493-2.93 3.07-.954 3.856-6.943 1.343-2.54 2.082-.581 3.2-4.373 1.231-3.112 2.65-2.721.517-3.005 3.265-7.194-2.64-4.974-.153-1.27-1.42-.072-2.434-3.332.619-2.394-.834-9.845-3.594 8.542 6.863.39.137 5.224 6.778 4.387 1.064.658 1.52-2.053 4.332 1.848 3.14-6.304 2.065-4.894-.348-13.889-3.355-2.137 3.385-9.536 3.304-2.794.188-2.611.18-.623 1.583 6.354 3.325 8.964-2.728 2.295 1.14-1.863 2.121 1.547 5.078-1.988.696-2.116-.727-3.213.898-5.034-.285 4.02 2.858 3.811.487 5.752-1.831.874 1.261-2.63 2.616-1.892.161-2.64 4.1.127 1.423 1.444.687 13.27-1.469 1.247.61-.287 1.603-6.4 5.232-8.049 3.32-15.494 1.62.308 1.839 1.913.396 4.743.99 6.53-.035 17.728 6.94-6.819 4.455-5.595.982-2.928 2.05.701 1.017 5.66.342 2.563-1.363 1.347 4.568 3.558 5.19-2.383.538-4.308-2.402-9.254 2.036-9.275-1.397.815 1.96s5.525 1.556 5.567 3.169c.039 1.613-2.032 2.714-3.028 1.61-.996-1.106-3.107-1.618-4.783-.93-1.677.687-3.992 1.713-3.992 1.713s-3.849-2.243-5.113-1.163c-1.264 1.081-3.345 1.779-4.629 2.053-1.286.275-2.938-1.298-5.412-.187-2.473 1.11-3.145 3.306-3.145 3.306l-.653 3.002-2.796-2.189s-4.988.61-7.12-.71c-2.132-1.317-4.73-1.979-7.339-3.043-2.609-1.065-6.228-.57-2.475 1.111 3.755 1.682 7.266 3.288 9.057 3.97 1.793.681 4.034-.102 6.504 1.854 2.469 1.956 2.519 3.972 2.519 3.972s2.05-1.907 3.006-2.415c.954-.508 2.857-1.928 5.256-2.795 2.4-.868 3.196-1.29 4.84-.122 1.644 1.17 11.128 2.869 14.598 2.862 3.468-.005 4.256-.833 4.883-1.575.627-.742 1.986-1.26.81-3.086-1.175-1.827-1.386-3.758-.24-3.142 1.145.617 1.43 2.305 1.938 3.26.508.956 1.016 1.912 2.754 3.644 1.738 1.731 2.352 4.007 2.352 4.007l3.494 3.582 3.815 1.632 4.043 6.294-12.307 9.278-5.417 2.188-8.667 5.24-4.985.19-1.014-1.2 4.58-4.124-1.394-1.699-4.352 2.971-.94.642-5.55 10.138-1.831.302s-1.608-.929-3.092-2.183c-1.482-1.253-3.967-.546-4.998.206-1.03.752-3.142.24-4.603-.207-1.465-.446-1.9-1.647-2.162-2.528-.264-.88.258-2.589 2.244-3.849 1.984-1.26 1.583-1.25.746-2.44-.838-1.188-2.793 1.281-4.3 2.287-1.509 1.006-.682 1.793-.547 3.968.135 2.176-2.328 3.69-3.039 4.272-.713.583-2.996 2.819-5.447 1.669-2.45-1.148-5.36 1.83-5.818 2.89-.458 1.061-1.891 1.823-3.524 1.057-1.634-.766-2.525-.906-3.642-.313-1.113.593-5.137 1.098-7.566.755-2.43-.343-1.91 1.017-2.04 2.31-.128 1.294.91.945 2.832.333 1.921-.613 4.361.133 6.377.082 2.018-.05 2.526.905 5.348.836 2.823-.07 5.286-1.586 7.113-2.76 1.827-1.176 1.806-1.982 3.494-2.267 1.687-.284 4.51-.355 4.51-.355s5.57.103 7.492-.51c1.922-.613 3.555.153 5.378 2.044 1.822 1.891 4.728 1.337 4.728 1.337l7.48 1.846 10.167 7.578-6.096 4.487s-1.07-.861-4.721-1.576c-3.649-.714-3.206.887-3.99 1.714-.787.826-1.33 1.728-3.29.728-1.964-.999-7.598-.455-8.967-.341-1.37.115-3.3.325-4.783-.929-1.484-1.254-3.181-1.373-4.457-.695-1.273.677-4.65 1.247-6.092 1.605-1.443.359-2.644.793-5.084.047-2.44-.746-5.528 1.511-6.39 2.583-.861 1.07-4.785 8.673-4.785 8.673s4.812-4.399 5.344-5.703c.533-1.304 2.857-1.928 5.382-1.022 2.526.905 5.411.188 6.846-.575 1.434-.763 2.623-1.6 4.63-2.053s7.86 1.336 9.494 2.102c1.633.766.304 2.494-1.627 2.704-1.932.21-2.07 1.101-4.713 1.895-2.646.792-5.44 5.138-9.03 6.842-3.588 1.704-4.005 4.377-4.536 5.681-.534 1.305-2.216 5.058-3.16 5.971-.946.911-3.186 1.694-5.33 3.038-2.145 1.345-1.278 3.744-.727 3.247.553-.498 3.41-2.427 4.609-2.86 1.2-.433 3.719-2.998 3.719-2.998s2.145-1.345 2.113-2.556a4.98 4.98 0 0 1 .896-2.928c.467-.656 2.827-3.137 5.067-3.92 2.24-.782 2.877-1.12 4.288-2.69 1.413-1.569 3.028-1.61 4.938-2.625 1.912-1.017 2.006-.454 3.798.227 1.794.681 4.928-3.028 5.79-4.098.86-1.07 3.503-1.863 5.241-.13 1.738 1.73 6.005.687 6.005.687l2.501.229-1.136 9.371-2.822 1.391-1.303 5.991 2.568 1.021 1.927-2.317 4.355-1.24 1.946 1.461-.37 4.759-3.49 1.355-.432 2.001 5.187 3.657-.072 2.827-4.664 2.027.406 1.305 2.806 1.57.695 2.731.98-.241.42-1.428 1.9-7.238-.213-3.85 1.18-2.16 7.726-2.863 1.289 1.083-2.004 2.514.313 1.837 1.794.37 7.287-3.495-1.812-2.659 1-2.576 7.477-4.557-.206-3.304-2.748-4.496-1.396-.305-9.874 6.428-4.272.567-.628-3.55 1.412-1.336.31-3.046 5.253-6.258 3.723-1.423 3.844.531 5.968 12.17 3.21 2.878 3.865 1.086 2.892 2.522 3.037.98.895 3.555 4.632 8.016.107 3.241-2.5 6.997 3.284 10.9-.662 9.323-7.546-1.98-.929 3.852-5.671 4.933-2.991 2.118s-2.55.472-2.219-2.362c.333-2.833-1.853-3.101-2.385-1.796-.534 1.305.25 3.544-2.276 2.638-2.523-.906-5.506-.748-2.97.558 2.532 1.31 3.808.631 4.75 2.786.941 2.156 1.917 2.454 3.232 3.39s-.524 1.707-1.319 2.13c-.796.424-3.19 4.761-4.655 4.313-1.464-.448-2.514-.5-3.534.655-1.021 1.156-2.031 2.714-.875 3.734 1.155 1.02.38 2.25-.63 3.808-1.012 1.558-4.296 5.757-4.764 6.415-.466.656-3.652 2.35-4.98 4.078-1.329 1.728-1.86 3.032-2.054 4.974-.194 1.942-1.407 5.04.398 3.057 1.806-1.982 1.269-4.148 3.33-5.65 2.06-1.505 7.359-5.754 8.294-7.068s4.996-6.743 4.996-6.743l1.74-1.553 7.653-4.807 1.513 1.972 2.927-2.256 1.527 1.638-7.624 7.914 1.316 1.894 3.996-5.025 2.844-.581 1.456-3.755 3.629-2.889 1.148 1.14-3.349 6.882-.002 3.026-3.922 5.034 1.681.211 2.551-1.765 2.056-3.873 2.64-4.972 3.503-1.685 7.38-11.094 9.41-4.576 3.589 6.004-1.386 5.037 1.191 5.724-5.65 12.805-.576 3.537-4.428 7.018-4.239 2.87-4.557 3.086-2.7 4.628-15.957 11.546-20.475 12.375-8.71 7.256-4.16.17-10.023 5.37-.432.54-1.562 1.973-2.352.204-2.96-1.17-2.827 1.727-5.621 7.229-.166 2.216 1.213 1.275 2.172-.618.955 1.06-1.76 1.926-5.346 2.665-7.923-2.452-13.085 3.598-11.247 4.441-11.42-.751-4.86.818-6.109-4.232-4.418-.031-6.333-2.155-4.209 1.19-3.207-3.198-.066-3.1 5.012-2.7 6.17 1.404.984-2.57-1.793-1.847-3.604-.393-6.772 1.662-2.205-1.663-6.658-1.16-1.16.608 3.54 2.907-.351.834-2.402-.263-7.055-4.136-7.647-2.894-7.388-1.19-.543-7.505 1.732-1.255 3.329.509 1.806-2.938 3.832-.204 1.978 2.26 1.975.775 2.842-2.071 6.232.058-1.204-1.612-7.128-.983.23-6.363.067-1.836-1.886.17-2.67 5.79-1.884.17-1.3-9.969 1.367-2.082.907-5.342-2.797 2.548-1.472 2.955-3.42.022.336 1.502 3.712 3.964-.01 4.783-7.406 2.104.78 2.127-1.08 1.63-3.222.101-.421 2-2.219.154-.43-2.446-1.156-1.138-.767 5.282.95 1.13.77.912-15.434 7.961-2.866 4.222-5.6 3.957-4.742 1.106-5.172 4.922-1.856-.497 4.37-9.678-1.876-3.127 4.798-3.93 4.332.555 3.142-2.87 4.995-7.176 7.096-10.188.678-7.707 1.838-.65 1.584.622 2.719-3.835 1.643-.722 3.498 1.258-1.664-6.35 3.039-9.406 3.787-2.16-2.406-9.151-2.57-2.492 1.597-5.643s1.285-2.566 1.733-4.03c.447-1.464-.752-1.03-2.684-.82-1.931.21-1.592.848-2.676 2.648-1.086 1.803-2.548 1.355-2.43-.342.118-1.697-1.245-4.649-1.352-5.615-.105-.966 2.01-3.52 3.582-5.174s4.407-1.321 6.75-1.137c2.346.183 3.728-2.595 4.093-4.218.362-1.622-3.31-.078-4.67.44-1.358.518-3.374.569-4.84.122-1.463-.447-1.9 1.42-3.388 3.232-1.488 1.813-2 3.924-2.979 6.691-.98 2.77-1.455-.043-1.57-1.412-.113-1.37-.12-4.839.242-6.462.363-1.623 1.214-3.097-.46-5.475-1.673-2.379-.749-4.096-.405-6.526.343-2.43.326-6.303-.625-8.861-.953-2.558-1.636-.767-.907 2.525.728 3.29-.367 4.69-.856 7.607-.492 2.918 1.103 8.608 1.556 10.612.452 2.007-1.617 3.107-3.514 1.46-1.899-1.646-2.715-2.03-4.93-3.508-2.217-1.477-1.574 1.653-1.574 1.653s1.58 1.816 3.88 3.454c2.301 1.637.727 3.29.727 3.29s-.14.891 2.663.014 1.793.681 2.067 1.966c.276 1.283.334 4.19.334 4.19l-.078 2.839 2.085 1.387-1.525 2.48-2.23-1.553-1.095.674.466 1.295 4.473 2.501-1.065 2.771-1.355.267-2.513-2.355-2.05 5.355 1.312 5.186-6.528 1.887-2.691 3.162-2.832-2.704-2.175.63-1.138 2.976-3.717-3.963-1.95-4.41-1.131-4.775.285-4.902-1.283-4.378.776-3.8-3.053-3.784-.128-.744 5.112.383.073-3.163 2.376-2.034-7.018-2.178-.719-1.236-.655-1.124-2.68 1.345-3.457-.779-3.731 2.303-.943 3.053-3.045.519-.215-4.188-1.542-1.627-4.7 6.027-.225 3.563-1.946 3 4.705-.1 2.789 2.228 2.33.452-1.274 3.036-8.919 4.268-7.472 1.986-2.228-1.324.773-2.32 4.162-4.546-.486-.884-5.758 3.619-.677-2 2.47-1.382-.996-1.363-2.682.563-1.17 2.165-2.988-2.027.294 3.714-.851 1.033-2.865-2.025-2.356 1.704.78 3.607-.594 1.253-3.69-3.146-2.435.417-7.014 3.766-2.612-3.293-1.219.209-.83 3.664-5.272 5.47-5.354 2.183s-1.837.772-2.653.39c-.817-.383-.202-1.529-.71-2.484-.508-.956-2.246-2.688-2.246-2.688l-2.661-.013s-.115-1.369.31-3.639c.428-2.27.833-2.28-.185-4.191-1.016-1.912-.537-2.165 1.16-2.045 1.697.117 3.141-.24 3.141-.24s-.359-1.444-1.27-2.39c-.912-.945-1.345-2.145-1.535-3.27s1.537-6.333 1.537-6.333.047-4.521.655-6.07c.607-1.548 3.06-3.467 3.06-3.467s2.07-1.1 3.589-1.703c1.52-.603 3.3-.325 4.766.123 1.464.447 3.744 1.278 4.825 2.542 1.08 1.265 1.186 2.23 3.21 2.583 2.028.352 2.23-1.185 1.968-2.066-.263-.881-2.724-2.433-4.113-3.125s-4.75-2.786-5.588-3.975c-.836-1.19-1.846.369-3.045.802-1.201.435-3.522-2.009-3.522-2.009s-.494-3.619-.524-4.827c-.03-1.21.107-2.102.988-2.366.882-.265 2.39-1.271 4.088-1.152 1.697.117 2.583-3.212 2.583-3.212s-1.972-1.403-2.565-2.518c-.594-1.114-1.809-4.555-1.54-6.74.267-2.186 1.572-1.654 2.93-2.172 1.36-.518 2.145-1.346 3.017-2.012.87-.668-.752-1.03-2.246-2.688-1.494-1.657 1.387-5.845 2.461-8.05 1.076-2.207 1.7.119 2.47 1.956.772 1.836 4.009 2.16 5.473 2.607 1.463.448 4.442 3.359 4.442 3.359s.078-3.31-.6-4.585c-.677-1.274-.687-1.677-3.744-1.278-3.056.4-1.772.125-3.171-.97-1.4-1.094-.62-5.391-.648-6.601-.032-1.21.958-3.574 2.213-5.06 1.254-1.483 2.728-.632 4.87 1.09 2.142 1.72 1.618 3.429 1.618 3.429s1.752-.932 2.05-1.908c.3-.975-1.354-2.548-2.51-3.568-1.156-1.02-.687-1.678.492-2.918 1.178-1.24 3.721-6.066 3.721-6.066s-.558-2.972.208-4.605c.766-1.633 1.048-6.48 1.421-7.7.373-1.22-.534-5.232.127-7.831.66-2.599 2.403-3.934 3.675-4.612 1.275-.676 3.121-1.047 4.31-1.883 1.19-.837.985-5.834 1.104-7.532.119-1.697 1.553-2.462 2.837-2.734 1.285-.275 5.094.356 7.27.22 2.175-.134 2.794-4.345 3.87-6.552 1.075-2.206-.143-5.645-.512-7.491-.369-1.847-.32-6.368.012-9.2.333-2.833-2.264 3.042-3.01 5.482-.746 2.44-.336 5.9.87 8.936 1.207 3.035-.557 3.564-1.239 5.355-.68 1.792-2.772 2.087-7.098.097-4.328-1.99-5.609 4.823-5.145 7.23.463 2.41-1.1 4.467-3.424 5.09-2.325.623-1.752.932-3.093 2.256-1.337 1.324-3.647 5.82-3.436 7.751.209 1.933.301 5.561-.341 8.967-.641 3.405-4.487 7.697-4.487 7.697s-1.469 2.62-2.468 4.582c-1 1.962-2.62-1.468-3.233-3.389-.61-1.92-.716-2.888-2.648-2.676-1.932.21-1.001 1.96-.174 2.747.825.787 1.619 3.43 2.074 5.435.452 2.006-4.57 4.472-6.695 6.624-2.123 2.152-2.039 2.31-2.213 5.059-.174 2.748-6.545 6.135-6.545 6.135l-3.253 5.408s-.407 3.078-.356 5.092c.05 2.016-2.88 4.188-2.88 4.188s1.324 1.338 1.917 2.453c.591 1.116-1.832 4.243-1.832 4.243s-.734 2.842-3.113 4.517c-2.379 1.674.726 3.29 1.5 5.127.772 1.838 1.186 2.23 1.366 2.952.18.722-3.04 4.272-5.016 5.936-1.977 1.664-1.723 2.142-1.682 3.754.039 1.613 1.629 3.832 1.765 6.008.135 2.176-1.028 7.289-2.462 8.051-1.433.762-2.707 1.44-3.941 3.73s-2.464 1.513-4.172.992c-1.706-.522-3.605-2.17-3.476-3.463.13-1.295-1.035-2.719-2.265-3.495-1.23-.776-2.077-2.369-3.262-4.599-1.186-2.23-4.367-3.602-4.367-3.602s1.353 2.547 1.966 4.47c.613 1.922.918 4.416-.461 4.127s-3.153-.162-5.836-.983c-2.684-.82-4.063-1.108-4.336-2.393-.276-1.284-1.44-2.708-3.795-3.295-2.355-.586-1.951-.596-2.712-2.03-.764-1.434-2.217-1.477-2.25.379-.036 1.857-1.52.603-2.95-1.701-1.429-2.305-3.957-.143-3.957-.143s2.375 1.393 2.246 2.687c-.129 1.295 2.236 2.285 3.615 2.573 1.38.288 2.176-.135 3.32.482 1.146.617.964 2.96.964 2.96s2.099.109 3.488.8c1.39.691 4.19 2.88 4.19 2.88s1.343 2.146 2.03 3.824c.688 1.677 1.444-.36 1.573-1.653.129-1.295 1.115-.593 2.25-.38 1.137.215 5.559 2.767 6.055 3.319.498.552 3.627 2.976 4.38 4.006.75 1.03 1.574 4.883 2.176 6.4.602 1.52-.502 2.515-2.031 2.715-1.528.2-6.835.978-6.835.978s.125 1.772.334 3.704c.21 1.931-1.477 2.216-4.575 1.003-3.097-1.214-3.067-.004-3.842 1.227-.778 1.23-.438 1.866.697 2.08 1.135.213 2.195.67 3.583 1.363 1.39.691 1.536 3.27-.416 2.673-1.953-.596-2.54 1.759-3.06 3.466-.524 1.707.518 1.359 2.066 1.964 1.55.608-.673 2.196-2.105 2.958-1.433.762-4.046 2.764-5.639 3.611-1.593.847-3.314 2.988-4.006 4.378-.691 1.389-1.816 1.578-2.867 1.524-1.05-.054-2.335.22-4.37-.536-2.038-.757-1.376-3.355-2.617-4.536-1.24-1.179-.758-4.5-.79-5.709-.029-1.21-.444-8.14-.444-8.14s-.847 4.943-.825 5.75c.02.807-.143 3.958-.55 7.035-.406 3.078.4 3.056 1.819 4.958 1.42 1.9.305 2.494-1.107 4.062-1.415 1.57-3.48-.397-4.232-1.428-.753-1.03-1.464-.447-4.605-.207-3.14.24-2.642.792-3.017 2.012-.373 1.22-1.264 1.081-3.683 1.142-2.42.06-3.32-.482-6.448-2.905-3.129-2.423-2.992-.248-2.23 1.185.762 1.434 1.08 1.265 2.375 1.393 1.295.13 2.047 1.16 3.924 2 1.876.84 3.853-.823 6.059.252 2.204 1.075 2.484-.707 3.334-2.182.851-1.474 2.262.025 3.819 1.034 1.558 1.01 3.182 1.373 4.148 1.27.965-.107 2.794-1.281 3.992-1.714 1.2-.434 2.385 1.796 4.112 3.123 1.727 1.33 2.142 1.722 4.336 2.394 2.197.67 2.824-.071 2.877-1.121.055-1.05-2.035-.757-4.804-1.736-2.769-.98-1.928-2.857-1.884-4.31.045-1.453 1.986-1.26 2.867-1.525.881-.264 2.823-.07 4.381.94 1.559 1.01 1.774-.126 1.424-1.166-.35-1.04-1.42-1.901-1.769-2.941-.35-1.04 1.432-.763 2.598.661 1.167 1.423 1.484 1.254 2.526.905 1.038-.35 1.421-1.166 2.494-.305 1.07.861 5.427 4.06 5.427 4.06s-1.58-1.815-2.086-2.771c-.509-.956.247-2.993.247-2.993s1.841-3.838 2.458-4.984c.617-1.145.399-3.48.94-4.38.542-.902.83-2.281 2.35-2.885 1.517-.603 4.772.527 4.772.527s-.517-1.358-1.195-2.633c-.678-1.274 1.912-1.017 1.912-1.017s-1.917-2.454-2.268-3.494c-.346-1.04 1.341-1.324 3.102-1.851s2.708-1.44 3.08-2.661c.373-1.22 2.244-3.85 3.254-5.408 1.01-1.558 1.658-1.494 3.185-1.693 1.528-.201 2.047 1.159 2.153 2.124.104.966.772 1.835 3.105 1.616 2.336-.22 5.826 2.224 5.826 2.224l-.707 9.882-6.203 13.309-7.239 6.188-4.574 6.65-6.654 3.457-.569 2.398 2.576.996-1.068 3.115.523 5.212 1.976.922 2.372 1.106-1.348 1.753-5.198 2.307-3.62 3.267-11.392 1.281-11.113-.656-4.149 1.357-2.078-1.714-7.059 3.647-7.022-.661-6.021 1.204-8.607-1.27-7.22 2.03-3.707 1.046-2.948 1.48-1.22 2.033-3.545-2.047-3.676 1.319-2.197-.508-4.66-2.7.013-5.456-1.475-1.818-4.305-1.539 1.344 5.178-3.064 4.513-2.646.687-2.241 4.147-3.432-3.25-3.264-.682-3.994-2.669-8.429-.841-.606-1.713 3.57-.826-5.533-5.725-6.597-1.504L528.37 470l.78 2.46-.791 4.814 1.524 2.292-4.513 3.844-3.751 1.52-1.779 2.617-4.208-.587-2.036-1.232.34-3.623-1.302-1.068-2.376 2.391-1.142.017-2.256-4.274-1.834-1.154-1.961-3.254-.27 2.6-.254 2.433 3.617 5.476 3.576 1.367.793 2.122-.585 1.257-2.609 1.503-3.574.455-3.277-2.164-2.223.175-4.25 2.244-.524 5.03-1.99 1.057-10.081-1.573-2.606 1.512-2.101 4.086-5.315-3.393-4.905 1.886-1.996 5.036-1.266-.253-2.199-4.133.05-.468.358-3.36-1.577-.938-3.116.746-11.292-1.68.92 2.393-.483 2.206-9.007-1.715-2.708.56.238 2.704-3.704-1.633 2.281-7.316-3.702-1.636-.61-1.708.805-3.671-1.106-.993-7.084-1.094-1.44 2.636-1.344-.054-7.7-4.675-2.76-1.677-2.805-.378-2.025 2.075-5.91-3.941-11.633 1.962-3.884-2.378-2.424.104-5.132 2.496-3.102 4.055-2.128-.688-2.067-2.37-5.525-9.25.149-2.213 7.858-1.58 5.779-5.436-2.683-.067-2.157-.056-2.19-2.645-3.349-.469-9.683-3.88-2.563-1.646.346-2.144 1.7-.612 7.571 2.858 6.98.475 6.529-1.968 4.616 2.54 5.51-1.668.658-3.277 6.44-2.75 5.553-4.667-6.273 1.847-5.026-2.355-6.879 2.291-3.622-2.167-5.76 1.123-1.98-1.088v-3.64s-.526-1.069-.865-1.706c-.338-.637-.453-2.006 2.264-3.043 2.718-1.036 1.797-2.385 2.16-4.008.362-1.623 1.89-1.823 3.1-1.853 1.21-.032 2.006-.454 1.817-1.579-.19-1.125-2.037-.756-3.978-.95-1.942-.193-2.26-.023-3.41 2.425-1.15 2.45-8.8 6.762-8.8 6.762l-7.061 3.04-5.654-.087-3.62 1.48-7.92 6.908-3.334 1.018-12.446-.13-4.466 2.526-3.5-.065.416 1.633 3.341 2.62.464 2.105-2.998 1.032-7.491-5.199-2.9.164-4.052 2.343-1.1-2.163-.539-1.067-2.93-.984-1.162-3.278-3.316 4.326-3.743 1.21 1.681 5.858-4.022-.485.503 6.894 1.78 1.006 3.893-1.609.194 2.233-5.17 3.518-.479 1.83-6.928 10.163-4.384 2.336-15.526 5.433-9.709.465-6.262 2.205-7.402 4.053-7.03.898-8.44 2.873-5.484 3.182-1.53-.863-.347-3.584-7.98-7.283 1.127-7.64-.8-6.431.783-1.379 2.131-.535 1.615-1.055-.067-1.746-1.678-3.519-1.03-2.984-1.23-4.95 1.174-1.027-.949-2.906-7.827-11.715-2.336-3.49-8.563-9.996-.71-18.901 2.533-7.128 2.044-.602 4.93 1.718-.306-2.844 2.54-1.33-.167-1.084-3.816-.737-4.066.536-.89-1.583.682-6.111 4.488-1.06 1.286-4.073-1.1-1.317-2.168 2.153-.71-.837-.87-3.563-3.506-1.016-2.92.963-2.242 2.35-4.63-.694 1.193-7.175-4.055-3.777-2.597-.963 1.063-3.473-4.342-3.312-1.148-5.77 2.212-3.5.54-3.896-2.487-2.176-1.129-2.461-3.357-.76-3.337-2.745 1.051 3.346 4.298 3.755.533 2.244-2.526 4.638.34 5.81-1.458 1.164-1.488 3.998-8.304 2.724 3.346 2.033 6.185-3.162 1.738.527-1.775 8.438-5.99 3.579.963 1.382 4.216-.941.902 1.243-.459 3.693 3.638 2.145-10.6 2.214-5.557-1.262-4.67.32-11.03-3.056-6.072 2.253-6.981 2.59-1.313-1.051.565-2.75 1.75-1.966 1.665-5.41-.235-3.04-3.006-2.931.34 7.966-14.381 4.133-2.118 3.182 2.673.544-11.666 10.02-6.86 3.493-2.52-.183 2.755-2.913 5.567-3.062 2.704-2.95-21.248 8.72-.947 3.362-2.124-6.632-5.183-2.583-.33 1.812 2.857 1.502 1.285 2.06.092 5.602-1.697 2.442 1.43.246 7.34-5.695 1.858-.413-.645 3.071-15.118 9.312-4.15 1.087-2.805-3.183-1.102.843-.72 5.643-5.971 3.26-2.199 3.51-11.386-11.665-10.87-6.59-3.208-5.577-5.316-9.235-1.983-5.725-3.184-4.002-3.46-14.67.813-6.52 2.458-2.964.704-9.29-.6-4.536 3.606-4.822 3.987-15.17 10.242-38.863.836-16.64-1.326-8.68.829-8.344-1.773-8.773-.712-3.516 2.647 1.765.749 3.802 4.86 4.396.883-2.066-3.907-4.506-1.361-3.68-3.392-3.746-.5-5.076-1.799-2.819-.402-2.315-.105-.604 4.872-24.63-.944-3.873.719-4.978 5.84-15.287 7.984-12.455L48.254 158l1.234-2.022 6.212-10.174 3.052-7.201L61 124.152l3.114-10.37.993-23.81 8.03 4.774 1.721 4.417 5.126 13.154 5.709 8.483.846 4.416 6.84 9.13 6.095 17.746 5.271 7.529 10.09 10.596 6.015 6.056 2.29 3.64 6.207 9.866-3.641 10.277-.718 6.458-1.502 3.999-3.283-2.805-.65 1.126 4.394 5.61-.489 11.322 2.932 10.42 4.382 7.767-1.2 3.201-1.842-1.476-1.414-3.656s-3.044-6.168-2.75-7.566c.294-1.399-.231-6.183-2.312-4.886-2.08 1.298-2.191 1.63-3.405 1.143-1.215-.487-4.33-1.316-4.33-1.316s-1.39-2.795-2.738-3.894c-1.349-1.097-3.603-3.517-5.022-3.337-1.418.182-3.504 1.292-3.696-.326-.192-1.619-2.068-4.25-3.417-5.348-1.349-1.098-3.233-1.23-4.216-1.28-.984-.052-3.378-.784-4.31-1.818-.932-1.033-2.932.235.125 2.035 3.06 1.8 4.765 2.134 5.98 2.444 1.216.309 3.13 1.394 3.963 2.957.832 1.565 2.343 2.971 1.516 4.83-.827 1.86-1.47 4.78-1.47 4.78s2.148-.09 2.612-1.197c.463-1.106.083-2.72 1.17-3.012 1.087-.29 2.331.098 3.443.75 1.11.652 2.85 2.306 3.717 3.756.867 1.45 4.762 5.003 6.736 5.481 1.974.48 4.718 1.14 4.744 1.642.027.502 2.155 4.326 1.436 4.231-.719-.094-1.156-.967-2.055-1.554-.898-.588-2.225.15-2.225.15l-1.81.828-.186 1.413 3.094 2.392.01 2.462.062 12.252 4.345 3.312.878 1.916-1.06 1.317-2.493-.351-2.48-2.51-2.175-9.113-1.35-1.861-.987 1.114.164 2.909-6.01-2.218-1.262 1.24 7.076 4.547 1.33 2.539.657 6.162-2.075 1.283-3.18-.035-1.323 1.107-.038 1.01 2.93 1.307 2.1-.134 8.057-2.036 1.365 1.527-.737 1.665s-7.012 1.113-8.592 1.322-1.572.512-3.067 2.55c-1.497 2.038-1.707-.335-2.619-2.047-.91-1.712-.768-.548-1.96.086-1.19.633-.15 2.565-.515 4.575-.366 2.008-2.354.965-3.147-.526-.792-1.49.05-4.039 1.015-4.92.965-.882-1.381-2.418-3.304-3.88-1.923-1.462-3.53-5.383-3.53-5.383s-.057.793-.084 2.718c-.027 1.925 1.756 3.844 2.873 4.684 1.115.84.756 1.603.348 3.35-.409 1.745.247 4.059-.142 5.125-.388 1.068-.68 1.415-.364 2.01.316.595 1.277 1.327 1.17 3.103-.106 1.776-2.073 2.725-3.34 5.012-1.268 2.286-3.628 1.082-3.628 1.082s.4 1.113 1.302 2.448c.901 1.336-.55 6.694-.829 7.606-.278.911-2.043 3.857-4.723 3.848-2.68-.008-1.34.713-.694 2.65.647 1.935 1.15.726 2.794.043 1.643-.682 3.92-4.46 4.33-6.205.409-1.747 1.781-7.253 2.134-8.205.354-.953 1.794-2.196 3.409-3.627 1.613-1.433 3.462-1.766 3.462-1.766s-.367-1.216-1.43-3.217c-1.064-2.002-.167-2.11 1.453-2.82 1.621-.71 2.467-1.844 2.843-3.08.375-1.236 1.234-.383 2.609.697 1.376 1.08 2.7.478 2.886-1.15.186-1.628.833-1.421.833-1.421l2.622-.8 5.583 2.745 1.29 3.55 3.634 4.3s.99 2.184 1.244 4.436c.255 2.253.633 2.626 1.916 4.142 1.283 1.515 4.853 7.15 6.492 6.28s2.467-.93 2.614.424c.146 1.355-.558 1.825-1.687 3.476-1.13 1.651-.801 2.063-2.286 3.222-1.486 1.16-3.037 3.99-2.86 5.043.177 1.053-.341 2.952.065 4.075s1.495 2.452 1.124 2.651c-.373.198-2.667 1.61-4.573 2.337-1.907.726-2.195 1.264-3.053 1.623-.859.362-1.17-.046-2.224.132-1.05.178-3.256 1.062-3.153 2.153.104 1.093-.644 3.975-1.677 3.471-1.03-.503-2.758.022-.856 2.162 1.903 2.14 3.105.629 2.989-1.207-.117-1.836-1.27-3.98 2.267-4.154s4.056-2.075 5.027-.967c.971 1.107 1.739 3.089.902 4.393-.835 1.304-.599 3.185.561 4.288 1.16 1.103 2.068 1.194 1.565-.832-.504-2.027-.21-3.806-.316-5.087-.108-1.28.282-3.399 1.711-3.585 1.43-.186 3.701.134 4.454 1.55.752 1.414 1.249 1.629 1.716.712.468-.92 1.609-.568-.395-2.178-2.002-1.611-3.293-1.703-2.843-3.552.45-1.85 1.3-2.589 2.6-3.376 1.301-.787 6.598-2.66 8.044-.659 1.445 2.002 1.453 3.812 1.185 5.102-.27 1.29-.381 2.877.862 1.261 1.242-1.616 1.602-3.813.969-5.005-.634-1.191-2.55-4.077-3.428-4.47-.878-.393-4.128-.576-3.699-1.567.427-.992.566-4.506 2.82-4.94 2.254-.433 3.88-1.298 4.903-1.173 1.023.124 1.181.423 1.656 1.316.476.894 1.356 2.73 1.822 3.426.466.695 2.654 3.734 2.654 3.734s-2.43-3.852-1.496-5.687c.936-1.834-.4-2.368 1.126-3.274 1.524-.906 1.848-1.556 2.864-.184 1.015 1.37 2.583 1.11 3.964.471 1.38-.637 2.23-1.376 2.23-1.376s-4.536-.264-3.491-2.253c1.044-1.989.362-3.632.362-3.632s-1.467 2.786-3.125 2.902c-1.657.117-3.961 1.535-4.958.917-.996-.616-3.054-1.61-3.118-2.63-.063-1.015-.082-1.77-.082-1.77s-.78.51-1.474 1.358c-.696.847-2.036 1.56-2.68-.01-.643-1.57-3.228-4.302-4.39-3.969-1.161.33-2.06.617-4.308 1.24-2.248.622-3.105-.629-3.36-1.83-.257-1.2-.26-2.824-1.113-3.709-.852-.885-.642-1.574.232-2.8.875-1.227.867-2.053.867-2.053l-1.206-2.267.525-1.398 2.827.36 4.578 2.377 5.753-.148 3.404 1.259 2.123-.808.595-7.064 1.463-1.165 6.228 1.624 3.325-1.07s4.262-.632 5.026-.732c.764-.1 2.475 2.158 3.338 4.356.861 2.198 5.614 3.45 5.614 3.45l6.693 1.416 2.787 3.197 4.65.36 8.761 2.46.624 1.371-3.521 2.106-.243.881-.382 1.391.913.908 3.199-2.453 10.357-2.407 13.969 7.708-2.46 4.432-5.296.76.15 1.422 5.333 1.872 1.563 3.427 1.646-6.215 6.631-2.193 3.447-.081 1.825 1.818 4.283 1.031 1.897 1.62-.852 2.608s-1.775 1.658.415 3.661c2.188 2.003 4.043 3.571 4.746 5.853.703 2.284 1.263 3.722 2.551 5.182 1.287 1.461-.01 2.865-1.366 1.85-1.357-1.015-4.133-.662-4.628.52-.495 1.181-.713 2.116-3.062.197-2.348-1.917-5.641-2.925-6.988-3.537-1.348-.613-3.147.038-3.996-.02-.849-.06-3.81.901-.93 1.515 2.88.615 3.793.027 2.497 1.432-1.296 1.403-1.083 5.07-1.083 5.07s1.053-4.747 3.416-3.756c2.365.99 6.65 2.9 7.608 4.127.958 1.226 2.258 1.557 2.84 2.268.583.712 1.702 1.853 1.206 3.037-.493 1.183-1.955 2.47-2.051 3.441-.098.97-.851 1.474-.45 2.998.401 1.522 2.262 3.292 1.925 1.123-.338-2.171.374-2.754 1.25-3.22s2.318-2.56 2.525-3.897c.209-1.335.77-4.7-.502-5.555-1.272-.855-2.268-1.96-1.101-2.07 1.168-.11 3.39.036 3.998 1.756.608 1.72 1.582 3.552 1.582 3.552s1.52-2.136.721-3.448c-.8-1.31.131-2.827 1.841-.57 1.711 2.256 1.06 1.991 3.236.322 2.178-1.668 4.303-2.43 4.303-2.43l5.01 2.692 6.517-.974 4.876 1.255-1.51 4.328-8.023 1.66.362 1.161 3.422 2.42-.35 2.145-4.045-.148-1.259 1.237-.735 3.478 1.673.397 2.244-2.344 1.72.87 1.979-.434.976-3.72 1.434 1.502-.458 4.011-2.12 4.442.09 4.924 3.743 2.768 1.375 6.658s-.023 1.864.072 2.426c.095.563 1.472 2.384-.304 2.308-1.777-.077-.719 1.914-.748 3.972-.029 2.059-.343 2.43-1.554 3.994-1.212 1.563-2.19 2.799-2.224 4.656-.034 1.857-1.585 2.783-2.386 3.006-.802.222-2.32.824-4.462 3.904-2.143 3.08-2.282.703-2.53-1.106s-.942-2.156-2.097-3.176c-1.156-1.02-1.867-.437-1.434.762.434 1.2 1.897 1.646 1.89 2.978-.006 1.33-.384 2.35.007 3.47.392 1.12.224 2.537-.5 4.249-.723 1.713.753 4.299 1.42 5.17.668.87.88 1.268-.108 2.1-.988.833-1.504 1.209-1.93 3.478-.427 2.27-.614 2.881-.09 4.442.524 1.56-.724 1.713-2.381-.061-1.66-1.774-.979 1.234-1.972 3.398-.996 2.164.863.664 1.625 2.098.762 1.433-.109 2.1-2.44 4.056-2.331 1.955-2.182 4.736-3.083 7.461-.9 2.726.782 2.24 1.67.645.889-1.597 2.544-6.359 2.89-7.053.347-.696 2.252-1.913 3.78-2.113 1.529-.2.19-2.143-.033-2.945-.221-.801.944-2.646 1.617-3.107.675-.462 2.918-4.31 3.085-5.727.166-1.415 1.88-.692 2.7-.107.82.584 1.87 2.172 2.615 4.535.746 2.36 1.746 3.667 2.844 4.004 1.099.336.48-1.787-.16-3.184-.64-1.397-.47-2.61-1.576-3.349-1.108-.74-1.823-1.891-2.5-3.165-.678-1.275-.667-2.405-.611-3.454.054-1.05-.85-3.33-.812-4.984.039-1.655 3.637-6.224 4.18-7.125s3.578-2.108 5.076-3.517c1.498-1.41 1.736-1.536 1.007-3.294-.73-1.757.46-2.594 1.321-3.664.861-1.07 2.633-1.196 3.651-.819 1.018.378 2.541-.022 3.29-.728.75-.705 1.606-1.976 2.81-2.21 1.204-.231 2.52-.83 2.52-.83l1.339-3.207 1.27-3.389-.886-5.223 1.047-.973 1.41 2.008 4.188 1.57 4.288 4.342 4.2-.583 6.157 4.816-1.88 5.321.274 1.696 1.984 1.09 1.11 4.625-2.155 1.803-3.29-.324-2.728.912 2.16 5.471-4.673.634-.521 3.216-1.494 2.165 1.312 2.886.994-1.444 1.62-.077.684-3.953 18.657-3.675 2.13.685 3.625 3.981 3.251-.481 3.051 1.262 1.146-1.841-4.645-1.863 2.827-3.599 6.114-5.091 3.15.39-.011 2.158 3.598 2.835 1.196-5.01 1.657-1.08 3.872.89.604 3.115.13.687 1.695-.27 1.295-4.062 2.903-1.973 1.298-4.06 5.332-2.082 2.898 5.304 2.492-1.79.948-1.915-2.517-1.182-.445-2.44-1.168-1.124-3.004 1.025-4.369-.17-3.453 2.224-2.03-1.563.066-5.322 4.26-.44 4.362-3.132 2.77-3.733 3.827-1.399-.37-2.642-3.662 1.216-.502.17-2.996 4.33-2.317.715-.433-2.779-5.617-2.918-6.866-.215-4.338 2.46-2.008-.416.862-1.382-.172-2.568 2.196-4.632-2.116-1.027-1.634 2.23-4.316 1.784-1.297 4.065-3.565-.204-2.366-7.037.627-4.086 1.575-4.19 4.518-7.252 2.088-3.347 2.283-1.53.67 1.844 1.982 1.09 1.292 3.22 2.632-.031-.31-2.508-2.947-3.958-.83-2.93-3.125-2.889-1.736 1.281-3.563-2.025-1.634.41-1.85 2.492-5.002 2.1-1.883-.142-.698-1.17 1.61-1.56-.314-7.629-3.16-5.517 1.802-4.786 1.736-1.285 3.356.468-.87 4.36 1.192-.157 1.759-2.168 3.301 1.813 4.257-1.925 2.957.316 3.884 2.375 1.445 2.822 3.066.928 3.506 6.447 1.609-7.934 2.02.08.951-1.918-1.856-.813-5.466 1.807-.235-7.832-4.205-4.55-3.165-.05-10.416 5.865-.82-1.448.815-1.857 2.821-1.44 2.755-4.884 6.255-2.996 13.934-3.018 7.159-1.55 27.847-3.135 17.642-5.96 10.36.626 7.639 4.498-.083 2.02s.49 2.056.286 3.034c-.206.979-1.989 1.492-3.705 1.535-1.716.043-5.804-.828-6.557-1.152-.753-.325-3.744 1.41.562 1.875 4.307.464 3.42.211 5.851.369 2.43.158 2.735 1.325 2.637 1.958-.1.631-.228 2.297.545 3.479.774 1.184 1.63 3.338 1.764 4.137.136.8.672 2.082.477 3.08-.192 1 .122 2.139.137 2.71.015.572.094 3.72.002 4.64-.092.918-1.024 4.023-2.388 5.327-1.362 1.305-2.853 1.228-2.892 1.972-.038.746-.53 1.732-1.855 1.421s-3.026.305-4.338.568c-1.312.261-2.529.475-3.147.948s-1.138 1.183.487 1.19c1.625.006 2.31.973 2.2 1.902-.113.93.15 2.24-2.094 1.837-2.244-.402-4.06.275-4.73.922-.672.646-2.703 2.28-3.092.457-.39-1.822-1.15-2.433-1.474-1.68-.326.751-2.327 1.671-3.524 1.873-1.199.202-.867-.265-1.747-1.101-.881-.838-.706-.785-2.108.396-1.403 1.182-2.82 1.789-2.512 2.64.307.852 1.513.937 2.77.847 1.257-.09 4.398-2.365 5.431-.423 1.033 1.943-.059 1.798-.835 2.791-.776.993-1.992 2.798 1.226.944 3.218-1.857 4.645-.586 4.645-.586s1.569-1.413 3.356-3.234c1.788-1.82 2.532-1.783 3.67-2.096 1.136-.316 2.455-1.16 3.042-2.78.59-1.619 1.766-2.679 2.844-3.105 1.077-.427 4.637-2.782 7.094-5.25 2.457-2.466 2.88-3.852 3.599-4.958.716-1.106 2.652-1.555 2.652-1.555s-.44-1.65-1.54-2.08c-1.1-.431-2.333-1.66-2.068-2.527.265-.866 1.133-1.736 1.372-3.195.24-1.458-.548-3.215-.396-4.02.15-.805-1.857-3.218.245-3.9s3.147-.079 2.898 1.358c-.25 1.439-.487 1.538.41 2.681s2.499 3.338 2.499 3.338.845-.593 2.734-.584c1.89.011 2.55.383 3.543 1.16.993.777 2.371.916 3.124 1.24.752.325 1.757 1.121 2.13 2.372.375 1.251 2.33 3.837.929 5.016-1.402 1.18-2.534 1.782-.329 2.93 2.205 1.146 2.251 1.728 2.115 3.976-.136 2.248.38 4.583-1.269 5.025-1.65.443-4.123 2.338-4.123 2.338s2.109-.396 3.096.093c.985.491 1.216 2.833 1.216 2.833s2.554-.923 1.773-2.392c-.782-1.47-1.135-1.861.657-1.22 1.792.643 3.744.449 5.999.871 2.255.423 4.4-.453 2.207-1.028-2.19-.576-5.724-.727-6.497-1.04-.774-.314-2.46-2.173-.928-5.016 1.532-2.845.4-4.156-.493-5.563-.895-1.409-1.914-5.507-1.589-6.26.326-.752 2.577-4.152 1.931-4.822-.646-.672-1.512-.935-1.897-.296-.385.64-.792.421-1.678-.703-.887-1.123-1.767-1.96-.411-2.68 1.357-.722 1.981-.91 3.267.147 1.287 1.056 4.038.726 6.412 1.374 2.375.648 4.536-1.831 2.646-1.842-1.89-.01-3.991.673-5.27-.097-1.28-.768-3.047-2.73-3.589-3.745-.54-1.018-2.849-1.267-1.295-3.254 1.554-1.985 2.914-4.882 3.652-5.129.738-.248 2.035-1.082 2.035-1.082s-2.49-1.14-1.834-2.36c.657-1.22.705-3.855-1.103-2.894-1.808.962-6.57 2.044-8.634 2.85-2.062.808-8.069 1.509-8.86 1.93-.79.422-.963 1.237-4.045 1.715-3.08.486-5.008-.496-5.01-.497z"/><path d="M323.615 340.207c-2.23 1.185-2.935 5.238-.217 4.201 2.718-1.036 2.447-5.387.217-4.201zm1.63 19.972s5.32 6.161 6.384 3.552c1.064-2.609-6.384-3.552-6.384-3.552z"/></g></svg>