<svg viewBox="0 0 382 313" xmlns="http://www.w3.org/2000/svg" fill-rule="evenodd" clip-rule="evenodd"><g fill-rule="nonzero"><path d="M126.76 17.281c.415.208.545.597.39 1.168-.156.57-.494 1.193-1.012 1.868a15.591 15.591 0 0 1-1.79 1.946c-.675.623-1.324 1.09-1.947 1.401-2.283.623-4.255 1.53-5.916 2.724-1.66 1.194-3.191 2.88-4.592 5.06-1.401 2.18-2.725 5.008-3.97 8.485-1.246 3.476-2.543 7.913-3.892 13.31-3.633 14.012-8.874 25.895-15.724 35.651a21.53 21.53 0 0 0 3.814-.934c1.194-.415 2.05-.778 2.57-1.09.31-.104.518-.026.622.234.104.26.052.545-.156.856-.83.519-1.972 1.038-3.425 1.557a22.048 22.048 0 0 1-4.515 1.09c-6.538 8.821-14.063 15.542-22.573 20.16-8.51 4.619-17.696 6.928-27.556 6.928-7.576 0-13.388-1.35-17.436-4.048-4.047-2.698-6.071-6.175-6.071-10.43 0-3.633 1.453-7.084 4.359-10.353 2.906-3.27 7.472-5.682 13.7-7.24.519.105.804.312.856.624.052.31-.026.57-.234.778-6.33 2.076-9.496 6.02-9.496 11.832 0 4.359 1.712 7.836 5.137 10.43 3.425 2.595 8.2 3.892 14.323 3.892 8.095 0 15.36-1.686 21.795-5.06 6.435-3.372 12.091-9.055 16.97-17.046-5.294-.312-9.342-2.336-12.144-6.072-2.802-3.736-4.203-8.562-4.203-14.478 0-6.435 1.712-12.818 5.137-19.149 3.425-6.33 7.992-12.04 13.7-17.125 5.708-5.085 12.325-9.185 19.85-12.298 7.524-3.114 15.334-4.67 23.43-4.67zM94.38 56.668c1.141-4.67 2.387-8.666 3.736-11.987 1.35-3.321 2.854-6.201 4.515-8.64 1.66-2.44 3.555-4.541 5.682-6.305 2.128-1.765 4.593-3.425 7.395-4.982-7.161.83-13.752 2.75-19.771 5.76-6.02 3.01-11.21 6.616-15.568 10.82-4.36 4.203-7.733 8.796-10.12 13.777-2.387 4.982-3.58 9.912-3.58 14.79 0 6.227 1.349 10.976 4.047 14.245 2.699 3.27 6.383 5.06 11.054 5.37 4.878-8.302 9.081-19.252 12.61-32.848zm27.866 21.172c2.283 0 4.125.312 5.526.935 1.401.623 2.102 1.401 2.102 2.335 0 1.142-.286 2.44-.856 3.892-.571 1.453-1.116 2.647-1.635 3.58-.208.208-.467.234-.778.079-.312-.156-.467-.442-.467-.857.31-.726.467-1.764.467-3.113 0-1.453-.39-2.647-1.168-3.58-.778-.935-1.842-1.402-3.191-1.402-1.765 0-3.192.545-4.282 1.635-1.09 1.09-1.634 2.62-1.634 4.592 0 1.66.44 3.243 1.323 4.748a55.947 55.947 0 0 0 2.958 4.515 44.759 44.759 0 0 1 3.036 4.826c.934 1.713 1.4 3.659 1.4 5.838 0 3.737-1.504 6.643-4.514 8.718-3.01 2.076-6.954 3.114-11.832 3.114-3.528 0-6.305-.57-8.329-1.713-2.023-1.141-3.035-2.387-3.035-3.736 0-.415.155-.986.467-1.712.311-.727.726-1.505 1.245-2.336a35.62 35.62 0 0 1 1.713-2.49c.622-.83 1.297-1.505 2.023-2.024.312-.208.597-.156.857.155.26.312.285.623.078.934-.623.623-1.09 1.272-1.402 1.946-.31.675-.467 1.583-.467 2.725 0 1.868.623 3.399 1.869 4.592 1.245 1.194 2.854 1.79 4.826 1.79 2.698 0 4.8-.752 6.305-2.257 1.505-1.504 2.257-3.347 2.257-5.526 0-1.972-.441-3.814-1.323-5.527a59.147 59.147 0 0 0-2.88-4.982 67.192 67.192 0 0 1-2.88-4.904 11.12 11.12 0 0 1-1.324-5.293c0-2.698 1.142-4.956 3.425-6.772 2.284-1.816 5.657-2.724 10.12-2.724zm79.241-75.816c1.557 0 2.828.39 3.814 1.168.986.778 1.66 1.816 2.024 3.114.363 1.297.415 2.776.156 4.437-.26 1.66-.857 3.32-1.79 4.981-.208.208-.468.208-.78 0-.31-.207-.518-.467-.622-.778.208-1.246-.233-2.283-1.323-3.114-1.09-.83-2.777-1.245-5.06-1.245-4.255 0-8.536 1.583-12.843 4.748-4.308 3.166-8.485 7.343-12.533 12.532-4.047 5.19-7.836 11.157-11.364 17.904a169.62 169.62 0 0 0-9.186 20.86c-2.594 7.162-4.644 14.271-6.149 21.329s-2.257 13.492-2.257 19.304c0 3.114.882 4.67 2.646 4.67 1.246 0 2.465-.518 3.659-1.556 1.193-1.038 2.569-2.595 4.125-4.67.312-.208.597-.182.857.077.259.26.337.597.233 1.012-2.076 3.114-4.515 5.709-7.317 7.784-2.802 2.076-5.345 3.114-7.628 3.114-1.972 0-3.347-.57-4.126-1.713-.778-1.141-1.167-2.594-1.167-4.359 0-4.878 1.038-10.975 3.113-18.292 2.076-7.317 4.852-15.05 8.33-23.196 3.476-8.148 7.498-16.269 12.064-24.364 4.567-8.096 9.315-15.387 14.245-21.873 4.93-6.487 9.886-11.754 14.868-15.802 4.981-4.048 9.652-6.072 14.01-6.072z"/><path d="M200.864 107.887c.208-.207.467-.207.778 0 .312.208.416.519.312.934-1.868 2.699-3.944 4.852-6.227 6.46-2.284 1.61-4.463 2.414-6.539 2.414-2.387 0-3.918-1.687-4.593-5.06-.674-3.373-.337-7.394 1.012-12.065-2.802 4.463-5.838 8.277-9.107 11.443-3.27 3.165-6.72 5.06-10.353 5.682-2.49 0-4.41-1.142-5.76-3.425-1.349-2.283-2.024-4.93-2.024-7.94 0-3.425.83-6.824 2.491-10.197 1.66-3.373 3.866-6.409 6.617-9.107a36.914 36.914 0 0 1 9.185-6.616c3.373-1.713 6.772-2.57 10.197-2.57 3.632 0 6.487.883 8.562 2.647 1.038-.726 2.361-1.349 3.97-1.868 1.609-.519 3.036-.778 4.281-.778.415 0 .623.26.623.778a49.426 49.426 0 0 0-6.15 9.575c-1.712 3.476-3.035 6.798-3.97 9.963-.933 3.166-1.504 5.994-1.712 8.485-.207 2.49 0 4.203.623 5.137.519.623 1.401.804 2.647.545 1.245-.26 2.958-1.738 5.137-4.437zm-29.89 4.048c1.245 0 2.776-.779 4.592-2.335 1.816-1.557 3.71-3.633 5.682-6.228 1.972-2.594 3.918-5.5 5.838-8.718a87.832 87.832 0 0 0 5.06-9.808c-.415-1.349-1.375-2.439-2.88-3.269-1.505-.83-3.243-1.245-5.215-1.245-2.387 0-4.619.596-6.695 1.79-2.075 1.194-3.866 2.854-5.37 4.982-1.506 2.127-2.7 4.67-3.581 7.628-.882 2.958-1.324 6.201-1.324 9.73 0 2.283.39 4.1 1.168 5.449.778 1.35 1.687 2.024 2.724 2.024zm82.354-5.138c.208-.207.467-.181.779.078.311.26.415.597.311 1.012a35.235 35.235 0 0 1-6.46 6.85c-2.44 1.972-4.853 2.958-7.24 2.958-1.764 0-3.14-.57-4.125-1.713-.986-1.141-1.48-2.646-1.48-4.514 0-3.633.65-7.577 1.947-11.832 1.297-4.255 3.036-8.562 5.215-12.921a5.865 5.865 0 0 0 .467-2.336c0-1.038-.467-1.556-1.401-1.556-3.84 0-8.095 2.62-12.766 7.861-4.67 5.242-8.977 13.57-12.921 24.987-.104.311-.441.597-1.012.856-.571.26-1.22.467-1.946.623-.727.156-1.453.285-2.18.39-.726.103-1.297.155-1.712.155-.52 0-.908-.104-1.168-.311-.26-.208-.285-.571-.078-1.09 1.765-4.463 3.555-9.367 5.371-14.712a203.38 203.38 0 0 0 4.749-16.113c.31-1.038.363-1.79.155-2.257-.207-.467-.57-.7-1.09-.7-1.141 0-2.23.492-3.269 1.478a23.29 23.29 0 0 0-2.802 3.192c-.311.207-.597.155-.856-.156-.26-.311-.338-.623-.234-.934.52-.727 1.22-1.557 2.102-2.491a26.188 26.188 0 0 1 3.036-2.724 18.365 18.365 0 0 1 3.58-2.18c1.246-.57 2.491-.856 3.737-.856 1.764 0 2.932.545 3.502 1.634.571 1.09.701 2.413.39 3.97a129.846 129.846 0 0 1-1.635 6.461 152.778 152.778 0 0 1-2.102 6.772c1.246-2.283 2.777-4.54 4.593-6.772a41.969 41.969 0 0 1 6.071-6.072 29.545 29.545 0 0 1 7.24-4.359c2.594-1.09 5.345-1.634 8.25-1.634 1.246 0 2.206.311 2.88.934.675.623 1.013 1.35 1.013 2.18 0 1.452-.364 2.75-1.09 3.891a83.235 83.235 0 0 0-5.527 12.221c-1.505 4.204-2.257 7.966-2.257 11.287 0 2.699.882 4.048 2.646 4.048 1.142 0 2.284-.467 3.425-1.401 1.142-.934 2.44-2.336 3.892-4.204zM350.784 0c1.557 0 2.828.416 3.814 1.246.986.83 1.687 1.92 2.102 3.27.415 1.349.519 2.88.311 4.592-.207 1.712-.726 3.399-1.556 5.06-.208.207-.467.285-.779.233-.311-.052-.519-.285-.622-.7.207-1.557-.208-2.725-1.246-3.503-1.038-.779-2.49-1.168-4.359-1.168-5.604 0-11.001 1.868-16.19 5.605-5.19 3.736-10.094 9.47-14.713 17.202-4.618 7.732-8.873 17.54-12.765 29.424-3.892 11.883-7.395 26.024-10.509 42.423-.519 2.283-.57 4.229-.155 5.838.415 1.608 1.193 2.413 2.335 2.413 1.141 0 2.231-.467 3.27-1.401 1.037-.934 1.971-2.128 2.801-3.581.208-.208.493-.208.857 0 .363.208.493.519.389.934-.52 1.038-1.272 2.128-2.258 3.27a27.184 27.184 0 0 1-3.269 3.19 18.305 18.305 0 0 1-3.736 2.414c-1.298.623-2.465.934-3.503.934-2.283 0-3.892-.83-4.826-2.49-.934-1.662-1.297-3.53-1.09-5.605.208-1.765.467-3.425.779-4.982a151.84 151.84 0 0 1 1.09-4.982c-2.076 4.463-4.982 8.329-8.719 11.598-3.736 3.27-7.42 5.423-11.053 6.46-2.387 0-4.307-.881-5.76-2.646-1.453-1.764-2.18-4.047-2.18-6.85 0-4.047.727-7.913 2.18-11.598 1.453-3.684 3.425-6.928 5.916-9.73 2.49-2.802 5.448-5.033 8.873-6.694 3.425-1.66 7.11-2.49 11.054-2.49 2.18 0 4.1.362 5.76 1.089 1.868-5.605 4.1-11.443 6.694-17.514a224.812 224.812 0 0 1 8.563-17.826 216.76 216.76 0 0 1 9.885-16.657c3.477-5.293 7.032-9.912 10.664-13.856 3.633-3.944 7.317-7.083 11.054-9.419 3.736-2.335 7.368-3.502 10.897-3.502zm-78.618 111.623c1.141 0 2.49-.596 4.047-1.79 1.557-1.193 3.166-2.802 4.826-4.826 1.661-2.024 3.218-4.36 4.67-7.006a54.52 54.52 0 0 0 3.737-8.484c.415-.934.779-1.894 1.09-2.88.311-.986.57-1.946.778-2.88-.415-1.246-1.22-2.154-2.413-2.725-1.193-.57-2.517-.856-3.97-.856-2.18 0-4.307.649-6.382 1.946-2.076 1.297-3.892 3.088-5.45 5.371-1.556 2.283-2.827 4.982-3.813 8.095-.986 3.114-1.48 6.539-1.48 10.275 0 1.66.39 3.036 1.168 4.126.779 1.09 1.842 1.634 3.192 1.634zM98.987 172.616c-2.024 4.826-3.685 8.277-4.982 10.352-.675.986-1.479 1.48-2.413 1.48-16.295-.26-27.711-.286-34.25-.078-.622.103-.986-.13-1.09-.701-.155-.26-.181-.636-.077-1.129s.311-.791.622-.895c.052 0 .156-.026.312-.078.155-.052.26-.078.311-.078h.312c3.788 0 5.863-.856 6.227-2.568.104-1.142.155-2.984.155-5.527v-31.992c0-2.076-.415-3.49-1.245-4.243-.83-.752-2.413-1.128-4.748-1.128h-.934c-.364-.052-.571-.363-.623-.934-.052-.571.026-.986.233-1.246.208-.415.597-.545 1.168-.389 5.5.104 12.922.078 22.262-.078.623 0 .986.234 1.09.7.363 1.35.026 2.05-1.012 2.102-1.038.104-1.868.156-2.49.156-2.959.104-4.723.337-5.294.7-.57.364-.856 1.557-.856 3.581v35.651c0 1.609.337 2.712 1.012 3.308.674.597 1.816.895 3.425.895h7.317c3.061 0 5.19-.259 6.383-.778 1.193-.519 2.698-1.998 4.514-4.437l2.725-3.58c.726-.26 1.271-.26 1.634 0 .416.207.52.518.312.934zm26.465-38.298c.156 1.09.026 1.635-.389 1.635-.104 0-.272.026-.506.078a2.786 2.786 0 0 1-.583.078c-2.388.051-3.88.506-4.476 1.362-.597.856-.895 3.074-.895 6.655v32.304c0 2.024.363 3.373 1.09 4.047.726.675 2.153 1.038 4.28 1.09.571 0 .96.026 1.168.078.311.208.493.532.545.973.052.441.013.843-.117 1.207-.13.363-.298.545-.506.545a299.295 299.295 0 0 0-19.304 0c-.623 0-.934-.39-.934-1.168 0-.986.233-1.48.7-1.48 2.387-.207 3.866-.609 4.437-1.206.571-.596.908-1.959 1.012-4.086l.078-2.725v-29.579l-.078-2.724c-.052-2.076-.363-3.451-.934-4.126-.57-.674-1.894-1.116-3.97-1.323-.934-.104-1.22-.753-.856-1.946.156-.363.519-.545 1.09-.545.207 0 2.802.065 7.784.195 4.982.13 8.355.065 10.119-.195.778 0 1.194.285 1.245.856zm61.028-.545c.259.312.336.727.233 1.246-.104.519-.338.804-.7.856-2.232.052-3.88.597-4.944 1.635s-2.244 3.217-3.541 6.538l-15.646 40.477c-.104.26-.325.571-.662.934-.337.364-.61.545-.817.545-.83.156-1.765.13-2.803-.078-.467 0-.856-.415-1.167-1.245l-16.736-41.8c-1.193-3.01-2.192-4.84-2.997-5.488-.804-.649-2.426-.999-4.865-1.05-.467-.105-.778-.312-.934-.624a2.3 2.3 0 0 1 .078-1.556c.104-.416.545-.623 1.323-.623 7.006.207 13.804.207 20.395 0 1.037 0 1.608.078 1.712.233.415.52.467 1.09.156 1.713-.052.26-.364.519-.934.778-2.699.104-4.606.338-5.722.7-1.115.364-1.673.96-1.673 1.791 0 .52.44 1.92 1.323 4.204l12.065 29.968c.052.104.143.234.273.39.13.155.298.324.506.505.207.182.415.22.622.117.208-.104.39-.363.545-.778l11.365-29.502c.726-1.92 1.09-3.477 1.09-4.67 0-1.038-.441-1.804-1.324-2.297-.882-.493-2.542-.74-4.981-.74h-.623c-.311-.103-.519-.401-.623-.894-.104-.493-.078-.895.078-1.207.104-.207.467-.311 1.09-.311 6.071.207 12.117.207 18.137 0 .363 0 .596.078.7.233zm46.859 37.987c0 1.66-.078 3.23-.234 4.709a163.204 163.204 0 0 1-.506 4.28c-.181 1.376-.298 2.193-.35 2.453-.104.726-1.141 1.09-3.113 1.09-18.475 0-31.137.026-37.986.078-.52-.104-.83-.286-.935-.545-.155-.364-.168-.83-.038-1.402.13-.57.376-.882.739-.934.363-.051 1.479-.077 3.347-.077 2.543-.104 4.139-.584 4.787-1.44.649-.857.973-2.945.973-6.267v-29.579c0-3.321-.324-5.462-.973-6.422-.648-.96-2.348-1.44-5.098-1.44H192.9c-.13 0-.234-.013-.311-.039a2.136 2.136 0 0 1-.273-.116 1.22 1.22 0 0 1-.311-.234 1.22 1.22 0 0 1-.234-.311c-.155-.312-.052-.857.312-1.635.155-.26.596-.39 1.323-.39 16.97-.103 28.541-.103 34.717 0 .986 0 1.479.26 1.479.78.207 1.66.35 3.19.428 4.592.078 1.401.13 2.66.155 3.775.026 1.116.065 1.881.117 2.296-.104.52-.726.597-1.868.234-.363-.052-.545-.337-.545-.856-.519-3.166-1.245-5.15-2.18-5.955-.933-.804-3.01-1.233-6.227-1.284-4.981-.156-8.458-.182-10.43-.078-.312 0-.636.207-.973.622-.338.416-.506.779-.506 1.09v15.724c0 .415.117.791.35 1.129.234.337.48.506.74.506h9.185c3.061 0 4.93-.26 5.604-.779.675-.519 1.194-2.18 1.557-4.982.104-.363.675-.493 1.713-.389.259.052.467.441.622 1.168.104 2.543.078 7.161-.078 13.855 0 .675-.311 1.038-.934 1.09-.882.104-1.349-.026-1.4-.39-.416-2.698-.974-4.32-1.674-4.864-.7-.545-2.582-.843-5.644-.895l-8.951-.078c-.727.207-1.09.623-1.09 1.245v13.077c0 3.01.272 4.814.817 5.41.545.597 2.219.895 5.02.895h6.228c2.906 0 4.865-.116 5.877-.35a4.648 4.648 0 0 0 2.53-1.518c1.245-1.505 2.205-3.606 2.88-6.305.104-.467.363-.752.778-.856.934-.104 1.48 0 1.635.311zm38.842-.39c0 4.152-1.479 7.564-4.437 10.236-2.958 2.673-6.824 4.009-11.598 4.009-1.712 0-4.41-.545-8.095-1.635-1.298-.363-2.076-.545-2.335-.545-.416 0-.805.286-1.168.857-.57.26-1.246.26-2.024 0-.623-2.128-1.193-6.331-1.712-12.61 0-.26.155-.442.467-.545a2.73 2.73 0 0 1 1.05-.117c.39.026.636.117.74.272.778 2.387 1.583 4.23 2.413 5.527.83 1.297 1.972 2.439 3.425 3.425 2.18 1.505 4.359 2.257 6.539 2.257 2.957 0 5.332-.83 7.122-2.49 1.79-1.661 2.685-3.763 2.685-6.306 0-.726-.064-1.414-.194-2.062-.13-.649-.39-1.31-.779-1.985a80.565 80.565 0 0 0-1.012-1.713c-.285-.467-.778-1.025-1.478-1.673a60.849 60.849 0 0 1-1.518-1.44c-.312-.312-.921-.779-1.83-1.402-.908-.622-1.479-1.024-1.712-1.206-.234-.182-.843-.597-1.83-1.245-.985-.65-1.53-1-1.634-1.051-1.868-1.246-3.36-2.297-4.476-3.153-1.116-.856-2.348-1.946-3.697-3.27-1.35-1.322-2.335-2.737-2.958-4.241-.623-1.505-.934-3.14-.934-4.904 0-3.581 1.271-6.5 3.814-8.757 2.543-2.258 5.89-3.386 10.041-3.386 1.66 0 3.815.44 6.461 1.323 1.453.467 2.413.7 2.88.7.312 0 .727-.233 1.246-.7.674-.208 1.271-.208 1.79 0 .311.778.804 4.307 1.479 10.586-.052.52-.39.779-1.012.779-.623 0-.986-.13-1.09-.39-2.49-6.33-6.175-9.496-11.053-9.496-2.44 0-4.333.649-5.682 1.946-1.35 1.297-2.024 3.01-2.024 5.137 0 2.543 1.479 5.112 4.437 7.706 1.245 1.142 3.204 2.621 5.877 4.437 2.672 1.817 4.903 3.386 6.694 4.71 1.79 1.323 3.425 3.1 4.904 5.332 1.479 2.231 2.218 4.592 2.218 7.083z"/></g></svg>