<svg viewBox="0 0 382 313" xmlns="http://www.w3.org/2000/svg" fill-rule="evenodd" clip-rule="evenodd"><g fill="#443c3c" fill-rule="nonzero" stroke="#000" stroke-width=".18"><path d="M89.244 240.47l3.714-.3 1.92.717 1.993 1.272-.862 1.218-.747 2.637-1.035.058s-1.512.046-1.991-.171c-.48-.218-1.088-1.021-.671-.989.417.033.46.046 1.048-.558.589-.603.374-1.144.208-1.455-.166-.311-.75-.728-1.038-.72-.287.006-1.124.415-1.215.245-.09-.17-.54-.403-.973-.464-.432-.06-1.017-.477-.994-.707.023-.23.643-.783.643-.783zm-41.913-20.512l-.451 2.52-1.164-1.118-.783-.29-.104-.483 1.318-1.135 1.184.506zm.289-.172l-.691-1.186-.938-.537-.23-.509.593-.308.758.31 2.193 2.456 4.602 3.2 1.126 1.43.42 1.047-.33.446-1.795-1.597-.446-.975-5.262-3.777zm52.476 23.5l.386 1.238-1.405.933-1.088-1.097 2.107-1.074zm5.419-.399l-.596.505-.554-.573-.176-2.335-.501-.714-2.35-.111-5.402-2.022-2.026-.434-2.35-.109-1.303.77-.525-.116-.8-1.108-2.657-.912.419-.897 2.85.75 1.576.417 6.065 1.013 4.102.198 4.984.978 9.237.875 2.338 1 .141.702-4.783.106-5.726-1.583-2.133-.152-.374.346.08.435 2.198.299-.17.665-.613.319-.293.152-.658 1.536zm9.504 13.411l-2.051.283-1.339-.746-.138-.821.4-.416.99-.156 2.138 1.856zm-41.853 37.92l1.208 2.5-.076.469-.535.099-.897-1.335-1.876-6.045 1.689 1.484.487 2.828zm275.204-72.029l-.575.015-2.365-1.43-2.726.948-1.085-.758.137-1.288 1.388-.953-.256-1.646 1.852 1.874 1.75.251.72.45.195.85 1.078.878-.113.809zm-91.4 58.95l.925-.123.49-.863.873-.269-.061 1.963-2.27-.405.043-.303zm-15.806 14.401l-.603-.436.647-1.816 1.705-1.93.456.5-.547 2.828-1.658.854zM57.55 225.589c.304.093 2.58.955 2.58.955s4.348 1.614 5.075 1.955c.727.34 3.624 1.335 3.624 1.335l8.43 2.048 5.651 1.903 2.24 1.16-.115.523-2.48-.519-1.885-1.027-1.57-.497-5.608-1.77-3.652-.102s-1.1.447-1.31.122c0 0-.387-.522-.466-.807-.078-.285-.11-.414-.505-.677-.394-.263-2.021-.452-2.277-.316-.255.135-.316.568-.942.21-.627-.357-.93-.996-.752-1.345.178-.349-.356-.465-.604-.588-.247-.123-2.387-.73-2.808-.907-.421-.175-2.849-.775-3.621-.655-.773.12-.148-.757.247-1.04.395-.283.444-.054.748.039zm69.862 60.759c-.25.351-.3 1.76.387 1.685.687-.075 1.318-.12 1.337-.493.02-.374-.177-.197-.622-.76s-.853-.783-1.102-.432zm220.799-26.439c-.132.434-.088 1.065.203 1.2.29.137.6-.1.733-.534.133-.435.212-.695-.108-.888-.321-.193-.695-.212-.828.222zm2.572.596c.1.6.678.73 1.076.519.397-.21.726-.822.402-1.159-.325-.337-1.58.04-1.478.64zm1.724-2.226c-.28.294 1.04 2.501 1.369 1.89.329-.611-1.088-2.184-1.369-1.89z"/><path d="M157.135 235.576l14.81-4.94 1.248-1.148 2.873-.404 6.943-1.93 1.042.885.646.188.705.208 1.211 1.396 1.057.527.53 1.055 1.874 1.043.39.59s-1.15-.319-1.47-.046c-.318.274-.92.696-1.22.907-.3.212-.526.271.24.647.768.375.974.472.923.86-.052.389.457 2.801.524 3.024.066.222-.367.978-.464 1.184-.096.206-.13.533-.652.812-.522.278-.6.422-1.247.663-.646.24-1.044.348-1.228.6-.185.254.329.91.913.65.585-.258 1.157-1.027 1.773-.839.616.189.968-.102 1.035-.963.068-.861.287-1.03.633-1.059.346-.029.604.36.629-.953.024-1.313.285-2.278-.063-2.35-.348-.073-.7-.247-.176-.526.523-.278.65-.604.794-.835.145-.231.32-.582.893-.474.573.108 1.645.57 1.913.686.268.116.642.432.219.606-.424.173-.297.51.077.63s1.277.362 1.729.535c.453.171.543.536.225.81-.32.272-.787.366-.809 1.1-.022.734.23 1.013.6.352.37-.662.853-1.228 1.483-1.305.63-.077.684-.363.963-.615.279-.252.86-.613 1.247-.663.386-.05 1.186-.373 1.376-.423.19-.049.766.376.56 1.054-.208.677-.267 1.535-.22 1.82.049.284-.24 1.779-.254 2.044-.014.266-.198.889.09 1.045.29.156.161.689.043.855a77.065 77.065 0 0 0-1.436 2.363c-.293.518-.575.667-.543 1.115.032.448-.02.836.571.006s1.415-2.404 1.594-1.776c.178.627.085.935.65.738.566-.198 1.282-.114.495-.624-.788-.51-1.46-.514-.87-1.344.59-.83.648-1.109.57-1.644-.079-.536-.067-.594.43-1.425.496-.831.488-1.137.8-1.715.311-.579.673-.772.928-.39.254.38.519 1.169.519 1.169s.189-1.39.283-1.7c.094-.307.453-.911.775-1.082.322-.171.705-.324.705-.324s-.157-.587-.524-.598c-.368-.01-.907-.25-1.043-.797a15.694 15.694 0 0 1-.284-1.603c-.027-.244.351-.909-.627-.596-.978.313-1.752.313-2.05.626-.298.313-1.075.21-1.281.113-.206-.096-.84-.336-1.17-.16-.33.174-.92.808-1.12 1.017-.198.208-.612.593-.97.31-.357-.284-.936-.596-1.14-.591-.203.005-.829-.281-1.438-.164-.608.117-.484-.62-.484-.62l1.667-.152 4.082-.704.768.539 4.624-1.59 4.602-2.166 2.19-1.534.575-.176.041.444s-1.302.925-1.881 1.388c-.58.463-1.95 1.088-2.191 1.217-.241.128-.223.066-.255.393-.033.327-.044.694-.138 1.003-.095.308-.37.196-.874.412-.504.217-.603.32-1.051.353-.448.031-.834.082-.355.498.48.416.555.17 1.102.033.547-.136.704-.229.981.098s1.301 1.072 1.301 1.072-.031-.448.714-.793c.746-.345.915-.9 1.708-.186.793.714.589.72.907 1.22.319.503 1.275.148 1.275.148s-1.18-.455-1.18-1.23c.002-.775-.501-1.333-.734-1.674-.233-.34-.384-.527-.772-.579-.389-.05-.858-.06-.504-.558.355-.498.563-.609 1.104-.174.54.435 1.71.596 2.297.439a4.432 4.432 0 0 0 1.37-.625c.341-.233.426-.381 1.035-.499.609-.117.579.312.916.752.337.44 2.057 1.444 2.057 1.444s.336-1.116.698-1.309c.361-.192 1.041-.502.54-.649-.499-.147-1.335-.167-1.473-.815-.14-.649-.367-1.466-.837-1.475-.468-.008-1.932.15-2.476.389-.545.238-.836.29-1.665.575-.828.286-.88-.202-.565-.576l.142-.454-.026-1.221.735-.325 4.48-.463 7.627-1.671 1.396-.688 2.053-.373s1.528 1.757 2.926 1.377c1.398-.38 2.626-.669 3.113-.71.487-.04 1.288-.176 1.446.394.158.571-.327 1.847-.667 2.028-.34.18-.904.626-1.118.085-.214-.54-.792-.669-1.098-.288-.307.38-1.6 1.505-1.6 1.505s.811.295 1.186.315c.373.019-.412.728-.78.996-.366.267-1.41 1.04-1.569 1.561a2.51 2.51 0 0 0 .006 1.378c.094.314.922.092 1.07-.86.149-.951.761-1.713 1.343-1.44.581.272 1.142.919 1.423.625.28-.294.676-.506.635-.993-.041-.487.575-1.105.915-1.286.341-.181 1.437-1.127 1.437-1.127s1.47.164 2.265.977c.796.813.904 1.7 1.769 1.823.864.122 2.061-.225 2.061-.225s-.432-1.224-1.044-1.553c-.61-.329-1.274-1.576-1.028-2.07.246-.495.269-.726.269-.726s-1.526-.134-1.033-1.123c.492-.988-.426-.937-.607-1.276-.18-.34-.255-1.028-.069-1.636.186-.608-.33-1.715-.51-2.055-.182-.34-.55-1.307-.955-1.383-.404-.077-.75-.183-1.315.262-.563.445-1.013.83-1.433 1.271-.42.441-1.013.83-1.39.667-.378-.163-.692-.069-1.055.342-.363.411-1.883 1.656-2.223 1.837-.34.18-1.345.706-1.345.706l-.43-.79 1.677-.812 1.433-1.084 3.812-2.215 3.09-2.54 4.73-3.2 2.07-2.203 4.809-3.819 3.143-2.027 1.709-.635.488.312s-.253 1.196.052 1.907c.305.71-.01 1.896-.26 2.246-.25.351-.601 1.193-.878 1.63-.276.439-.096.778.026 1.005.12.227.462 1.281.462 1.281s.248-1.586.554-1.967c.306-.38 1.566-1.705 1.566-1.705s.071.544.6-.101c.53-.645 1.21-1.007 1.766-1.739.556-.732.682-1.453.078-1.495-.605-.043-1.268-.198-1.143-.92.126-.72.201-1.124.164-1.468-.037-.344-.498-.39-.804-.009-.307.381-1.516 1.1-1.516 1.1l.235-1.04 1.272-.629 3.048-1.913 2.112-2.341s.563 1.349 1.134 1.19c.57-.157.714-.161 1.465.021.751.182 1.692-.1.964-.512-.729-.413-1.446-.395-1.884-.671-.437-.276-.84-.953-.84-.953l1.69-1.877 1.791-1.239s.253.35-.077.96c-.329.612-.001 1.092.842.353.843-.74.896-.913 1.655-.444.758.47 2.36.2 2.783-.098.424-.298 1.26-1.324 1.26-1.324s.316 1.14 1.143.919c.827-.222 1.19-.633 1.741-.417.551.216 1.167.689 1.167.689s.439-.816.598-1.337c.16-.52.527-1.88 1.836-1.195 1.31.686 1.715.762 2.205.864.491.103.805.009.93-.712.125-.722.534-1.593.727-1.914.193-.32.53-.645 1.485-.353.955.292 1.343.885 1.343.885s1.048-1.72 2.249-1.923c1.202-.202 1.942-.45 2.599-.582.657-.13.968-.369 1.334-.636.367-.268-.472-.477-1.105-.576-.635-.099-2.972-.529-3.433-.574-.46-.046-1.375.149-2.029.424-.654.274-1.08.429-1.674.817-.593.388-2.921 1.48-3.26 1.661-.34.181-.447.529-1.376.15-.928-.38-1.128-.345-1.755-.157-.628.188-2.047-.294-2.376.318-.33.611-1.6 1.504-2.854 1.88-1.255.377-1.243.807-2.184 1.09-.941.281-1.83.39-1.83.39l-.168-.597 4.235-4.724 2.716-1.54 5.71-5.656 5.653-3.112 2.11-1.857 2.432-1.102.986-.445 4.699-3.16 3.17-2.782 1.727-.866 1.751-.002 5.556-2.939 2.468-.37 3.15-1.89.773-.102.974.63.169-1.36 4.516-3.182 3.966-2.3 6.133-4.577.609 1.139.421-.24.086-1.556 3.982-2.536.708-.782 1.979-2.186 3.902-1.505 1.917-1.643 1.188-.22 2.053-1.057 7.12-1.074 4.113-1.415.607.457.92-.703 2.264-1.38 5.57-1.685 2.121-2.922 2.708.451.571.483-.352 2.031-.497 1.603.896 3.724-2.415 6.05-2.099 3.116-.611.204-.326-.247-.666.955.129.536-.98 2.463-1.494 5.6-.78.22-.7.817-.154.715-1.827 2.654-4.318 3.898.167.665.4 1.6-1.042 1.092-.34 1.372-2.47.478-.904.741-.207 1.14-1.556.437-1.108.943-.968.184-1.07 1.162-2.56-.94-1.77-.053-.452-.506-.026-.866-1.186.22-.852-.297-3.504-1.279 3.04 2.443.14.049 1.858 2.412 1.562.378.234.542-.73 1.541.657 1.117-2.244.736-1.741-.124-4.943-1.194-.76 1.205-3.395 1.175-.994.067-.93.064-.221.564 2.261 1.183 3.19-.971.817.406-.663.755.55 1.807-.707.248-.753-.26-1.143.32-1.792-.101 1.431 1.017 1.356.173 2.047-.651.311.449-.936.93-.673.058-.94 1.46.046.506.514.244 4.722-.523.444.218-.102.57-2.278 1.862-2.864 1.181-5.515.577.11.655.681.14 1.688.353 2.324-.013 6.31 2.47-2.428 1.586-1.99.35-1.043.729.25.362 2.014.122.912-.486.48 1.626 1.266 1.847-.848.192-1.534-.855-3.293.725-3.3-.498.289.698s1.966.554 1.981 1.128c.014.574-.723.966-1.077.572-.355-.393-1.106-.575-1.703-.33-.597.244-1.42.61-1.42.61s-1.37-.799-1.82-.414c-.45.384-1.19.633-1.648.73-.457.098-1.045-.462-1.925-.066-.88.395-1.12 1.176-1.12 1.176l-.232 1.069-.995-.78s-1.776.217-2.534-.252c-.76-.469-1.684-.704-2.612-1.083-.929-.379-2.217-.203-.881.395 1.336.599 2.586 1.17 3.223 1.413.638.243 1.436-.036 2.315.66.879.696.896 1.414.896 1.414s.73-.68 1.07-.86c.34-.18 1.017-.686 1.87-.995.855-.308 1.138-.459 1.724-.043.584.416 3.96 1.02 5.195 1.019 1.234-.002 1.514-.297 1.738-.56.223-.265.706-.45.288-1.1-.418-.65-.493-1.337-.085-1.117.407.22.508.82.69 1.16.18.34.36.68.98 1.296.618.617.836 1.427.836 1.427l1.244 1.274 1.358.581 1.439 2.24-4.38 3.302-1.928.779-3.085 1.865-1.774.067-.36-.427 1.63-1.467-.497-.605-1.549 1.058-.334.228-1.976 3.608-.651.107s-.573-.33-1.1-.776c-.528-.446-1.412-.195-1.78.073-.366.267-1.118.086-1.638-.074-.521-.159-.676-.586-.77-.9-.093-.313.093-.92.8-1.37.706-.448.563-.444.265-.867-.298-.424-.994.455-1.53.813-.537.358-.243.638-.195 1.413.048.774-.829 1.313-1.082 1.52-.253.207-1.066 1.003-1.938.594-.872-.409-1.908.651-2.07 1.029-.164.377-.674.648-1.255.376-.581-.273-.899-.323-1.296-.112-.396.211-1.828.39-2.693.269-.865-.122-.68.362-.726.822-.046.46.324.336 1.008.119.684-.219 1.552.047 2.27.029s.899.322 1.903.297c1.004-.025 1.881-.564 2.531-.982.65-.419.643-.706 1.244-.807.6-.101 1.605-.126 1.605-.126s1.982.037 2.666-.182c.684-.218 1.266.055 1.914.728.649.673 1.683.475 1.683.475l2.662.657 3.618 2.698-2.169 1.596s-.381-.306-1.68-.56c-1.299-.255-1.141.315-1.42.61-.28.293-.474.614-1.171.259-.699-.356-2.704-.162-3.192-.122-.487.041-1.174.116-1.702-.33-.528-.447-1.132-.489-1.586-.247-.453.24-1.655.443-2.168.57-.514.128-.941.283-1.81.017-.868-.265-1.967.538-2.274.92-.306.38-1.703 3.086-1.703 3.086s1.713-1.565 1.902-2.03c.19-.463 1.017-.686 1.916-.363.899.322 1.926.067 2.436-.205.51-.271.934-.569 1.648-.73.714-.162 2.798.475 3.379.748.581.272.108.887-.58.962-.687.075-.736.392-1.677.674-.941.282-1.936 1.83-3.213 2.435-1.277.607-1.426 1.558-1.615 2.022-.19.465-.788 1.8-1.124 2.125-.337.325-1.134.603-1.897 1.082-.764.478-.455 1.332-.259 1.155.197-.177 1.214-.863 1.64-1.017.427-.155 1.324-1.068 1.324-1.068s.764-.478.752-.91c-.01-.43.152-.807.32-1.041.165-.234 1.005-1.117 1.802-1.395.797-.279 1.024-.4 1.526-.958.503-.558 1.078-.573 1.758-.934.68-.362.714-.162 1.352.08.638.243 1.753-1.077 2.06-1.458.306-.38 1.247-.663 1.865-.046.62.616 2.137.244 2.137.244l.89.082-.404 3.335-1.004.495-.464 2.132.914.364.686-.825 1.55-.441.693.52-.132 1.693-1.242.483-.154.712 1.846 1.301-.026 1.007-1.66.721.145.464.999.56.247.971.349-.086.15-.508.676-2.576-.076-1.37.42-.769 2.75-1.019.458.386-.713.894.111.654.639.132 2.593-1.244-.645-.946.356-.917 2.661-1.622-.073-1.176-.978-1.6-.497-.109-3.514 2.288-1.52.202-.224-1.263.503-.476.11-1.084 1.87-2.227 1.324-.507 1.368.19 2.125 4.33 1.142 1.025 1.376.386 1.029.898 1.08.349.32 1.265 1.647 2.853.039 1.153-.89 2.49 1.169 3.88-.236 3.318-2.686-.705-.33 1.37-2.019 1.757-1.064.753s-.908.168-.79-.84c.119-1.008-.66-1.104-.848-.64-.19.465.089 1.262-.81.94-.898-.323-1.96-.267-1.058.198.902.466 1.356.225 1.69.992.336.767.683.873 1.151 1.206.468.333-.186.607-.47.758-.283.151-1.134 1.695-1.656 1.535-.52-.16-.894-.178-1.257.233-.364.411-.723.966-.312 1.329.41.363.135.8-.224 1.355-.36.555-1.53 2.05-1.696 2.283-.166.234-1.3.837-1.772 1.452-.473.615-.662 1.08-.731 1.77-.07.691-.5 1.794.141 1.088.643-.705.452-1.476 1.186-2.011.733-.535 2.619-2.048 2.952-2.515.333-.468 1.778-2.4 1.778-2.4l.62-.553 2.723-1.71.538.701 1.042-.803.543.583-2.713 2.817.468.674 1.422-1.789 1.013-.206.518-1.337 1.291-1.028.409.406-1.192 2.45v1.076l-1.397 1.792.599.075.908-.628.731-1.379.94-1.77 1.247-.599 2.626-3.948 3.349-1.629 1.277 2.137-.493 1.793.424 2.037-2.011 4.557-.205 1.259-1.576 2.497-1.508 1.022-1.622 1.098-.961 1.647-5.68 4.11-7.286 4.404-3.1 2.582-1.48.06-3.568 1.912-.153.192-.556.702-.837.073-1.054-.417-1.006.615-2 2.573-.06.788.432.454.773-.22.34.378-.626.685-1.903.949-2.82-.873-4.657 1.28-4.002 1.58-4.065-.266-1.73.29-2.174-1.506-1.572-.01-2.254-.768-1.498.424-1.141-1.138-.024-1.103 1.784-.962 2.196.5.35-.914-.638-.658-1.283-.14-2.41.592-.784-.592-2.37-.413-.413.217 1.26 1.034-.125.297-.855-.093-2.51-1.473-2.722-1.03-2.63-.423-.193-2.671.617-.446 1.184.18.643-1.045 1.364-.073.704.805.703.276 1.011-.738 2.218.021-.428-.574-2.537-.35.082-2.264.023-.653-.67.06-.951 2.06-.67.06-.463-3.547.486-.74.323-1.902-.995.907-.524 1.052-1.217.008.12.534 1.32 1.41-.003 1.703-2.636.749.277.757-.383.58-1.147.036-.15.711-.79.056-.153-.87-.411-.406-.274 1.88.339.402.274.324-5.493 2.834-1.02 1.503-1.994 1.408-1.687.393-1.84 1.752-.661-.177 1.555-3.444-.667-1.113 1.707-1.399 1.542.198 1.118-1.022 1.778-2.553 2.525-3.626.241-2.743.654-.232.564.222.968-1.365.585-.257 1.245.448-.593-2.26 1.082-3.348 1.348-.769-.856-3.257-.915-.886.568-2.009s.458-.913.617-1.434c.16-.521-.268-.367-.955-.292-.688.075-.567.302-.953.943s-.907.482-.864-.122c.042-.604-.444-1.655-.482-1.998-.037-.344.716-1.253 1.275-1.842.56-.588 1.569-.47 2.403-.405.834.066 1.326-.923 1.456-1.5.129-.578-1.178-.029-1.662.156-.483.184-1.2.202-1.722.043-.521-.159-.677.506-1.206 1.15-.53.646-.712 1.397-1.06 2.382-.35.985-.518-.016-.559-.503-.04-.487-.043-1.722.086-2.3.13-.577.432-1.102-.163-1.948-.596-.847-.267-1.458-.145-2.323.122-.864.116-2.243-.222-3.153-.34-.91-.582-.273-.323.898.26 1.171-.13 1.67-.305 2.708-.175 1.038.393 3.063.554 3.777.161.714-.575 1.105-1.25.52-.676-.587-.967-.723-1.755-1.25-.79-.525-.56.589-.56.589s.562.646 1.38 1.23c.82.582.26 1.17.26 1.17s-.05.317.947.005c.998-.312.638.243.736.7.098.456.119 1.491.119 1.491l-.028 1.01.742.494-.543.882-.794-.552-.39.24.167.46 1.592.89-.38.987-.482.095-.894-.838-.73 1.906.467 1.845-2.323.672-.958 1.125-1.008-.962-.774.224-.405 1.06-1.323-1.411-.694-1.57-.402-1.7.101-1.744-.456-1.558.276-1.352-1.087-1.347-.045-.265 1.819.136.026-1.125.845-.724-2.497-.775-.256-.44-.233-.4-.954.479-1.23-.277-1.328.82-.336 1.086-1.083.184-.077-1.49-.548-.58-1.674 2.146-.08 1.268-.692 1.067 1.674-.035.993.793.83.16-.454 1.081-3.174 1.52-2.66.706-.793-.471.276-.826 1.48-1.618-.172-.314-2.05 1.288-.24-.712.879-.492-.355-.485-.954.2-.417.77-1.063-.72.105 1.321-.303.368-1.02-.72-.839.606.278 1.283-.211.446-1.313-1.12-.867.15-2.496 1.34-.93-1.173-.434.075-.295 1.304-1.876 1.947-1.906.776s-.654.275-.944.14c-.29-.137-.072-.545-.253-.885-.18-.34-.8-.956-.8-.956l-.946-.005s-.041-.487.11-1.295c.152-.808.297-.811-.066-1.492-.362-.68-.19-.77.413-.728.604.042 1.118-.085 1.118-.085s-.128-.514-.452-.85c-.325-.337-.479-.764-.546-1.164-.068-.4.547-2.254.547-2.254s.016-1.61.233-2.16c.216-.551 1.089-1.234 1.089-1.234s.737-.392 1.277-.607c.541-.214 1.175-.115 1.696.044.521.16 1.333.455 1.718.905.384.45.421.794 1.142.92.722.125.794-.423.7-.736-.093-.314-.969-.866-1.463-1.112-.495-.246-1.691-.992-1.99-1.415-.297-.423-.656.131-1.083.286-.427.154-1.253-.716-1.253-.716s-.176-1.288-.187-1.718c-.01-.43.038-.748.352-.842.314-.094.85-.452 1.455-.41.604.042.919-1.143.919-1.143s-.702-.5-.913-.896c-.211-.396-.644-1.62-.548-2.399.095-.777.56-.588 1.043-.773.484-.184.763-.479 1.073-.716.31-.237-.267-.366-.799-.956s.494-2.08.876-2.865c.383-.786.605.042.88.696.274.653 1.426.768 1.947.928.52.159 1.58 1.195 1.58 1.195s.029-1.178-.213-1.632c-.24-.453-.244-.597-1.332-.454-1.088.142-.63.044-1.129-.346-.498-.39-.22-1.918-.23-2.35-.012-.43.34-1.271.787-1.8.447-.528.971-.225 1.733.388.763.612.576 1.22.576 1.22s.624-.331.73-.678c.106-.348-.482-.907-.893-1.27-.412-.363-.245-.597.175-1.039.419-.441 1.324-2.159 1.324-2.159s-.199-1.057.074-1.639c.273-.58.373-2.306.506-2.74.133-.434-.19-1.862.045-2.787.235-.925.855-1.4 1.308-1.642.454-.24 1.11-.372 1.534-.67.423-.298.35-2.076.393-2.68.042-.604.552-.876 1.01-.973.457-.098 1.812.126 2.586.078.775-.048.995-1.547 1.378-2.332.382-.785-.05-2.009-.182-2.666-.131-.657-.114-2.266.004-3.274.118-1.008-.806 1.083-1.071 1.95-.266.87-.12 2.1.31 3.181.429 1.08-.199 1.269-.441 1.906-.242.638-.987.743-2.526.035-1.54-.708-1.997 1.716-1.832 2.573.165.857-.391 1.59-1.218 1.811-.828.222-.624.332-1.101.803-.476.471-1.298 2.072-1.223 2.759.074.687.107 1.979-.121 3.191-.229 1.212-1.597 2.74-1.597 2.74s-.523.932-.879 1.63c-.356.698-.932-.522-1.15-1.206-.218-.684-.255-1.028-.943-.952-.687.074-.356.697-.062.977s.577 1.22.739 1.934c.16.715-1.627 1.592-2.383 2.358s-.726.822-.788 1.8c-.062.978-2.329 2.184-2.329 2.184l-1.158 1.924s-.145 1.096-.126 1.813c.018.717-1.026 1.49-1.026 1.49s.472.477.683.873c.21.397-.652 1.51-.652 1.51s-.262 1.012-1.108 1.608c-.847.596.258 1.17.534 1.825.274.654.422.793.486 1.05s-1.082 1.52-1.785 2.113c-.704.592-.614.762-.599 1.336.014.574.58 1.364.628 2.138.048.774-.366 2.594-.876 2.865-.51.272-.964.513-1.403 1.328-.439.815-.877.539-1.484.353-.608-.186-1.284-.772-1.237-1.233.046-.46-.369-.967-.807-1.243-.437-.277-.739-.843-1.16-1.637-.423-.794-1.555-1.282-1.555-1.282s.482.907.7 1.59c.218.685.327 1.572-.164 1.47-.491-.103-1.122-.058-2.077-.35-.955-.292-1.446-.395-1.543-.852-.098-.457-.513-.964-1.35-1.172-.839-.21-.695-.213-.966-.723-.272-.51-.79-.526-.801.135-.013.66-.54.215-1.05-.606-.508-.82-1.408-.05-1.408-.05s.845.495.8.956c-.047.46.795.813 1.286.916.49.102.774-.049 1.182.171.407.22.342 1.054.342 1.054s.747.038 1.242.284c.495.246 1.49 1.025 1.49 1.025s.479.764.724 1.361c.244.597.513-.128.56-.588.045-.46.396-.211.8-.135.405.076 1.978.984 2.155 1.18.177.197 1.29 1.06 1.559 1.427.267.366.56 1.738.774 2.277.215.541-.178.895-.723.967-.543.071-2.432.348-2.432.348s.044.63.119 1.318c.075.687-.526.788-1.628.357-1.103-.432-1.092-.002-1.368.437-.277.437-.156.664.248.74.404.076.782.239 1.276.485s.546 1.164-.148.951c-.695-.212-.904.626-1.09 1.234-.186.607.185.483.736.699.551.216-.24.782-.75 1.053-.51.27-1.44.983-2.006 1.285-.567.301-1.18 1.063-1.426 1.558-.246.494-.647.562-1.02.542-.374-.02-.831.078-1.556-.19-.725-.27-.49-1.195-.931-1.615-.441-.42-.27-1.601-.281-2.032-.01-.43-.158-2.897-.158-2.897s-.302 1.76-.294 2.047c.007.287-.05 1.408-.196 2.503-.144 1.096.143 1.088.648 1.765.505.676.108.887-.394 1.445-.504.559-1.239-.14-1.507-.507-.267-.367-.52-.16-1.638-.074-1.118.085-.94.282-1.074.716-.133.434-.45.385-1.31.406-.862.022-1.183-.171-2.296-1.034-1.113-.862-1.065-.088-.793.422.271.51.384.45.845.496.46.046.728.413 1.396.712.668.298 1.372-.293 2.157.09.784.382.884-.252 1.187-.777.302-.525.805.009 1.359.368.554.36 1.132.488 1.476.452.343-.038.994-.456 1.42-.61.428-.155.85.639 1.464 1.111.615.473.762.613 1.543.852.782.239 1.005-.025 1.024-.399.02-.374-.724-.27-1.71-.618-.985-.348-.686-1.016-.67-1.534.016-.517.707-.448 1.02-.542.314-.094 1.005-.025 1.56.334.554.36.63-.045.506-.415s-.505-.676-.63-1.047c-.124-.37.51-.271.925.236.416.506.528.446.9.322.369-.124.505-.415.887-.108.38.306 1.931 1.445 1.931 1.445s-.562-.647-.742-.987c-.181-.34.088-1.065.088-1.065s.655-1.366.875-1.774c.22-.407.142-1.238.334-1.559.193-.32.295-.812.836-1.026.54-.215 1.699.187 1.699.187s-.184-.483-.426-.937c-.24-.454.681-.362.681-.362s-.682-.873-.807-1.243c-.123-.37.477-.471 1.104-.66.627-.187.964-.512 1.096-.946.133-.434.799-1.37 1.158-1.925.36-.554.59-.532 1.134-.603.543-.071.728.413.766.756.037.344.275.654 1.105.576.831-.079 2.073.791 2.073.791l-.251 3.517-2.208 4.737-2.576 2.202-1.628 2.367-2.368 1.23-.203.853.917.355-.38 1.109.186 1.854.704.329.843.393-.48.624-1.85.821-1.287 1.163-4.055.456-3.955-.234-1.476.484-.74-.61-2.512 1.297-2.5-.235-2.142.429-3.064-.452-2.57.722-1.319.372-1.049.527-.434.724-1.262-.729-1.308.47-.782-.181-1.658-.962.004-1.94-.524-.648-1.532-.548.478 1.843-1.09 1.606-.943.245-.797 1.476-1.221-1.157-1.162-.243-1.422-.95-3-.3-.215-.608 1.27-.294-1.969-2.038-2.348-.535 1.334 1.401.278.876-.282 1.713.543.816-1.606 1.368-1.335.541-.633.931-1.498-.208-.725-.439.121-1.29-.463-.38-.846.852-.406.006-.803-1.521-.653-.411-.698-1.158-.096.925-.09.866 1.287 1.949 1.273.486.282.755-.208.448-.928.535-1.273.162-1.166-.77-.791.062-1.512.799-.187 1.79-.708.376-3.588-.56-.928.538-.747 1.454-1.892-1.207-1.745.67-.711 1.793-.45-.09-.783-1.47.018-.167.127-1.196-.561-.334-1.11.266-4.018-.598.327.852-.171.784-3.206-.61-.964.2.085.962-1.318-.581.812-2.604-1.318-.582-.217-.608.286-1.307-.393-.353-2.521-.39-.513.939-.478-.02-2.74-1.663-.983-.597-.998-.135-.721.739-2.103-1.403-4.14.698-1.383-.846-.862.037-1.827.888-1.104 1.444-.757-.245-.736-.843-1.966-3.293.053-.787 2.797-.563 2.056-1.934-.955-.024-.767-.02-.78-.942-1.192-.166-3.446-1.381-.912-.586.123-.763.606-.218 2.694 1.017 2.484.17 2.323-.701 1.643.904 1.961-.594.234-1.166 2.292-.979 1.977-1.66-2.233.657-1.789-.839-2.448.816-1.289-.771-2.05.4-.704-.388v-1.296s-.188-.38-.308-.607c-.12-.226-.162-.714.806-1.082.967-.37.639-.85.768-1.427.13-.578.673-.649 1.104-.66.43-.01.714-.161.646-.561-.067-.4-.725-.27-1.416-.338-.69-.07-.804-.009-1.213.863-.41.871-3.132 2.406-3.132 2.406l-2.513 1.082-2.012-.03-1.289.526-2.818 2.458-1.187.363-4.43-.046-1.589.898-1.245-.023.147.581 1.19.933.165.749-1.067.367-2.666-1.85-1.033.058-1.442.834-.39-.77-.193-.38-1.042-.35-.414-1.166-1.18 1.54-1.332.43.598 2.085-1.431-.173.178 2.454.634.358 1.386-.573.068.795-1.84 1.252-.17.652-2.466 3.616-1.56.832-5.526 1.933-3.455.166-2.229.785-2.634 1.442-2.502.32-3.004 1.022-1.951 1.132-.545-.307-.123-1.275-2.84-2.592.4-2.72-.284-2.288.279-.49.758-.191.575-.376-.024-.62-.597-1.253-.367-1.063-.437-1.76.417-.367-.337-1.034-2.786-4.17-.832-1.241-3.047-3.558-.253-6.727.902-2.537.727-.214 1.755.612-.11-1.013.905-.473-.06-.386-1.358-.262-1.447.19-.316-.563.242-2.175 1.597-.376.458-1.45-.392-.469-.77.766-.254-.297-.31-1.269-1.247-.361-1.04.342-.797.837-1.648-.247.425-2.554-1.443-1.344-.925-.343.378-1.236-1.545-1.178-.408-2.054.787-1.246.192-1.386-.885-.775-.402-.876-1.195-.27-1.187-.977.374 1.19 1.53 1.338.19.798-.9 1.65.121 2.068-.519.415-.53 1.422-2.955.97 1.191.724 2.201-1.126.62.188-.633 3.003-2.132 1.274.343.491 1.5-.335.322.443-.164 1.314 1.295.764-3.773.788-1.977-.45-1.662.114-3.926-1.087-2.16.802-2.485.922-.468-.375.201-.978.623-.7.593-1.925-.084-1.083-1.07-1.043.121 2.835-5.118 1.471-.754 1.133.952.193-4.152 3.567-2.441 1.243-.898-.065.981-1.037 1.981-1.09.963-1.05-7.562 3.104-.337 1.196-.756-2.36-1.845-.92-.117.646 1.016.534.458.733.033 1.994-.605.87.51.086 2.612-2.026.661-.147-.23 1.093-5.38 3.314-1.477.387-.998-1.133-.393.3-.256 2.008-2.125 1.16-.782 1.25-4.053-4.152-3.868-2.345-1.142-1.985-1.892-3.287-.706-2.037-1.133-1.425-1.231-5.22.29-2.321.874-1.055.25-3.306-.213-1.614 1.283-1.717 1.42-5.399 3.644-13.83.298-5.923-.472-3.09.295-2.969-.631-3.122-.254-1.251.943.628.266 1.353 1.73 1.564.314-.735-1.39-1.603-.485-1.31-1.207-1.334-.178-1.806-.64-1.003-.143-.824-.038-.215 1.734-8.766-.336-1.378.256-1.772 2.079-5.44 2.841-4.433 2.04-4.89.44-.719 2.21-3.62 1.086-2.564.8-5.143 1.109-3.69.353-8.474 2.858 1.699.612 1.572 1.825 4.681 2.031 3.02.301 1.571 2.435 3.25 2.17 6.315 1.875 2.68 3.591 3.77 2.14 2.156.816 1.295 2.209 3.512-1.296 3.657-.255 2.299-.535 1.423-1.168-.998-.232.4 1.564 1.997-.174 4.03 1.043 3.708 1.56 2.764-.427 1.14-.655-.526-.504-1.301s-1.083-2.195-.979-2.693c.105-.498-.082-2.2-.822-1.739-.74.462-.78.58-1.212.407-.433-.173-1.54-.468-1.54-.468s-.496-.995-.976-1.386c-.48-.39-1.282-1.252-1.787-1.188-.505.065-1.247.46-1.315-.116-.069-.576-.736-1.512-1.217-1.903-.48-.39-1.15-.438-1.5-.456-.35-.018-1.202-.279-1.534-.647-.332-.367-1.043.084.045.725 1.088.64 1.696.76 2.128.87.433.11 1.114.496 1.41 1.052.296.557.834 1.057.54 1.718-.294.662-.523 1.702-.523 1.702s.764-.032.93-.426c.164-.394.029-.968.416-1.072.387-.103.83.035 1.225.267.395.232 1.015.82 1.323 1.337.308.516 1.695 1.78 2.397 1.95.703.17 1.68.406 1.689.585.01.178.767 1.54.51 1.506-.255-.034-.41-.345-.73-.554-.32-.209-.793.054-.793.054l-.643.294-.067.503 1.101.852.004.876.022 4.36 1.546 1.18.313.681-.377.469-.888-.125-.882-.893-.775-3.244-.48-.662-.351.396.058 1.036-2.139-.79-.449.442 2.518 1.618.474.903.233 2.194-.738.456-1.132-.012-.47.394-.014.359 1.043.465.747-.048 2.867-.724.486.543-.262.593s-2.495.396-3.058.47c-.562.075-.56.183-1.092.908-.532.725-.607-.12-.931-.728-.324-.61-.274-.195-.698.03-.424.226-.054.913-.183 1.628-.13.715-.838.344-1.12-.187-.282-.53.017-1.437.36-1.75.344-.315-.49-.861-1.175-1.382-.684-.52-1.257-1.916-1.257-1.916s-.02.283-.03.968c-.009.685.626 1.368 1.023 1.667.397.299.27.57.124 1.192-.145.621.088 1.445-.05 1.824-.138.38-.243.504-.13.715.113.212.455.473.417 1.105-.038.632-.738.97-1.19 1.783-.45.814-1.29.386-1.29.386s.142.396.463.87c.32.476-.196 2.383-.295 2.708-.1.324-.727 1.372-1.681 1.37-.954-.004-.477.253-.247.942.23.69.41.259.995.016.584-.243 1.395-1.588 1.54-2.209.146-.621.634-2.58.76-2.92.126-.339.639-.781 1.213-1.29a2.811 2.811 0 0 1 1.232-.629s-.13-.433-.509-1.145c-.378-.713-.059-.751.518-1.004.576-.253.877-.656 1.011-1.096.134-.44.44-.136.929.248.49.385.961.17 1.027-.41.066-.578.297-.505.297-.505l.933-.284 1.986.976.46 1.264 1.293 1.53s.352.777.443 1.579c.09.802.225.934.682 1.474.456.54 1.727 2.545 2.31 2.235.583-.31.878-.331.93.15.053.483-.198.65-.6 1.238-.402.588-.285.734-.814 1.147-.528.413-1.08 1.42-1.017 1.795.063.374-.122 1.05.023 1.45.144.4.532.873.4.943-.133.07-.95.573-1.628.832-.679.259-.781.45-1.086.578-.306.129-.417-.017-.792.047-.374.063-1.159.378-1.122.766.037.389-.23 1.414-.597 1.235-.367-.179-.982.008-.304.77.677.762 1.105.224 1.063-.43-.041-.653-.452-1.416.807-1.478 1.26-.062 1.444-.739 1.79-.344.345.394.618 1.099.32 1.563-.297.464-.213 1.134.2 1.526.413.393.736.425.557-.296-.18-.721-.075-1.355-.112-1.81-.039-.456.1-1.21.608-1.276.51-.067 1.318.047 1.586.551.267.503.444.58.61.254.167-.327.573-.202-.14-.776-.713-.573-1.172-.605-1.012-1.264.16-.658.462-.92.925-1.201.463-.28 2.348-.947 2.863-.235.514.713.517 1.357.422 1.816-.096.46-.136 1.024.306.449.443-.575.57-1.357.345-1.781-.225-.424-.907-1.451-1.22-1.591-.312-.14-1.469-.205-1.316-.558.152-.353.201-1.604 1.003-1.758.803-.154 1.382-.462 1.746-.418.364.045.42.15.589.469.17.318.482.972.648 1.22.166.247.945 1.328.945 1.328s-.865-1.371-.532-2.024c.332-.653-.143-.843.4-1.165.543-.323.658-.554 1.02-.066.36.488.919.396 1.41.168.492-.227.794-.49.794-.49s-1.614-.094-1.243-.802c.372-.707.13-1.292.13-1.292s-.523.991-1.113 1.033c-.59.041-1.41.546-1.765.326-.354-.22-1.086-.573-1.109-.936-.022-.361-.03-.63-.03-.63s-.277.182-.524.483c-.247.302-.725.556-.953-.003-.23-.559-1.15-1.531-1.563-1.413-.413.118-.733.22-1.533.442-.8.221-1.105-.224-1.196-.652-.091-.427-.093-1.005-.396-1.32-.303-.315-.229-.56.082-.996.312-.437.309-.73.309-.73l-.43-.808.188-.497 1.005.128 1.63.846 2.047-.053 1.212.448.756-.287.211-2.514.52-.415 2.217.578 1.184-.38s1.517-.226 1.789-.261c.272-.036.88.768 1.187 1.55.307.782 1.999 1.227 1.999 1.227l2.382.505.991 1.138 1.655.128 3.118.875.223.488-1.254.75-.086.313-.136.495.325.323 1.138-.873 3.686-.856 4.972 2.743-.876 1.577-1.884.27.053.507 1.898.666.556 1.22.586-2.212 2.36-.78 1.227-.03.65.648 1.523.367.676.576-.304.928s-.631.59.148 1.303 1.44 1.271 1.69 2.083c.25.813.449 1.325.907 1.844.458.52-.003 1.02-.486.66-.483-.362-1.47-.237-1.647.184-.176.42-.254.753-1.09.07-.836-.682-2.008-1.04-2.487-1.259-.48-.218-1.12.014-1.422-.007-.302-.021-1.356.321-.33.54 1.024.218 1.349.009.888.509-.462.5-.386 1.804-.386 1.804s.375-1.689 1.216-1.336c.842.352 2.367 1.031 2.708 1.468.34.437.803.554 1.01.808.208.253.606.66.43 1.08-.176.421-.696.88-.73 1.225-.035.345-.303.525-.16 1.067.142.542.805 1.172.684.4-.12-.773.134-.98.446-1.146.312-.166.824-.911.898-1.387.074-.475.274-1.673-.179-1.977-.452-.304-.807-.698-.391-.737.415-.039 1.206.013 1.423.625.216.612.562 1.264.562 1.264s.542-.76.257-1.227c-.285-.466.047-1.006.655-.203.61.803.377.709 1.152.115.775-.594 1.531-.865 1.531-.865l1.784.958 2.319-.347 1.735.447-.537 1.54-2.856.591.13.414 1.217.861-.125.763-1.439-.052-.448.44-.262 1.238.596.14.799-.833.612.31.704-.155.347-1.325.51.535-.162 1.428-.755 1.58.032 1.753 1.332.985.49 2.37s-.008.663.025.863c.034.2.524.849-.108.822-.632-.028-.256.68-.266 1.413-.01.733-.122.865-.553 1.422-.432.556-.78.996-.792 1.657-.012.66-.564.99-.849 1.07-.285.079-.825.293-1.588 1.389-.762 1.096-.812.25-.9-.394-.089-.644-.336-.767-.747-1.13-.411-.363-.664-.156-.51.271.154.427.675.586.673 1.06-.002.474-.137.836.002 1.235.14.399.08.903-.178 1.512-.257.61.268 1.53.506 1.84.237.31.312.452-.04.748-.35.296-.534.43-.686 1.238-.152.808-.218 1.025-.032 1.58.187.555-.257.61-.847-.022-.59-.63-.348.44-.702 1.21s.307.236.578.747c.272.51-.038.747-.868 1.443-.83.696-.777 1.686-1.097 2.656-.32.97.278.797.594.23.316-.57.905-2.264 1.029-2.511.123-.248.801-.68 1.345-.752.544-.071.067-.763-.012-1.048-.079-.285.336-.942.576-1.106.24-.164 1.038-1.534 1.097-2.038.06-.504.67-.246.962-.038.291.208.665.773.93 1.614.266.84.622 1.305 1.012 1.425.391.12.171-.636-.057-1.133-.227-.498-.167-.93-.56-1.192-.395-.264-.65-.673-.89-1.127-.242-.453-.237-.856-.218-1.23.02-.373-.302-1.184-.289-1.773.014-.589 1.295-2.215 1.488-2.536.193-.32 1.273-.75 1.807-1.251.533-.502.617-.547.358-1.173-.26-.625.164-.923.47-1.304.306-.38.937-.425 1.3-.291.362.134.904-.008 1.17-.259.267-.251.572-.703 1-.787.429-.082.897-.295.897-.295l.477-1.141.452-1.206-.316-1.86.373-.346.502.715 1.49.559 1.526 1.545 1.495-.208 2.192 1.714-.67 1.894.098.604.706.388.395 1.646-.767.641-1.17-.115-.972.325.769 1.947-1.663.226-.186 1.144-.531.77.467 1.028.354-.514.576-.028.243-1.406 6.64-1.308.758.243 1.29 1.417 1.158-.171 1.086.45.407-.656-1.653-.663 1.006-1.28 2.176-1.813 1.122.14-.005.767 1.28 1.009.427-1.783.59-.385 1.377.318.215 1.108.046.244.604-.095.46-1.446 1.034-.703.462-1.445 1.898-.74 1.03 1.887.888-.637.337-.681-.896-.421-.158-.868-.416-.4-1.069.364-1.555-.06-1.229.791-.722-.556.023-1.894 1.517-.157 1.552-1.114.986-1.329 1.362-.498-.132-.94-1.303.433-.179.06-1.066 1.541-.825.255-.154-.99-1.999-1.038-2.443-.076-1.544.875-.715-.148.307-.492-.062-.913.782-1.65-.753-.365-.582.794-1.535.635-.462 1.447-1.27-.073-.84-2.505.222-1.454.56-1.49 1.609-2.582.743-1.191.812-.544.239.656.705.388.46 1.146.936-.011-.11-.893-1.048-1.408-.296-1.044-1.112-1.027-.618.456-1.268-.721-.582.146-.658.886-1.78.748-.67-.05-.249-.417.573-.555-.111-2.715-1.125-1.964.641-1.703.618-.457 1.195.166-.31 1.551.424-.055.626-.772 1.175.646 1.515-.686 1.052.113 1.383.845.514 1.005 1.091.33 1.248 2.294.572-2.823.72.028.338-.683-.66-.289-1.946.643-.084-2.787-1.496-1.62-1.127-.017-3.707 2.087-.292-.515.29-.661 1.005-.513.98-1.738 2.226-1.066 4.96-1.074 2.547-.552 9.911-1.116 6.279-2.121 3.687.223 2.718 1.6-.03.72s.175.731.103 1.08c-.074.348-.708.53-1.319.546-.61.015-2.066-.295-2.334-.41-.268-.116-1.332.502.2.667 1.533.165 1.218.075 2.083.131.864.056.973.472.938.697-.035.225-.081.818.194 1.238.276.422.58 1.188.628 1.473.048.284.24.74.17 1.096-.069.356.043.761.048.964.006.204.034 1.325.001 1.651-.033.327-.364 1.433-.85 1.897-.485.464-1.015.437-1.029.702-.013.265-.188.616-.66.505-.472-.11-1.077.109-1.544.202-.467.093-.9.17-1.12.338-.22.168-.405.42.173.423.579.002.823.347.783.677-.04.33.053.797-.745.654-.799-.143-1.445.098-1.684.328-.239.23-.961.812-1.1.163-.139-.649-.41-.866-.524-.598-.116.267-.829.595-1.255.666-.426.072-.308-.094-.621-.392-.314-.298-.252-.279-.75.142-.5.42-1.004.636-.895.94.11.302.539.333.987.3.447-.031 1.565-.841 1.932-.15.368.692-.02.64-.297.993-.276.354-.709.996.436.336 1.146-.66 1.654-.208 1.654-.208s.558-.503 1.194-1.151c.636-.648.9-.635 1.306-.746a1.59 1.59 0 0 0 1.083-.99c.21-.576.628-.953 1.012-1.105.383-.152 1.65-.99 2.525-1.868.874-.878 1.025-1.371 1.28-1.765.255-.393.944-.553.944-.553s-.157-.587-.548-.74c-.391-.154-.83-.591-.736-.9.095-.308.403-.618.489-1.137.085-.519-.196-1.144-.142-1.43.054-.287-.66-1.146.088-1.389.748-.243 1.12-.028 1.031.484-.089.512-.173.547.146.954.32.407.89 1.188.89 1.188s.3-.211.973-.208c.672.004.907.136 1.26.413.354.276.844.326 1.112.441.268.116.625.4.759.845.133.445.829 1.365.33 1.785-.5.42-.902.634-.117 1.042.785.408.801.615.752 1.415-.048.8.136 1.632-.451 1.789-.588.158-1.467.832-1.467.832s.75-.14 1.101.033c.351.175.433 1.008.433 1.008s.909-.328.631-.851c-.278-.523-.404-.662.234-.434.638.229 1.333.16 2.135.31.802.15 1.566-.161.786-.366s-2.038-.259-2.313-.37c-.275-.112-.875-.774-.33-1.786.545-1.012.142-1.478-.176-1.98-.318-.5-.68-1.96-.565-2.227.116-.268.917-1.478.687-1.717-.23-.238-.538-.332-.675-.105-.137.228-.282.15-.597-.25-.316-.4-.629-.697-.146-.954s.705-.324 1.162.052c.459.376 1.437.259 2.282.49.846.23 1.615-.652.942-.656-.672-.003-1.42.24-1.876-.034-.455-.274-1.084-.972-1.277-1.333-.192-.363-1.014-.451-.46-1.158.552-.707 1.036-1.738 1.3-1.826.262-.088.723-.385.723-.385s-.886-.406-.652-.84c.233-.434.25-1.372-.393-1.03-.644.343-2.339.728-3.073 1.015-.734.287-2.871.537-3.153.687-.281.15-.343.44-1.44.61-1.096.173-1.782-.177-1.782-.177z"/><path d="M115.173 249.52c-.793.421-1.044 1.864-.077 1.495.967-.369.871-1.917.077-1.496zm.581 7.108s1.893 2.192 2.271 1.264c.38-.929-2.271-1.264-2.271-1.264z"/></g><g fill-rule="nonzero"><path d="M126.76 17.281c.415.208.545.597.39 1.168-.156.57-.494 1.193-1.012 1.868a15.591 15.591 0 0 1-1.79 1.946c-.675.623-1.324 1.09-1.947 1.401-2.283.623-4.255 1.53-5.916 2.724-1.66 1.194-3.191 2.88-4.592 5.06-1.401 2.18-2.725 5.008-3.97 8.485-1.246 3.476-2.543 7.913-3.892 13.31-3.633 14.012-8.874 25.895-15.724 35.651a21.53 21.53 0 0 0 3.814-.934c1.194-.415 2.05-.778 2.57-1.09.31-.104.518-.026.622.234.104.26.052.545-.156.856-.83.519-1.972 1.038-3.425 1.557a22.048 22.048 0 0 1-4.515 1.09c-6.538 8.821-14.063 15.542-22.573 20.16-8.51 4.619-17.696 6.928-27.556 6.928-7.576 0-13.388-1.35-17.436-4.048-4.047-2.698-6.071-6.175-6.071-10.43 0-3.633 1.453-7.084 4.359-10.353 2.906-3.27 7.472-5.682 13.7-7.24.519.105.804.312.856.624.052.31-.026.57-.234.778-6.33 2.076-9.496 6.02-9.496 11.832 0 4.359 1.712 7.836 5.137 10.43 3.425 2.595 8.2 3.892 14.323 3.892 8.095 0 15.36-1.686 21.795-5.06 6.435-3.372 12.091-9.055 16.97-17.046-5.294-.312-9.342-2.336-12.144-6.072-2.802-3.736-4.203-8.562-4.203-14.478 0-6.435 1.712-12.818 5.137-19.149 3.425-6.33 7.992-12.04 13.7-17.125 5.708-5.085 12.325-9.185 19.85-12.298 7.524-3.114 15.334-4.67 23.43-4.67zM94.38 56.668c1.141-4.67 2.387-8.666 3.736-11.987 1.35-3.321 2.854-6.201 4.515-8.64 1.66-2.44 3.555-4.541 5.682-6.305 2.128-1.765 4.593-3.425 7.395-4.982-7.161.83-13.752 2.75-19.771 5.76-6.02 3.01-11.21 6.616-15.568 10.82-4.36 4.203-7.733 8.796-10.12 13.777-2.387 4.982-3.58 9.912-3.58 14.79 0 6.227 1.349 10.976 4.047 14.245 2.699 3.27 6.383 5.06 11.054 5.37 4.878-8.302 9.081-19.252 12.61-32.848zm27.866 21.172c2.283 0 4.125.312 5.526.935 1.401.623 2.102 1.401 2.102 2.335 0 1.142-.286 2.44-.856 3.892-.571 1.453-1.116 2.647-1.635 3.58-.208.208-.467.234-.778.079-.312-.156-.467-.442-.467-.857.31-.726.467-1.764.467-3.113 0-1.453-.39-2.647-1.168-3.58-.778-.935-1.842-1.402-3.191-1.402-1.765 0-3.192.545-4.282 1.635-1.09 1.09-1.634 2.62-1.634 4.592 0 1.66.44 3.243 1.323 4.748a55.947 55.947 0 0 0 2.958 4.515 44.759 44.759 0 0 1 3.036 4.826c.934 1.713 1.4 3.659 1.4 5.838 0 3.737-1.504 6.643-4.514 8.718-3.01 2.076-6.954 3.114-11.832 3.114-3.528 0-6.305-.57-8.329-1.713-2.023-1.141-3.035-2.387-3.035-3.736 0-.415.155-.986.467-1.712.311-.727.726-1.505 1.245-2.336a35.62 35.62 0 0 1 1.713-2.49c.622-.83 1.297-1.505 2.023-2.024.312-.208.597-.156.857.155.26.312.285.623.078.934-.623.623-1.09 1.272-1.402 1.946-.31.675-.467 1.583-.467 2.725 0 1.868.623 3.399 1.869 4.592 1.245 1.194 2.854 1.79 4.826 1.79 2.698 0 4.8-.752 6.305-2.257 1.505-1.504 2.257-3.347 2.257-5.526 0-1.972-.441-3.814-1.323-5.527a59.147 59.147 0 0 0-2.88-4.982 67.192 67.192 0 0 1-2.88-4.904 11.12 11.12 0 0 1-1.324-5.293c0-2.698 1.142-4.956 3.425-6.772 2.284-1.816 5.657-2.724 10.12-2.724zm79.241-75.816c1.557 0 2.828.39 3.814 1.168.986.778 1.66 1.816 2.024 3.114.363 1.297.415 2.776.156 4.437-.26 1.66-.857 3.32-1.79 4.981-.208.208-.468.208-.78 0-.31-.207-.518-.467-.622-.778.208-1.246-.233-2.283-1.323-3.114-1.09-.83-2.777-1.245-5.06-1.245-4.255 0-8.536 1.583-12.843 4.748-4.308 3.166-8.485 7.343-12.533 12.532-4.047 5.19-7.836 11.157-11.364 17.904a169.62 169.62 0 0 0-9.186 20.86c-2.594 7.162-4.644 14.271-6.149 21.329s-2.257 13.492-2.257 19.304c0 3.114.882 4.67 2.646 4.67 1.246 0 2.465-.518 3.659-1.556 1.193-1.038 2.569-2.595 4.125-4.67.312-.208.597-.182.857.077.259.26.337.597.233 1.012-2.076 3.114-4.515 5.709-7.317 7.784-2.802 2.076-5.345 3.114-7.628 3.114-1.972 0-3.347-.57-4.126-1.713-.778-1.141-1.167-2.594-1.167-4.359 0-4.878 1.038-10.975 3.113-18.292 2.076-7.317 4.852-15.05 8.33-23.196 3.476-8.148 7.498-16.269 12.064-24.364 4.567-8.096 9.315-15.387 14.245-21.873 4.93-6.487 9.886-11.754 14.868-15.802 4.981-4.048 9.652-6.072 14.01-6.072z"/><path d="M200.864 107.887c.208-.207.467-.207.778 0 .312.208.416.519.312.934-1.868 2.699-3.944 4.852-6.227 6.46-2.284 1.61-4.463 2.414-6.539 2.414-2.387 0-3.918-1.687-4.593-5.06-.674-3.373-.337-7.394 1.012-12.065-2.802 4.463-5.838 8.277-9.107 11.443-3.27 3.165-6.72 5.06-10.353 5.682-2.49 0-4.41-1.142-5.76-3.425-1.349-2.283-2.024-4.93-2.024-7.94 0-3.425.83-6.824 2.491-10.197 1.66-3.373 3.866-6.409 6.617-9.107a36.914 36.914 0 0 1 9.185-6.616c3.373-1.713 6.772-2.57 10.197-2.57 3.632 0 6.487.883 8.562 2.647 1.038-.726 2.361-1.349 3.97-1.868 1.609-.519 3.036-.778 4.281-.778.415 0 .623.26.623.778a49.426 49.426 0 0 0-6.15 9.575c-1.712 3.476-3.035 6.798-3.97 9.963-.933 3.166-1.504 5.994-1.712 8.485-.207 2.49 0 4.203.623 5.137.519.623 1.401.804 2.647.545 1.245-.26 2.958-1.738 5.137-4.437zm-29.89 4.048c1.245 0 2.776-.779 4.592-2.335 1.816-1.557 3.71-3.633 5.682-6.228 1.972-2.594 3.918-5.5 5.838-8.718a87.832 87.832 0 0 0 5.06-9.808c-.415-1.349-1.375-2.439-2.88-3.269-1.505-.83-3.243-1.245-5.215-1.245-2.387 0-4.619.596-6.695 1.79-2.075 1.194-3.866 2.854-5.37 4.982-1.506 2.127-2.7 4.67-3.581 7.628-.882 2.958-1.324 6.201-1.324 9.73 0 2.283.39 4.1 1.168 5.449.778 1.35 1.687 2.024 2.724 2.024zm82.354-5.138c.208-.207.467-.181.779.078.311.26.415.597.311 1.012a35.235 35.235 0 0 1-6.46 6.85c-2.44 1.972-4.853 2.958-7.24 2.958-1.764 0-3.14-.57-4.125-1.713-.986-1.141-1.48-2.646-1.48-4.514 0-3.633.65-7.577 1.947-11.832 1.297-4.255 3.036-8.562 5.215-12.921a5.865 5.865 0 0 0 .467-2.336c0-1.038-.467-1.556-1.401-1.556-3.84 0-8.095 2.62-12.766 7.861-4.67 5.242-8.977 13.57-12.921 24.987-.104.311-.441.597-1.012.856-.571.26-1.22.467-1.946.623-.727.156-1.453.285-2.18.39-.726.103-1.297.155-1.712.155-.52 0-.908-.104-1.168-.311-.26-.208-.285-.571-.078-1.09 1.765-4.463 3.555-9.367 5.371-14.712a203.38 203.38 0 0 0 4.749-16.113c.31-1.038.363-1.79.155-2.257-.207-.467-.57-.7-1.09-.7-1.141 0-2.23.492-3.269 1.478a23.29 23.29 0 0 0-2.802 3.192c-.311.207-.597.155-.856-.156-.26-.311-.338-.623-.234-.934.52-.727 1.22-1.557 2.102-2.491a26.188 26.188 0 0 1 3.036-2.724 18.365 18.365 0 0 1 3.58-2.18c1.246-.57 2.491-.856 3.737-.856 1.764 0 2.932.545 3.502 1.634.571 1.09.701 2.413.39 3.97a129.846 129.846 0 0 1-1.635 6.461 152.778 152.778 0 0 1-2.102 6.772c1.246-2.283 2.777-4.54 4.593-6.772a41.969 41.969 0 0 1 6.071-6.072 29.545 29.545 0 0 1 7.24-4.359c2.594-1.09 5.345-1.634 8.25-1.634 1.246 0 2.206.311 2.88.934.675.623 1.013 1.35 1.013 2.18 0 1.452-.364 2.75-1.09 3.891a83.235 83.235 0 0 0-5.527 12.221c-1.505 4.204-2.257 7.966-2.257 11.287 0 2.699.882 4.048 2.646 4.048 1.142 0 2.284-.467 3.425-1.401 1.142-.934 2.44-2.336 3.892-4.204zM350.784 0c1.557 0 2.828.416 3.814 1.246.986.83 1.687 1.92 2.102 3.27.415 1.349.519 2.88.311 4.592-.207 1.712-.726 3.399-1.556 5.06-.208.207-.467.285-.779.233-.311-.052-.519-.285-.622-.7.207-1.557-.208-2.725-1.246-3.503-1.038-.779-2.49-1.168-4.359-1.168-5.604 0-11.001 1.868-16.19 5.605-5.19 3.736-10.094 9.47-14.713 17.202-4.618 7.732-8.873 17.54-12.765 29.424-3.892 11.883-7.395 26.024-10.509 42.423-.519 2.283-.57 4.229-.155 5.838.415 1.608 1.193 2.413 2.335 2.413 1.141 0 2.231-.467 3.27-1.401 1.037-.934 1.971-2.128 2.801-3.581.208-.208.493-.208.857 0 .363.208.493.519.389.934-.52 1.038-1.272 2.128-2.258 3.27a27.184 27.184 0 0 1-3.269 3.19 18.305 18.305 0 0 1-3.736 2.414c-1.298.623-2.465.934-3.503.934-2.283 0-3.892-.83-4.826-2.49-.934-1.662-1.297-3.53-1.09-5.605.208-1.765.467-3.425.779-4.982a151.84 151.84 0 0 1 1.09-4.982c-2.076 4.463-4.982 8.329-8.719 11.598-3.736 3.27-7.42 5.423-11.053 6.46-2.387 0-4.307-.881-5.76-2.646-1.453-1.764-2.18-4.047-2.18-6.85 0-4.047.727-7.913 2.18-11.598 1.453-3.684 3.425-6.928 5.916-9.73 2.49-2.802 5.448-5.033 8.873-6.694 3.425-1.66 7.11-2.49 11.054-2.49 2.18 0 4.1.362 5.76 1.089 1.868-5.605 4.1-11.443 6.694-17.514a224.812 224.812 0 0 1 8.563-17.826 216.76 216.76 0 0 1 9.885-16.657c3.477-5.293 7.032-9.912 10.664-13.856 3.633-3.944 7.317-7.083 11.054-9.419 3.736-2.335 7.368-3.502 10.897-3.502zm-78.618 111.623c1.141 0 2.49-.596 4.047-1.79 1.557-1.193 3.166-2.802 4.826-4.826 1.661-2.024 3.218-4.36 4.67-7.006a54.52 54.52 0 0 0 3.737-8.484c.415-.934.779-1.894 1.09-2.88.311-.986.57-1.946.778-2.88-.415-1.246-1.22-2.154-2.413-2.725-1.193-.57-2.517-.856-3.97-.856-2.18 0-4.307.649-6.382 1.946-2.076 1.297-3.892 3.088-5.45 5.371-1.556 2.283-2.827 4.982-3.813 8.095-.986 3.114-1.48 6.539-1.48 10.275 0 1.66.39 3.036 1.168 4.126.779 1.09 1.842 1.634 3.192 1.634z"/></g><path d="M98.987 172.616c-2.024 4.826-3.685 8.277-4.982 10.352-.675.986-1.479 1.48-2.413 1.48-16.295-.26-27.711-.286-34.25-.078-.622.103-.986-.13-1.09-.701-.155-.26-.181-.636-.077-1.129s.311-.791.622-.895c.052 0 .156-.026.312-.078.155-.052.26-.078.311-.078h.312c3.788 0 5.863-.856 6.227-2.568.104-1.142.155-2.984.155-5.527v-31.992c0-2.076-.415-3.49-1.245-4.243-.83-.752-2.413-1.128-4.748-1.128h-.934c-.364-.052-.571-.363-.623-.934-.052-.571.026-.986.233-1.246.208-.415.597-.545 1.168-.389 5.5.104 12.922.078 22.262-.078.623 0 .986.234 1.09.7.363 1.35.026 2.05-1.012 2.102-1.038.104-1.868.156-2.49.156-2.959.104-4.723.337-5.294.7-.57.364-.856 1.557-.856 3.581v35.651c0 1.609.337 2.712 1.012 3.308.674.597 1.816.895 3.425.895h7.317c3.061 0 5.19-.259 6.383-.778 1.193-.519 2.698-1.998 4.514-4.437l2.725-3.58c.726-.26 1.271-.26 1.634 0 .416.207.52.518.312.934zm26.465-38.298c.156 1.09.026 1.635-.389 1.635-.104 0-.272.026-.506.078a2.786 2.786 0 0 1-.583.078c-2.388.051-3.88.506-4.476 1.362-.597.856-.895 3.074-.895 6.655v32.304c0 2.024.363 3.373 1.09 4.047.726.675 2.153 1.038 4.28 1.09.571 0 .96.026 1.168.078.311.208.493.532.545.973.052.441.013.843-.117 1.207-.13.363-.298.545-.506.545a299.295 299.295 0 0 0-19.304 0c-.623 0-.934-.39-.934-1.168 0-.986.233-1.48.7-1.48 2.387-.207 3.866-.609 4.437-1.206.571-.596.908-1.959 1.012-4.086l.078-2.725v-29.579l-.078-2.724c-.052-2.076-.363-3.451-.934-4.126-.57-.674-1.894-1.116-3.97-1.323-.934-.104-1.22-.753-.856-1.946.156-.363.519-.545 1.09-.545.207 0 2.802.065 7.784.195 4.982.13 8.355.065 10.119-.195.778 0 1.194.285 1.245.856zm61.028-.545c.259.312.336.727.233 1.246-.104.519-.338.804-.7.856-2.232.052-3.88.597-4.944 1.635s-2.244 3.217-3.541 6.538l-15.646 40.477c-.104.26-.325.571-.662.934-.337.364-.61.545-.817.545-.83.156-1.765.13-2.803-.078-.467 0-.856-.415-1.167-1.245l-16.736-41.8c-1.193-3.01-2.192-4.84-2.997-5.488-.804-.649-2.426-.999-4.865-1.05-.467-.105-.778-.312-.934-.624a2.3 2.3 0 0 1 .078-1.556c.104-.416.545-.623 1.323-.623 7.006.207 13.804.207 20.395 0 1.037 0 1.608.078 1.712.233.415.52.467 1.09.156 1.713-.052.26-.364.519-.934.778-2.699.104-4.606.338-5.722.7-1.115.364-1.673.96-1.673 1.791 0 .52.44 1.92 1.323 4.204l12.065 29.968c.052.104.143.234.273.39.13.155.298.324.506.505.207.182.415.22.622.117.208-.104.39-.363.545-.778l11.365-29.502c.726-1.92 1.09-3.477 1.09-4.67 0-1.038-.441-1.804-1.324-2.297-.882-.493-2.542-.74-4.981-.74h-.623c-.311-.103-.519-.401-.623-.894-.104-.493-.078-.895.078-1.207.104-.207.467-.311 1.09-.311 6.071.207 12.117.207 18.137 0 .363 0 .596.078.7.233zm46.859 37.987c0 1.66-.078 3.23-.234 4.709a163.204 163.204 0 0 1-.506 4.28c-.181 1.376-.298 2.193-.35 2.453-.104.726-1.141 1.09-3.113 1.09-18.475 0-31.137.026-37.986.078-.52-.104-.83-.286-.935-.545-.155-.364-.168-.83-.038-1.402.13-.57.376-.882.739-.934.363-.051 1.479-.077 3.347-.077 2.543-.104 4.139-.584 4.787-1.44.649-.857.973-2.945.973-6.267v-29.579c0-3.321-.324-5.462-.973-6.422-.648-.96-2.348-1.44-5.098-1.44H192.9c-.13 0-.234-.013-.311-.039a2.136 2.136 0 0 1-.273-.116 1.22 1.22 0 0 1-.311-.234 1.22 1.22 0 0 1-.234-.311c-.155-.312-.052-.857.312-1.635.155-.26.596-.39 1.323-.39 16.97-.103 28.541-.103 34.717 0 .986 0 1.479.26 1.479.78.207 1.66.35 3.19.428 4.592.078 1.401.13 2.66.155 3.775.026 1.116.065 1.881.117 2.296-.104.52-.726.597-1.868.234-.363-.052-.545-.337-.545-.856-.519-3.166-1.245-5.15-2.18-5.955-.933-.804-3.01-1.233-6.227-1.284-4.981-.156-8.458-.182-10.43-.078-.312 0-.636.207-.973.622-.338.416-.506.779-.506 1.09v15.724c0 .415.117.791.35 1.129.234.337.48.506.74.506h9.185c3.061 0 4.93-.26 5.604-.779.675-.519 1.194-2.18 1.557-4.982.104-.363.675-.493 1.713-.389.259.052.467.441.622 1.168.104 2.543.078 7.161-.078 13.855 0 .675-.311 1.038-.934 1.09-.882.104-1.349-.026-1.4-.39-.416-2.698-.974-4.32-1.674-4.864-.7-.545-2.582-.843-5.644-.895l-8.951-.078c-.727.207-1.09.623-1.09 1.245v13.077c0 3.01.272 4.814.817 5.41.545.597 2.219.895 5.02.895h6.228c2.906 0 4.865-.116 5.877-.35a4.648 4.648 0 0 0 2.53-1.518c1.245-1.505 2.205-3.606 2.88-6.305.104-.467.363-.752.778-.856.934-.104 1.48 0 1.635.311zm38.842-.39c0 4.152-1.479 7.564-4.437 10.236-2.958 2.673-6.824 4.009-11.598 4.009-1.712 0-4.41-.545-8.095-1.635-1.298-.363-2.076-.545-2.335-.545-.416 0-.805.286-1.168.857-.57.26-1.246.26-2.024 0-.623-2.128-1.193-6.331-1.712-12.61 0-.26.155-.442.467-.545a2.73 2.73 0 0 1 1.05-.117c.39.026.636.117.74.272.778 2.387 1.583 4.23 2.413 5.527.83 1.297 1.972 2.439 3.425 3.425 2.18 1.505 4.359 2.257 6.539 2.257 2.957 0 5.332-.83 7.122-2.49 1.79-1.661 2.685-3.763 2.685-6.306 0-.726-.064-1.414-.194-2.062-.13-.649-.39-1.31-.779-1.985a80.565 80.565 0 0 0-1.012-1.713c-.285-.467-.778-1.025-1.478-1.673a60.849 60.849 0 0 1-1.518-1.44c-.312-.312-.921-.779-1.83-1.402-.908-.622-1.479-1.024-1.712-1.206-.234-.182-.843-.597-1.83-1.245-.985-.65-1.53-1-1.634-1.051-1.868-1.246-3.36-2.297-4.476-3.153-1.116-.856-2.348-1.946-3.697-3.27-1.35-1.322-2.335-2.737-2.958-4.241-.623-1.505-.934-3.14-.934-4.904 0-3.581 1.271-6.5 3.814-8.757 2.543-2.258 5.89-3.386 10.041-3.386 1.66 0 3.815.44 6.461 1.323 1.453.467 2.413.7 2.88.7.312 0 .727-.233 1.246-.7.674-.208 1.271-.208 1.79 0 .311.778.804 4.307 1.479 10.586-.052.52-.39.779-1.012.779-.623 0-.986-.13-1.09-.39-2.49-6.33-6.175-9.496-11.053-9.496-2.44 0-4.333.649-5.682 1.946-1.35 1.297-2.024 3.01-2.024 5.137 0 2.543 1.479 5.112 4.437 7.706 1.245 1.142 3.204 2.621 5.877 4.437 2.672 1.817 4.903 3.386 6.694 4.71 1.79 1.323 3.425 3.1 4.904 5.332 1.479 2.231 2.218 4.592 2.218 7.083z" fill-rule="nonzero"/></svg>