<svg width="91" height="49" xmlns="http://www.w3.org/2000/svg"><g fill="#E1DBCB" fill-rule="evenodd"><path d="M30.183 4.524c.109.054.143.156.102.306-.04.149-.129.312-.265.489a4.081 4.081 0 0 1-.468.509 2.256 2.256 0 0 1-.51.367c-.598.163-1.114.4-1.548.713-.435.312-.836.754-1.203 1.324-.366.571-.713 1.311-1.039 2.222-.326.91-.666 2.071-1.019 3.484-.95 3.668-2.323 6.779-4.116 9.333a5.7 5.7 0 0 0 .999-.245 3.93 3.93 0 0 0 .672-.285c.081-.027.136-.007.163.061.027.068.014.143-.04.224a4.745 4.745 0 0 1-.897.408c-.38.136-.775.23-1.182.285-1.712 2.31-3.682 4.069-5.91 5.278-2.227 1.209-4.632 1.813-7.213 1.813-1.983 0-3.505-.353-4.564-1.06-1.06-.706-1.59-1.616-1.59-2.73 0-.95.38-1.854 1.141-2.71.761-.856 1.956-1.488 3.587-1.895.135.027.21.081.224.163a.22.22 0 0 1-.061.204c-1.658.543-2.486 1.575-2.486 3.097 0 1.141.448 2.051 1.345 2.73.896.68 2.146 1.02 3.749 1.02 2.12 0 4.02-.442 5.705-1.325 1.685-.883 3.166-2.37 4.443-4.463-1.386-.081-2.446-.611-3.18-1.59-.733-.977-1.1-2.24-1.1-3.79 0-1.684.449-3.355 1.345-5.012.897-1.657 2.092-3.152 3.587-4.483 1.494-1.331 3.226-2.404 5.196-3.22a15.891 15.891 0 0 1 6.133-1.222zm-8.477 10.31c.3-1.222.625-2.268.979-3.137.353-.87.747-1.624 1.181-2.262a7.91 7.91 0 0 1 1.488-1.65A12.644 12.644 0 0 1 27.29 6.48c-1.875.217-3.6.72-5.176 1.508S19.18 9.72 18.039 10.82c-1.141 1.1-2.024 2.303-2.65 3.607-.624 1.304-.937 2.595-.937 3.872 0 1.63.353 2.873 1.06 3.729.706.856 1.67 1.324 2.893 1.406 1.277-2.174 2.378-5.04 3.301-8.6zm7.295 5.543c.598 0 1.08.082 1.447.245.367.163.55.366.55.611 0 .299-.074.638-.224 1.019a7.97 7.97 0 0 1-.428.937c-.054.055-.122.061-.203.02-.082-.04-.123-.115-.123-.224.082-.19.123-.461.123-.815 0-.38-.102-.692-.306-.937-.204-.245-.482-.367-.836-.367-.461 0-.835.143-1.12.428-.286.285-.428.686-.428 1.202 0 .435.115.85.346 1.243.231.394.49.788.775 1.182.285.394.55.815.794 1.264.245.448.367.957.367 1.528 0 .978-.394 1.739-1.182 2.282-.788.544-1.82.815-3.097.815-.924 0-1.65-.15-2.18-.448-.53-.299-.795-.625-.795-.978 0-.109.04-.258.122-.448.082-.19.19-.394.326-.612.136-.217.285-.435.448-.652.163-.217.34-.394.53-.53.082-.054.156-.04.224.041.068.082.075.163.02.245a1.784 1.784 0 0 0-.366.509c-.082.177-.122.414-.122.713 0 .49.163.89.489 1.202.326.313.747.47 1.263.47.706 0 1.257-.198 1.65-.592.395-.394.592-.876.592-1.447a3.11 3.11 0 0 0-.347-1.446c-.23-.449-.482-.883-.754-1.304a17.59 17.59 0 0 1-.754-1.284 2.911 2.911 0 0 1-.346-1.386c0-.706.299-1.297.896-1.773.598-.475 1.481-.713 2.65-.713zM49.745.53c.408 0 .74.102.999.306.258.203.434.475.53.815.095.34.108.726.04 1.161-.068.435-.224.87-.468 1.304-.055.055-.123.055-.204 0a.393.393 0 0 1-.163-.203c.054-.326-.061-.598-.347-.816-.285-.217-.726-.326-1.324-.326-1.114 0-2.235.415-3.362 1.243-1.128.83-2.221 1.923-3.281 3.281-1.06 1.359-2.051 2.92-2.975 4.687a44.403 44.403 0 0 0-2.405 5.46 42.26 42.26 0 0 0-1.61 5.584c-.393 1.848-.59 3.532-.59 5.054 0 .815.23 1.222.693 1.222.326 0 .645-.136.957-.407.313-.272.673-.68 1.08-1.223.082-.054.156-.047.224.02.068.068.089.157.062.265a8.088 8.088 0 0 1-1.916 2.038c-.733.544-1.4.815-1.997.815-.516 0-.876-.15-1.08-.448-.204-.299-.305-.68-.305-1.141 0-1.277.271-2.873.815-4.789.543-1.915 1.27-3.94 2.18-6.072a64.565 64.565 0 0 1 3.158-6.378c1.196-2.12 2.439-4.028 3.73-5.726 1.29-1.698 2.587-3.077 3.891-4.137C47.382 1.06 48.604.53 49.745.53z"/><path d="M49.582 28.243c.055-.055.122-.055.204 0 .081.054.109.136.081.244-.489.707-1.032 1.27-1.63 1.692-.597.42-1.168.631-1.711.631-.625 0-1.026-.441-1.203-1.324-.176-.883-.088-1.936.265-3.159-.733 1.169-1.528 2.167-2.384 2.996-.856.828-1.759 1.324-2.71 1.487-.652 0-1.155-.299-1.508-.896-.353-.598-.53-1.29-.53-2.079 0-.896.218-1.786.652-2.67a8.714 8.714 0 0 1 1.732-2.383 9.663 9.663 0 0 1 2.405-1.732c.883-.449 1.773-.673 2.67-.673.95 0 1.697.231 2.24.693.273-.19.619-.353 1.04-.49.421-.135.795-.203 1.12-.203.11 0 .164.068.164.204a12.939 12.939 0 0 0-1.61 2.506c-.448.91-.795 1.78-1.04 2.609-.244.828-.393 1.569-.447 2.22-.055.653 0 1.101.163 1.346.135.163.366.21.692.142.326-.068.775-.455 1.345-1.161zm-7.825 1.06c.326 0 .727-.204 1.203-.612.475-.408.971-.95 1.487-1.63.516-.68 1.026-1.44 1.528-2.282.503-.843.945-1.698 1.325-2.568-.109-.353-.36-.638-.754-.856-.394-.217-.849-.326-1.365-.326-.625 0-1.21.156-1.753.469a4.415 4.415 0 0 0-1.406 1.304c-.394.557-.706 1.223-.937 1.997a8.883 8.883 0 0 0-.346 2.547c0 .598.101 1.073.305 1.426.204.354.442.53.713.53zm21.559-1.346c.055-.054.123-.047.204.02.082.069.109.157.082.266a9.224 9.224 0 0 1-1.692 1.793c-.638.516-1.27.774-1.895.774-.462 0-.822-.15-1.08-.448-.258-.299-.387-.693-.387-1.182 0-.95.17-1.983.51-3.097a21.77 21.77 0 0 1 1.365-3.383c.081-.19.122-.394.122-.611 0-.272-.122-.408-.367-.408-1.005 0-2.119.686-3.342 2.058-1.222 1.372-2.35 3.553-3.382 6.541-.027.082-.116.157-.265.225-.15.067-.32.122-.51.163-.19.04-.38.074-.57.101-.19.028-.34.041-.448.041-.136 0-.238-.027-.306-.081-.068-.055-.075-.15-.02-.286a84.21 84.21 0 0 0 1.406-3.85c.475-1.4.89-2.806 1.243-4.219.081-.272.095-.469.04-.59a.288.288 0 0 0-.285-.184c-.299 0-.584.129-.856.387a6.097 6.097 0 0 0-.733.835c-.082.055-.156.041-.224-.04-.068-.082-.089-.163-.062-.245a6.855 6.855 0 0 1 1.345-1.365c.3-.231.612-.421.938-.57a2.33 2.33 0 0 1 .978-.225c.462 0 .767.143.917.428.15.285.183.632.102 1.04a33.991 33.991 0 0 1-.978 3.463 11.665 11.665 0 0 1 2.791-3.362 7.734 7.734 0 0 1 1.895-1.14c.68-.286 1.4-.429 2.16-.429.326 0 .578.082.754.245a.754.754 0 0 1 .265.57c0 .38-.095.72-.285 1.02a21.79 21.79 0 0 0-1.447 3.198c-.394 1.1-.59 2.086-.59 2.955 0 .706.23 1.06.692 1.06.299 0 .598-.123.896-.367.3-.245.639-.612 1.02-1.1zM88.828 0c.408 0 .74.109.999.326.258.218.441.503.55.856.109.353.136.754.081 1.202-.054.449-.19.89-.407 1.325a.22.22 0 0 1-.204.06c-.081-.013-.136-.074-.163-.182.055-.408-.054-.714-.326-.917-.272-.204-.652-.306-1.141-.306-1.467 0-2.88.489-4.238 1.467-1.359.978-2.643 2.48-3.852 4.503-1.209 2.024-2.323 4.592-3.341 7.703-1.02 3.11-1.936 6.813-2.751 11.105-.136.598-.15 1.107-.041 1.529.109.42.312.631.611.631s.584-.122.856-.366c.272-.245.516-.557.734-.938.054-.054.129-.054.224 0 .095.055.129.136.102.245a4.23 4.23 0 0 1-.591.856 7.116 7.116 0 0 1-.856.835 4.792 4.792 0 0 1-.978.632c-.34.163-.646.244-.917.244-.598 0-1.02-.217-1.264-.652-.244-.435-.34-.924-.285-1.467.054-.462.122-.897.204-1.304.081-.408.177-.842.285-1.304a9.085 9.085 0 0 1-2.282 3.036c-.978.856-1.943 1.42-2.894 1.691-.624 0-1.127-.23-1.507-.693-.38-.462-.571-1.06-.571-1.793 0-1.06.19-2.071.57-3.036a8.476 8.476 0 0 1 1.55-2.547 7.387 7.387 0 0 1 2.322-1.753 6.545 6.545 0 0 1 2.894-.652c.57 0 1.073.096 1.508.286a59.908 59.908 0 0 1 1.752-4.585 58.851 58.851 0 0 1 2.241-4.666A56.743 56.743 0 0 1 80.29 7.01c.91-1.386 1.841-2.595 2.792-3.627.95-1.033 1.915-1.855 2.894-2.466C86.954.306 87.905 0 88.828 0zm-20.58 29.22c.298 0 .652-.155 1.06-.468.407-.312.828-.733 1.263-1.263.434-.53.842-1.141 1.222-1.834.38-.693.707-1.433.978-2.221.109-.245.204-.496.286-.754.081-.258.149-.51.203-.754a1.173 1.173 0 0 0-.631-.713 2.378 2.378 0 0 0-1.04-.225c-.57 0-1.127.17-1.67.51-.544.34-1.02.808-1.427 1.406-.407.598-.74 1.304-.998 2.12-.258.814-.388 1.71-.388 2.689 0 .435.102.795.306 1.08a.972.972 0 0 0 .836.428zM22.913 45.187c-.53 1.264-.965 2.167-1.304 2.71-.177.259-.388.388-.632.388-4.266-.068-7.254-.075-8.966-.02-.163.026-.258-.035-.285-.184-.041-.068-.048-.167-.02-.296.027-.129.08-.207.162-.234a.357.357 0 0 0 .082-.02.333.333 0 0 1 .081-.02h.082c.992 0 1.535-.225 1.63-.673.027-.299.04-.781.04-1.447v-8.375c0-.543-.108-.913-.325-1.11-.218-.197-.632-.296-1.243-.296h-.245c-.095-.013-.15-.095-.163-.244-.013-.15.007-.258.061-.326.055-.11.157-.143.306-.102 1.44.027 3.383.02 5.828-.02.163 0 .258.06.285.183.095.353.007.536-.265.55-.271.027-.489.04-.652.04-.774.028-1.236.089-1.385.184-.15.095-.225.408-.225.937v9.333c0 .421.089.71.265.866.177.156.476.234.897.234h1.915c.802 0 1.359-.068 1.671-.203.313-.136.707-.523 1.182-1.162l.713-.937c.19-.068.333-.068.428 0 .109.054.136.136.082.244zm6.928-10.025c.04.285.007.428-.102.428a.697.697 0 0 0-.132.02.73.73 0 0 1-.153.02c-.625.014-1.016.133-1.172.357-.156.224-.234.805-.234 1.742v8.457c0 .53.095.883.285 1.06.19.176.564.271 1.12.285.15 0 .252.006.306.02.082.054.13.14.143.255a.69.69 0 0 1-.03.316c-.034.095-.079.142-.133.142a78.35 78.35 0 0 0-5.053 0c-.163 0-.245-.102-.245-.305 0-.258.061-.388.183-.388.625-.054 1.013-.16 1.162-.315.15-.157.238-.513.265-1.07l.02-.713v-7.744l-.02-.713c-.014-.543-.095-.903-.245-1.08-.15-.176-.496-.292-1.039-.346-.244-.027-.32-.197-.224-.51.04-.095.136-.142.285-.142.055 0 .734.017 2.038.05 1.304.035 2.187.018 2.649-.05.204 0 .312.074.326.224zm15.976-.142c.067.08.088.19.06.325-.027.136-.088.21-.183.224-.584.014-1.015.157-1.294.428-.278.272-.587.843-.927 1.712l-4.096 10.596a.864.864 0 0 1-.173.245c-.088.095-.16.142-.214.142a1.93 1.93 0 0 1-.733-.02c-.123 0-.224-.109-.306-.326L33.57 37.403c-.312-.788-.574-1.266-.785-1.436-.21-.17-.635-.262-1.273-.275-.122-.028-.204-.082-.245-.163a.602.602 0 0 1 .02-.408c.028-.109.143-.163.347-.163 1.834.054 3.614.054 5.339 0 .272 0 .421.02.448.061.109.136.122.285.041.449-.014.067-.095.135-.245.203-.706.027-1.205.089-1.497.184-.292.095-.438.251-.438.468 0 .136.115.503.346 1.1l3.158 7.846a.57.57 0 0 0 .072.102c.034.04.078.085.132.132.055.048.109.058.163.03.055-.026.102-.094.143-.203l2.975-7.723c.19-.503.285-.91.285-1.223a.642.642 0 0 0-.346-.6c-.231-.13-.666-.194-1.304-.194h-.163c-.082-.027-.136-.106-.163-.235a.48.48 0 0 1 .02-.315c.027-.055.122-.082.285-.082a69.16 69.16 0 0 0 4.748 0c.095 0 .156.02.184.061zm12.266 9.943c0 .435-.02.846-.06 1.233a42.724 42.724 0 0 1-.225 1.763c-.027.19-.299.285-.815.285-4.836 0-8.15.007-9.944.02-.136-.027-.217-.074-.244-.142a.597.597 0 0 1-.01-.367c.033-.15.098-.231.193-.245.095-.013.387-.02.876-.02.666-.027 1.084-.153 1.253-.377.17-.224.255-.771.255-1.64v-7.744c0-.87-.085-1.43-.255-1.68-.17-.252-.614-.378-1.334-.378h-.275a.265.265 0 0 1-.082-.01.559.559 0 0 1-.071-.03.32.32 0 0 1-.082-.062.32.32 0 0 1-.06-.081c-.042-.082-.014-.224.08-.428.041-.068.157-.102.347-.102 4.442-.027 7.472-.027 9.088 0 .258 0 .387.068.387.204.055.435.092.835.112 1.202.02.367.034.696.041.988.007.292.017.493.03.602-.026.135-.19.156-.488.06-.095-.013-.143-.088-.143-.224-.136-.828-.326-1.348-.57-1.558-.245-.21-.788-.323-1.63-.337-1.305-.04-2.215-.047-2.731-.02-.082 0-.167.054-.255.163-.088.109-.132.204-.132.285v4.116c0 .11.03.208.091.296.062.088.126.132.194.132h2.404c.802 0 1.291-.068 1.468-.203.176-.136.312-.57.407-1.304.027-.096.177-.13.448-.102.068.013.123.115.163.305.028.666.02 1.875-.02 3.627 0 .177-.081.272-.244.286-.231.027-.354-.007-.367-.102-.109-.707-.255-1.131-.438-1.274-.184-.142-.676-.22-1.478-.234l-2.343-.02c-.19.054-.285.163-.285.326v3.423c0 .788.071 1.26.214 1.416.142.156.58.234 1.314.234h1.63c.76 0 1.274-.03 1.539-.091.265-.061.485-.194.662-.398.326-.394.577-.944.754-1.65.027-.122.095-.197.204-.224.244-.027.387 0 .427.081zm10.169-.102c0 1.087-.388 1.98-1.162 2.68-.774.7-1.786 1.05-3.036 1.05-.448 0-1.155-.143-2.12-.429-.339-.095-.543-.142-.61-.142-.11 0-.211.074-.306.224-.15.068-.326.068-.53 0-.163-.557-.312-1.657-.448-3.301 0-.068.04-.116.122-.143a.715.715 0 0 1 .275-.03c.102.006.166.03.194.07.203.626.414 1.108.631 1.448.218.34.517.638.897.896.57.394 1.141.591 1.712.591.774 0 1.395-.217 1.864-.652.469-.435.703-.985.703-1.65 0-.19-.017-.37-.05-.54a1.718 1.718 0 0 0-.205-.52 21.09 21.09 0 0 0-.265-.448 2.247 2.247 0 0 0-.387-.438c-.183-.17-.316-.296-.397-.377a3.824 3.824 0 0 0-.479-.367 12.558 12.558 0 0 1-.448-.316 9.896 9.896 0 0 0-.48-.326 9.58 9.58 0 0 0-.427-.275c-.489-.326-.88-.601-1.172-.825a10.84 10.84 0 0 1-.968-.856 3.364 3.364 0 0 1-.774-1.11 3.325 3.325 0 0 1-.244-1.285c0-.937.332-1.701.998-2.292.666-.59 1.542-.886 2.629-.886.434 0 .998.115 1.691.346.38.122.632.183.754.183.081 0 .19-.06.326-.183a.691.691 0 0 1 .469 0c.081.204.21 1.128.387 2.771-.014.136-.102.204-.265.204-.163 0-.258-.034-.285-.102-.652-1.657-1.617-2.486-2.894-2.486-.638 0-1.134.17-1.487.51-.354.34-.53.788-.53 1.345 0 .665.387 1.338 1.161 2.017.326.299.84.686 1.539 1.161.7.476 1.283.887 1.752 1.233.469.347.897.812 1.284 1.396.387.584.58 1.202.58 1.854z"/></g></svg>