<?xml version="1.0" encoding="UTF-8" standalone="no"?>
<!DOCTYPE svg PUBLIC "-//W3C//DTD SVG 1.1//EN" "http://www.w3.org/Graphics/SVG/1.1/DTD/svg11.dtd">
<svg width="100%" height="100%" viewBox="0 0 382 313" version="1.1" xmlns="http://www.w3.org/2000/svg" xmlns:xlink="http://www.w3.org/1999/xlink" xml:space="preserve" style="fill-rule:evenodd;clip-rule:evenodd;">
    <g transform="matrix(1,0,0,1,-372.207,-252.239)">
        <g id="logo--island" transform="matrix(1.62167,0,0,1.62167,-286.967,123.612)">
            <path d="M484.645,89.974C484.901,90.102 484.981,90.342 484.885,90.694C484.789,91.046 484.581,91.43 484.261,91.846C483.941,92.262 483.573,92.662 483.157,93.046C482.741,93.43 482.341,93.718 481.957,93.91C480.549,94.294 479.333,94.854 478.309,95.59C477.285,96.326 476.341,97.366 475.477,98.71C474.613,100.054 473.797,101.798 473.029,103.942C472.261,106.086 471.461,108.822 470.629,112.15C468.389,120.79 465.157,128.118 460.933,134.134C461.765,134.006 462.549,133.814 463.285,133.558C464.021,133.302 464.549,133.078 464.869,132.886C465.061,132.822 465.189,132.87 465.253,133.03C465.317,133.19 465.285,133.366 465.157,133.558C464.645,133.878 463.941,134.198 463.045,134.518C462.149,134.838 461.221,135.062 460.261,135.19C456.229,140.63 451.589,144.774 446.341,147.622C441.093,150.47 435.429,151.894 429.349,151.894C424.677,151.894 421.093,151.062 418.597,149.398C416.101,147.734 414.853,145.59 414.853,142.966C414.853,140.726 415.749,138.598 417.541,136.582C419.333,134.566 422.149,133.078 425.989,132.118C426.309,132.182 426.485,132.31 426.517,132.502C426.549,132.694 426.501,132.854 426.373,132.982C422.469,134.262 420.517,136.694 420.517,140.278C420.517,142.966 421.573,145.11 423.685,146.71C425.797,148.31 428.741,149.11 432.517,149.11C437.509,149.11 441.989,148.07 445.957,145.99C449.925,143.91 453.413,140.406 456.421,135.478C453.157,135.286 450.661,134.038 448.933,131.734C447.205,129.43 446.341,126.454 446.341,122.806C446.341,118.838 447.397,114.902 449.509,110.998C451.621,107.094 454.437,103.574 457.957,100.438C461.477,97.302 465.557,94.774 470.197,92.854C474.837,90.934 479.653,89.974 484.645,89.974ZM464.677,114.262C465.381,111.382 466.149,108.918 466.981,106.87C467.813,104.822 468.741,103.046 469.765,101.542C470.789,100.038 471.957,98.742 473.269,97.654C474.581,96.566 476.101,95.542 477.829,94.582C473.413,95.094 469.349,96.278 465.637,98.134C461.925,99.99 458.725,102.214 456.037,104.806C453.349,107.398 451.269,110.23 449.797,113.302C448.325,116.374 447.589,119.414 447.589,122.422C447.589,126.262 448.421,129.19 450.085,131.206C451.749,133.222 454.021,134.326 456.901,134.518C459.909,129.398 462.501,122.646 464.677,114.262Z" style="fill-rule:nonzero;"/>
            <path d="M481.861,127.318C483.269,127.318 484.405,127.51 485.269,127.894C486.133,128.278 486.565,128.758 486.565,129.334C486.565,130.038 486.389,130.838 486.037,131.734C485.685,132.63 485.349,133.366 485.029,133.942C484.901,134.07 484.741,134.086 484.549,133.99C484.357,133.894 484.261,133.718 484.261,133.462C484.453,133.014 484.549,132.374 484.549,131.542C484.549,130.646 484.309,129.91 483.829,129.334C483.349,128.758 482.693,128.47 481.861,128.47C480.773,128.47 479.893,128.806 479.221,129.478C478.549,130.15 478.213,131.094 478.213,132.31C478.213,133.334 478.485,134.31 479.029,135.238C479.573,136.166 480.181,137.094 480.853,138.022C481.525,138.95 482.149,139.942 482.725,140.998C483.301,142.054 483.589,143.254 483.589,144.598C483.589,146.902 482.661,148.694 480.805,149.974C478.949,151.254 476.517,151.894 473.509,151.894C471.333,151.894 469.621,151.542 468.373,150.838C467.125,150.134 466.501,149.366 466.501,148.534C466.501,148.278 466.597,147.926 466.789,147.478C466.981,147.03 467.237,146.55 467.557,146.038C467.877,145.526 468.229,145.014 468.613,144.502C468.997,143.99 469.413,143.574 469.861,143.254C470.053,143.126 470.229,143.158 470.389,143.35C470.549,143.542 470.565,143.734 470.437,143.926C470.053,144.31 469.765,144.71 469.573,145.126C469.381,145.542 469.285,146.102 469.285,146.806C469.285,147.958 469.669,148.902 470.437,149.638C471.205,150.374 472.197,150.742 473.413,150.742C475.077,150.742 476.373,150.278 477.301,149.35C478.229,148.422 478.693,147.286 478.693,145.942C478.693,144.726 478.421,143.59 477.877,142.534C477.333,141.478 476.741,140.454 476.101,139.462C475.461,138.47 474.869,137.462 474.325,136.438C473.781,135.414 473.509,134.326 473.509,133.174C473.509,131.51 474.213,130.118 475.621,128.998C477.029,127.878 479.109,127.318 481.861,127.318Z" style="fill-rule:nonzero;"/>
            <path d="M530.725,80.566C531.685,80.566 532.469,80.806 533.077,81.286C533.685,81.766 534.101,82.406 534.325,83.206C534.549,84.006 534.581,84.918 534.421,85.942C534.261,86.966 533.893,87.99 533.317,89.014C533.189,89.142 533.029,89.142 532.837,89.014C532.645,88.886 532.517,88.726 532.453,88.534C532.581,87.766 532.309,87.126 531.637,86.614C530.965,86.102 529.925,85.846 528.517,85.846C525.893,85.846 523.253,86.822 520.597,88.774C517.941,90.726 515.365,93.302 512.869,96.502C510.373,99.702 508.037,103.382 505.861,107.542C503.685,111.702 501.797,115.99 500.197,120.406C498.597,124.822 497.333,129.206 496.405,133.558C495.477,137.91 495.013,141.878 495.013,145.462C495.013,147.382 495.557,148.342 496.645,148.342C497.413,148.342 498.165,148.022 498.901,147.382C499.637,146.742 500.485,145.782 501.445,144.502C501.637,144.374 501.813,144.39 501.973,144.55C502.133,144.71 502.181,144.918 502.117,145.174C500.837,147.094 499.333,148.694 497.605,149.974C495.877,151.254 494.309,151.894 492.901,151.894C491.685,151.894 490.837,151.542 490.357,150.838C489.877,150.134 489.637,149.238 489.637,148.15C489.637,145.142 490.277,141.382 491.557,136.87C492.837,132.358 494.549,127.59 496.693,122.566C498.837,117.542 501.317,112.534 504.133,107.542C506.949,102.55 509.877,98.054 512.917,94.054C515.957,90.054 519.013,86.806 522.085,84.31C525.157,81.814 528.037,80.566 530.725,80.566Z" style="fill-rule:nonzero;"/>
            <path d="M530.341,145.846C530.469,145.718 530.629,145.718 530.821,145.846C531.013,145.974 531.077,146.166 531.013,146.422C529.861,148.086 528.581,149.414 527.173,150.406C525.765,151.398 524.421,151.894 523.141,151.894C521.669,151.894 520.725,150.854 520.309,148.774C519.893,146.694 520.101,144.214 520.933,141.334C519.205,144.086 517.333,146.438 515.317,148.39C513.301,150.342 511.173,151.51 508.933,151.894C507.397,151.894 506.213,151.19 505.381,149.782C504.549,148.374 504.133,146.742 504.133,144.886C504.133,142.774 504.645,140.678 505.669,138.598C506.693,136.518 508.053,134.646 509.749,132.982C511.445,131.318 513.333,129.958 515.413,128.902C517.493,127.846 519.589,127.318 521.701,127.318C523.941,127.318 525.701,127.862 526.981,128.95C527.621,128.502 528.437,128.118 529.429,127.798C530.421,127.478 531.301,127.318 532.069,127.318C532.325,127.318 532.453,127.478 532.453,127.798C530.981,129.59 529.717,131.558 528.661,133.702C527.605,135.846 526.789,137.894 526.213,139.846C525.637,141.798 525.285,143.542 525.157,145.078C525.029,146.614 525.157,147.67 525.541,148.246C525.861,148.63 526.405,148.742 527.173,148.582C527.941,148.422 528.997,147.51 530.341,145.846ZM511.909,148.342C512.677,148.342 513.621,147.862 514.741,146.902C515.861,145.942 517.029,144.662 518.245,143.062C519.461,141.462 520.661,139.67 521.845,137.686C523.029,135.702 524.069,133.686 524.965,131.638C524.709,130.806 524.117,130.134 523.189,129.622C522.261,129.11 521.189,128.854 519.973,128.854C518.501,128.854 517.125,129.222 515.845,129.958C514.565,130.694 513.461,131.718 512.533,133.03C511.605,134.342 510.869,135.91 510.325,137.734C509.781,139.558 509.509,141.558 509.509,143.734C509.509,145.142 509.749,146.262 510.229,147.094C510.709,147.926 511.269,148.342 511.909,148.342Z" style="fill-rule:nonzero;"/>
            <path d="M562.693,145.174C562.821,145.046 562.981,145.062 563.173,145.222C563.365,145.382 563.429,145.59 563.365,145.846C562.213,147.446 560.885,148.854 559.381,150.07C557.877,151.286 556.389,151.894 554.917,151.894C553.829,151.894 552.981,151.542 552.373,150.838C551.765,150.134 551.461,149.206 551.461,148.054C551.461,145.814 551.861,143.382 552.661,140.758C553.461,138.134 554.533,135.478 555.877,132.79C556.069,132.342 556.165,131.862 556.165,131.35C556.165,130.71 555.877,130.39 555.301,130.39C552.933,130.39 550.309,132.006 547.429,135.238C544.549,138.47 541.893,143.606 539.461,150.646C539.397,150.838 539.189,151.014 538.837,151.174C538.485,151.334 538.085,151.462 537.637,151.558C537.189,151.654 536.741,151.734 536.293,151.798C535.845,151.862 535.493,151.894 535.237,151.894C534.917,151.894 534.677,151.83 534.517,151.702C534.357,151.574 534.341,151.35 534.469,151.03C535.557,148.278 536.661,145.254 537.781,141.958C538.901,138.662 539.877,135.35 540.709,132.022C540.901,131.382 540.933,130.918 540.805,130.63C540.677,130.342 540.453,130.198 540.133,130.198C539.429,130.198 538.757,130.502 538.117,131.11C537.477,131.718 536.901,132.374 536.389,133.078C536.197,133.206 536.021,133.174 535.861,132.982C535.701,132.79 535.653,132.598 535.717,132.406C536.037,131.958 536.469,131.446 537.013,130.87C537.557,130.294 538.181,129.734 538.885,129.19C539.589,128.646 540.325,128.198 541.093,127.846C541.861,127.494 542.629,127.318 543.397,127.318C544.485,127.318 545.205,127.654 545.557,128.326C545.909,128.998 545.989,129.814 545.797,130.774C545.477,132.182 545.141,133.51 544.789,134.758C544.437,136.006 544.005,137.398 543.493,138.934C544.261,137.526 545.205,136.134 546.325,134.758C547.445,133.382 548.693,132.134 550.069,131.014C551.445,129.894 552.933,128.998 554.533,128.326C556.133,127.654 557.829,127.318 559.621,127.318C560.389,127.318 560.981,127.51 561.397,127.894C561.813,128.278 562.021,128.726 562.021,129.238C562.021,130.134 561.797,130.934 561.349,131.638C560.005,134.07 558.869,136.582 557.941,139.174C557.013,141.766 556.549,144.086 556.549,146.134C556.549,147.798 557.093,148.63 558.181,148.63C558.885,148.63 559.589,148.342 560.293,147.766C560.997,147.19 561.797,146.326 562.693,145.174Z" style="fill-rule:nonzero;"/>
            <path d="M622.789,79.318C623.749,79.318 624.533,79.574 625.141,80.086C625.749,80.598 626.181,81.27 626.437,82.102C626.693,82.934 626.757,83.878 626.629,84.934C626.501,85.99 626.181,87.03 625.669,88.054C625.541,88.182 625.381,88.23 625.189,88.198C624.997,88.166 624.869,88.022 624.805,87.766C624.933,86.806 624.677,86.086 624.037,85.606C623.397,85.126 622.501,84.886 621.349,84.886C617.893,84.886 614.565,86.038 611.365,88.342C608.165,90.646 605.141,94.182 602.293,98.95C599.445,103.718 596.821,109.766 594.421,117.094C592.021,124.422 589.861,133.142 587.941,143.254C587.621,144.662 587.589,145.862 587.845,146.854C588.101,147.846 588.581,148.342 589.285,148.342C589.989,148.342 590.661,148.054 591.301,147.478C591.941,146.902 592.517,146.166 593.029,145.27C593.157,145.142 593.333,145.142 593.557,145.27C593.781,145.398 593.861,145.59 593.797,145.846C593.477,146.486 593.013,147.158 592.405,147.862C591.797,148.566 591.125,149.222 590.389,149.83C589.653,150.438 588.885,150.934 588.085,151.318C587.285,151.702 586.565,151.894 585.925,151.894C584.517,151.894 583.525,151.382 582.949,150.358C582.373,149.334 582.149,148.182 582.277,146.902C582.405,145.814 582.565,144.79 582.757,143.83C582.949,142.87 583.173,141.846 583.429,140.758C582.149,143.51 580.357,145.894 578.053,147.91C575.749,149.926 573.477,151.254 571.237,151.894C569.765,151.894 568.581,151.35 567.685,150.262C566.789,149.174 566.341,147.766 566.341,146.038C566.341,143.542 566.789,141.158 567.685,138.886C568.581,136.614 569.797,134.614 571.333,132.886C572.869,131.158 574.693,129.782 576.805,128.758C578.917,127.734 581.189,127.222 583.621,127.222C584.965,127.222 586.149,127.446 587.173,127.894C588.325,124.438 589.701,120.838 591.301,117.094C592.901,113.35 594.661,109.686 596.581,106.102C598.501,102.518 600.533,99.094 602.677,95.83C604.821,92.566 607.013,89.718 609.253,87.286C611.493,84.854 613.765,82.918 616.069,81.478C618.373,80.038 620.613,79.318 622.789,79.318ZM574.309,148.15C575.013,148.15 575.845,147.782 576.805,147.046C577.765,146.31 578.757,145.318 579.781,144.07C580.805,142.822 581.765,141.382 582.661,139.75C583.557,138.118 584.325,136.374 584.965,134.518C585.221,133.942 585.445,133.35 585.637,132.742C585.829,132.134 585.989,131.542 586.117,130.966C585.861,130.198 585.365,129.638 584.629,129.286C583.893,128.934 583.077,128.758 582.181,128.758C580.837,128.758 579.525,129.158 578.245,129.958C576.965,130.758 575.845,131.862 574.885,133.27C573.925,134.678 573.141,136.342 572.533,138.262C571.925,140.182 571.621,142.294 571.621,144.598C571.621,145.622 571.861,146.47 572.341,147.142C572.821,147.814 573.477,148.15 574.309,148.15Z" style="fill-rule:nonzero;"/>
        </g>
        <g id="logo--lives" transform="matrix(1.62167,0,0,1.62167,-215.611,58.5356)">
            <path d="M423.517,225.89C422.269,228.866 421.245,230.994 420.445,232.274C420.029,232.882 419.533,233.186 418.957,233.186C408.909,233.026 401.869,233.01 397.837,233.138C397.453,233.202 397.229,233.058 397.165,232.706C397.069,232.546 397.053,232.314 397.117,232.01C397.181,231.706 397.309,231.522 397.501,231.458C397.533,231.458 397.597,231.442 397.693,231.41C397.789,231.378 397.853,231.362 397.885,231.362C397.917,231.362 397.981,231.362 398.077,231.362C400.413,231.362 401.693,230.834 401.917,229.778C401.981,229.074 402.013,227.938 402.013,226.37L402.013,206.642C402.013,205.362 401.757,204.49 401.245,204.026C400.733,203.562 399.757,203.33 398.317,203.33L397.741,203.33C397.517,203.298 397.389,203.106 397.357,202.754C397.325,202.402 397.373,202.146 397.501,201.986C397.629,201.73 397.869,201.65 398.221,201.746C401.613,201.81 406.189,201.794 411.949,201.698C412.333,201.698 412.557,201.842 412.621,202.13C412.845,202.962 412.637,203.394 411.997,203.426C411.357,203.49 410.845,203.522 410.461,203.522C408.637,203.586 407.549,203.73 407.197,203.954C406.845,204.178 406.669,204.914 406.669,206.162L406.669,228.146C406.669,229.138 406.877,229.818 407.293,230.186C407.709,230.554 408.413,230.738 409.405,230.738L413.917,230.738C415.805,230.738 417.117,230.578 417.853,230.258C418.589,229.938 419.517,229.026 420.637,227.522L422.317,225.314C422.765,225.154 423.101,225.154 423.325,225.314C423.581,225.442 423.645,225.634 423.517,225.89Z" style="fill-rule:nonzero;"/>
            <path d="M439.837,202.274C439.933,202.946 439.853,203.282 439.597,203.282C439.533,203.282 439.429,203.298 439.285,203.33C439.141,203.362 439.021,203.378 438.925,203.378C437.453,203.41 436.533,203.69 436.165,204.218C435.797,204.746 435.613,206.114 435.613,208.322L435.613,228.242C435.613,229.49 435.837,230.322 436.285,230.738C436.733,231.154 437.613,231.378 438.925,231.41C439.277,231.41 439.517,231.426 439.645,231.458C439.837,231.586 439.949,231.786 439.981,232.058C440.013,232.33 439.989,232.578 439.909,232.802C439.829,233.026 439.725,233.138 439.597,233.138C435.629,233.01 431.661,233.01 427.693,233.138C427.309,233.138 427.117,232.898 427.117,232.418C427.117,231.81 427.261,231.506 427.549,231.506C429.021,231.378 429.933,231.13 430.285,230.762C430.637,230.394 430.845,229.554 430.909,228.242L430.957,226.562L430.957,208.322L430.909,206.642C430.877,205.362 430.685,204.514 430.333,204.098C429.981,203.682 429.165,203.41 427.885,203.282C427.309,203.218 427.133,202.818 427.357,202.082C427.453,201.858 427.677,201.746 428.029,201.746C428.157,201.746 429.757,201.786 432.829,201.866C435.901,201.946 437.981,201.906 439.069,201.746C439.549,201.746 439.805,201.922 439.837,202.274Z" style="fill-rule:nonzero;"/>
            <path d="M477.469,201.938C477.629,202.13 477.677,202.386 477.613,202.706C477.549,203.026 477.405,203.202 477.181,203.234C475.805,203.266 474.789,203.602 474.133,204.242C473.477,204.882 472.749,206.226 471.949,208.274L462.301,233.234C462.237,233.394 462.101,233.586 461.893,233.81C461.685,234.034 461.517,234.146 461.389,234.146C460.877,234.242 460.301,234.226 459.661,234.098C459.373,234.098 459.133,233.842 458.941,233.33L448.621,207.554C447.885,205.698 447.269,204.57 446.773,204.17C446.277,203.77 445.277,203.554 443.773,203.522C443.485,203.458 443.293,203.33 443.197,203.138C443.101,202.818 443.117,202.498 443.245,202.178C443.309,201.922 443.581,201.794 444.061,201.794C448.381,201.922 452.573,201.922 456.637,201.794C457.277,201.794 457.629,201.842 457.693,201.938C457.949,202.258 457.981,202.61 457.789,202.994C457.757,203.154 457.565,203.314 457.213,203.474C455.549,203.538 454.373,203.682 453.685,203.906C452.997,204.13 452.653,204.498 452.653,205.01C452.653,205.33 452.925,206.194 453.469,207.602L460.909,226.082C460.941,226.146 460.997,226.226 461.077,226.322C461.157,226.418 461.261,226.522 461.389,226.634C461.517,226.746 461.645,226.77 461.773,226.706C461.901,226.642 462.013,226.482 462.109,226.226L469.117,208.034C469.565,206.85 469.789,205.89 469.789,205.154C469.789,204.514 469.517,204.042 468.973,203.738C468.429,203.434 467.405,203.282 465.901,203.282L465.517,203.282C465.325,203.218 465.197,203.034 465.133,202.73C465.069,202.426 465.085,202.178 465.181,201.986C465.245,201.858 465.469,201.794 465.853,201.794C469.597,201.922 473.325,201.922 477.037,201.794C477.261,201.794 477.405,201.842 477.469,201.938Z" style="fill-rule:nonzero;"/>
            <path d="M506.365,225.362C506.365,226.386 506.317,227.354 506.221,228.266C506.125,229.178 506.021,230.058 505.909,230.906C505.797,231.754 505.725,232.258 505.693,232.418C505.629,232.866 504.989,233.09 503.773,233.09C492.381,233.09 484.573,233.106 480.349,233.138C480.029,233.074 479.837,232.962 479.773,232.802C479.677,232.578 479.669,232.29 479.749,231.938C479.829,231.586 479.981,231.394 480.205,231.362C480.429,231.33 481.117,231.314 482.269,231.314C483.837,231.25 484.821,230.954 485.221,230.426C485.621,229.898 485.821,228.61 485.821,226.562L485.821,208.322C485.821,206.274 485.621,204.954 485.221,204.362C484.821,203.77 483.773,203.474 482.077,203.474L481.429,203.474C481.349,203.474 481.285,203.466 481.237,203.45C481.189,203.434 481.133,203.41 481.069,203.378C481.005,203.346 480.941,203.298 480.877,203.234C480.813,203.17 480.765,203.106 480.733,203.042C480.637,202.85 480.701,202.514 480.925,202.034C481.021,201.874 481.293,201.794 481.741,201.794C492.205,201.73 499.341,201.73 503.149,201.794C503.757,201.794 504.061,201.954 504.061,202.274C504.189,203.298 504.277,204.242 504.325,205.106C504.373,205.97 504.405,206.746 504.421,207.434C504.437,208.122 504.461,208.594 504.493,208.85C504.429,209.17 504.045,209.218 503.341,208.994C503.117,208.962 503.005,208.786 503.005,208.466C502.685,206.514 502.237,205.29 501.661,204.794C501.085,204.298 499.805,204.034 497.821,204.002C494.749,203.906 492.605,203.89 491.389,203.954C491.197,203.954 490.997,204.082 490.789,204.338C490.581,204.594 490.477,204.818 490.477,205.01L490.477,214.706C490.477,214.962 490.549,215.194 490.693,215.402C490.837,215.61 490.989,215.714 491.149,215.714L496.813,215.714C498.701,215.714 499.853,215.554 500.269,215.234C500.685,214.914 501.005,213.89 501.229,212.162C501.293,211.938 501.645,211.858 502.285,211.922C502.445,211.954 502.573,212.194 502.669,212.642C502.733,214.21 502.717,217.058 502.621,221.186C502.621,221.602 502.429,221.826 502.045,221.858C501.501,221.922 501.213,221.842 501.181,221.618C500.925,219.954 500.581,218.954 500.149,218.618C499.717,218.282 498.557,218.098 496.669,218.066L491.149,218.018C490.701,218.146 490.477,218.402 490.477,218.786L490.477,226.85C490.477,228.706 490.645,229.818 490.981,230.186C491.317,230.554 492.349,230.738 494.077,230.738L497.917,230.738C499.709,230.738 500.917,230.666 501.541,230.522C502.165,230.378 502.685,230.066 503.101,229.586C503.869,228.658 504.461,227.362 504.877,225.698C504.941,225.41 505.101,225.234 505.357,225.17C505.933,225.106 506.269,225.17 506.365,225.362Z" style="fill-rule:nonzero;"/>
            <path d="M530.317,225.122C530.317,227.682 529.405,229.786 527.581,231.434C525.757,233.082 523.373,233.906 520.429,233.906C519.373,233.906 517.709,233.57 515.437,232.898C514.637,232.674 514.157,232.562 513.997,232.562C513.741,232.562 513.501,232.738 513.277,233.09C512.925,233.25 512.509,233.25 512.029,233.09C511.645,231.778 511.293,229.186 510.973,225.314C510.973,225.154 511.069,225.042 511.261,224.978C511.453,224.914 511.669,224.89 511.909,224.906C512.149,224.922 512.301,224.978 512.365,225.074C512.845,226.546 513.341,227.682 513.853,228.482C514.365,229.282 515.069,229.986 515.965,230.594C517.309,231.522 518.653,231.986 519.997,231.986C521.821,231.986 523.285,231.474 524.389,230.45C525.493,229.426 526.045,228.13 526.045,226.562C526.045,226.114 526.005,225.69 525.925,225.29C525.845,224.89 525.685,224.482 525.445,224.066C525.205,223.65 524.997,223.298 524.821,223.01C524.645,222.722 524.341,222.378 523.909,221.978C523.477,221.578 523.165,221.282 522.973,221.09C522.781,220.898 522.405,220.61 521.845,220.226C521.285,219.842 520.933,219.594 520.789,219.482C520.645,219.37 520.269,219.114 519.661,218.714C519.053,218.314 518.717,218.098 518.653,218.066C517.501,217.298 516.581,216.65 515.893,216.122C515.205,215.594 514.445,214.922 513.613,214.106C512.781,213.29 512.173,212.418 511.789,211.49C511.405,210.562 511.213,209.554 511.213,208.466C511.213,206.258 511.997,204.458 513.565,203.066C515.133,201.674 517.197,200.978 519.757,200.978C520.781,200.978 522.109,201.25 523.741,201.794C524.637,202.082 525.229,202.226 525.517,202.226C525.709,202.226 525.965,202.082 526.285,201.794C526.701,201.666 527.069,201.666 527.389,201.794C527.581,202.274 527.885,204.45 528.301,208.322C528.269,208.642 528.061,208.802 527.677,208.802C527.293,208.802 527.069,208.722 527.005,208.562C525.469,204.658 523.197,202.706 520.189,202.706C518.685,202.706 517.517,203.106 516.685,203.906C515.853,204.706 515.437,205.762 515.437,207.074C515.437,208.642 516.349,210.226 518.173,211.826C518.941,212.53 520.149,213.442 521.797,214.562C523.445,215.682 524.821,216.65 525.925,217.466C527.029,218.282 528.037,219.378 528.949,220.754C529.861,222.13 530.317,223.586 530.317,225.122Z" style="fill-rule:nonzero;"/>
        </g>
    </g>
</svg>
