<svg viewBox="0 0 1680 659" xmlns="http://www.w3.org/2000/svg" fill-rule="evenodd" clip-rule="evenodd" stroke-linejoin="round" stroke-miterlimit="1.414"><g fill="#fff" fill-rule="nonzero"><path d="M491.88 102.696c-.063.258-.213.592-.346.892-.004.012-.025 0-.034.012-.004.013-.991 1.263-2.154.683-.354-.179-.7-.387-1.046-.616-.55-.509-1.129-.892-1.829-1.296-.7-.488-1.458-.958-2.237-1.142-.238-.083-.725-.25-1.042-.25-.396 0-.762.317-.796.713-.058.77.767.896 1.367.991l.004-.008c.3.113.67.28 1.083.517l1.496.946c.33.241.667.487 1.009.72.604.58 1.095 1.321 1.537 2.321.204.454.304.896.413 1.321.025.254.07.496.07.758 0 1.942.225 4.634-1.125 6.125-.312.355-.445.384-.662.838-.325.65-.625 1.254-1.083 1.825-.642.796-1.346 1.425-2.121 2.096-1.138.975-2.104 1.779-3.463 2.041-.9.18-1.77.209-2.654.25-1.304-.737-1.487-1.67-1.77-3.458-.05-.35-.11-.717-.18-1.108-.508-2.859-1.142-2.859-1.48-2.859a.795.795 0 0 0-.632.33c-.184.245-.367.508.354 2.662.746 2.208-.35 5.92-.813 7.292-.929 1.225-1.983 2.366-3.046 3.508-1.6 1.02-3.054 2.07-4.866 2.638-.98.308-1.954.795-2.963 1.066-.796.192-1.62.346-2.133 1.038-.371.516-1.28.725-.85 2.125 0 .333 1.192 1.058 1.2 1.391.058 1.717-3.854.334-4.65 0-.796-.316-1.275-.379-2.096-.695-.954-.355-2.167-.971-3.017-1.592-.716-.53-1.287-1.438-1.879-2.092a12.285 12.285 0 0 0-1.208-1.15c-1.796-2.125-3.917-4.937-5.146-7.591-2.483-5.317-1.917-9.938-1.28-10.505 1.238-1.083 1.81-3.387 1.868-3.645a.762.762 0 0 0-.338-.821.767.767 0 0 0-.883.054c-.109.096-2.767 2.287-3.284 4.487-.404 1.713-.879 2.309-.825 2.384-1.108-.475-2.558-5.063-2.558-6.517 0-.354-.075-.983-.17-1.78-.272-2.266-.73-6.057.195-7.874 1.742-3.454 4.763-5.983 6.408-7.18.846-.612 1.667-1.35 1.4-2.178-.125-.38-.5-.834-1.604-.834a3.43 3.43 0 0 0-.308.013.819.819 0 0 0-.404.158c-1.85 1.467-3.925 3.046-4.946 3.73-.38-1.25-.942-3.83-.646-4.926 1.075-3.883.98-4.012.725-4.35a.792.792 0 0 0-.612-.304c-.388 0-.967 0-2 4.308-.713 2.95-.717 7.538-.717 7.7-.083 2.163-.508 5.98-1.254 7.03-.938 1.295-.467 4.291.196 7.779.183.95.354 1.854.354 2.179-.113 1.358-6.25 14.1-7.359 16.03-.225.39-.358.695-.412.974l-6.78-1.567c-2.774 1.4-6.233 3.58-8.537 6.546-1.833-.233-3.637-.046-5.35.396.1-.746.23-1.458.538-2.258.366-.95.504-1.909.783-2.871.22-.792.4-1.546.762-2.258.525-1.013 1.725-1.888 2.184-2.955.475-1.112-.088-2.504.387-3.612 1.121-2.6 2.25-5.213 3.375-7.82.492-1.122 1-2.143 1.359-3.305a18.564 18.564 0 0 1 1.4-3.288c.495-.933 1.283-1.654 1.833-2.55.433-.704 1.013-1.804 1.275-2.6.133-.395.104-.92.225-1.345.175-.596.488-1.163.796-1.696 1.379-2.334 3.775-3.759 5.32-5.934.488-.67.805-1.479 1.376-2.087.283-.308.658-.425.962-.68.313-.274.38-.645.625-1.016.488-.717.68-1.483.871-2.317.283-1.179.963-2.05 1.513-3.008.766-1.392 1.708-2.592 3.025-3.525.683-.487 1.3-1.133 2.095-1.43.875-.324 1.471-.912 2.305-1.4.75-.424 1.379-1.028 2.066-1.516.667-.479 1.517-.696 2.35-.887 1.584-.371 3.221-.325 4.821-.534.47-.062.875-.283 1.363-.333.479-.046.991 0 1.466 0 1.909 0 3.763.038 5.634.246 1.725.196 3.637.712 5.045 1.708.725.496 1.317 1.125 2.23 1.425.708.234 1.412.704 2.079 1.054.637.334.85.8 1.229 1.455.342.562.858.991 1.346 1.466.062.059.112.113.162.175 1.475 2.85 3.959 8.304 3.625 12.025-.462 5.192-3.258 13.104-4.658 14.659-1.396 1.562-2.054 3.295 1.629.929 4.192-2.692 7.908-15.117 7.908-16.98 0-1.216 1.021-2.095 2.225-2.645.213.041.417.096.784.07 2.096-.124 4.366.013 6.179 1.2 1.446.934 3.042 1.655 4.33 2.738 1.57 1.35 3.174 4.275 3.307 6.35.059.92.013 1.975-.22 2.82zm-65.575 27.537c.358-.395.87-1.05 1.666-2.179l.204-.3c5.196-7.429 6.963-8.541 7.555-8.541 1.529 0 2.762 2.458 2.97 3.725.184 1.137.971 1.787 1.667 2.354.4.329.775.637.996 1l.142.237c.7 1.138 2.141 3.475 2.016 5.038-.016.27-.016.27-1.008 1.237-.708.659-.93.934-1.446 1.617-.73.962-1.958 2.346-2.283 3.45-.542 1.3-1.442 2.654-2.35 3.796-.896-.442-1.825-.846-2.834-1.138-.704-5.008-3.279-8.662-3.92-9.512l-3.375-.784zm5.579 62.663h-3.775c-6.384-5.288-22.021-10.604-44.309-10.604-22.291 0-37.541 5.316-43.92 10.604h-3.676l-20.462-39.458 7.642-3.459 1.233 9.134 4.68-6.913 5.924 12.446-8.133-.117s4.429 7.896 15.033 6.417c3.35-.467 5.633-1.925 7.304-3.667-.304.113-3.208 1.088-5.083-1.016-1.97-2.221.983-4.688.983-4.688s.254 1.73 2.292 1.971c2.03.246 2.146-2.754 2.146-2.754s-1.484-.496-1.717-1.68c-.183-.866 1.496-2.179 1.496-2.179s-2.488-5.779-6.183-4.233c-3.767 1.571-.255 5.417-.255 5.417s-4.92-.73-7.045-2.7c-2.138-1.98-1.58-6.421 3.595-7.404 5.175-.988 8.88 2.962 8.88 2.962s-2.221-4.192-2.709-8.142c-.5-3.945 2.221-7.4 2.221-7.4s4.68 2.471 5.67 4.692c.984 2.213.734 9.854.734 9.854s4.088-5.787 6.663-6.654c1.479-.492 5.183-.237 5.67 3.7.488 3.95-3.941 7.154-3.941 7.154s.18-2.212-.992-3.704c-1.17-1.479-2.958-.496-4.196 1.038-1.15 1.429-1.225 3.65-1.225 3.65s1.721 1.483 1.721 2.225c0 .729-.729 2.22-.729 2.22s.975 1.967 2.704 1.48c1.725-.496.988-3.955.988-3.955s1.979 1.488 3.204 2.475c1.237.984.254 3.109-1.475 4.434-.504.379-1.258.741-2.063 1.075 1.796.504 3.959.812 6.746.65 6.425-.371 9.996-3.025 11.967-5.588l2.337-7.354-7.891 5.292-1.23-15.78 9.609 6.171-3.7-10.362h13.312l-4.679 10.612 9.621-5.67-1.475 15.533-7.658-5.796 2.104 7.821c1.808 2.358 4.58 4.804 8.754 5.617 2.95.57 5.838-.042 8.43-1.046-.072-.054-.142-.092-.188-.13-1.709-1.354-2.659-3.504-1.4-4.466 1.246-.958 3.246-2.413 3.246-2.413s-.8 3.442.916 3.967c1.717.53 2.734-1.437 2.734-1.437s-.709-1.484-.696-2.225c.012-.742 1.766-2.184 1.766-2.184s-.041-2.237-1.175-3.675c-1.208-1.546-2.97-2.562-4.17-1.112-1.196 1.462-1.05 3.683-1.05 3.683s-4.388-3.283-3.821-7.22c.562-3.934 4.266-4.122 5.729-3.597 2.562.905 6.546 6.771 6.546 6.771s-.117-7.65.912-9.85c1.025-2.196 5.755-4.583 5.755-4.583s2.654 3.5 2.091 7.437c-.562 3.938-2.85 8.092-2.85 8.092s3.754-3.887 8.925-2.808c5.154 1.075 5.634 5.516 3.471 7.458-2.154 1.942-7.104 2.592-7.104 2.592s3.596-3.792-.154-5.434c-3.667-1.608-6.242 4.142-6.242 4.142s1.646 1.321 1.45 2.188c-.267 1.187-1.762 1.654-1.762 1.654s.075 3.004 2.12 2.8c2.025-.217 2.313-1.942 2.313-1.942s2.917 2.517.9 4.704c-1.496 1.634-3.671 1.325-4.667 1.063 1.363 1.816 3.03 3.441 5.096 4.229 8.588 3.283 15.788-5.175 15.788-5.175l-8.384-1.175 7.396-12.638 4.442 8.871 1.229-10.104 7.387 5.671-21.691 34.525zm-.359 54.15c-.487.13-1.079-.158-1.425-.467-.987-.887-1.57-2.237-2.466-3.241-.638-.721-1.092-1.846-1.409-2.767-.225-.63-.8-2.833-1.687-2.446.1-.958-1.038-2.304-1.438-3.133-.475-.967-.65-1.933-1.037-2.921-.342-.908-1.154-1.233-2.033-1.767-1.55-.95-2.93-2.187-4.28-3.433-1.937-1.796-3.337-3.846-4.962-5.887-.621-.792-.813-1.3-1.05-2.267-.204-.821-.888-1.454-1.038-2.25-.154-.858.138-1.858.075-2.746-.062-1.104-.712-1.742-1.275-2.637-.829-1.346-1.17-2.896-1.57-4.371-.326-1.225-.28-2.575-.713-3.775-.463-1.246-1.383-2.325-1.98-3.488-.45-.862-.703-1.742-1.145-2.587-.3-.6-.488-2.188-.738-3.746 11.367 1.812 18.263 5.054 20.705 7.079l1.566.562c.205 1.1.471 2.196.696 3.217.48 2.2 1.146 4.384 1.534 6.625.254 1.409.733 2.834 1.012 4.242.108.55.2 1.337.292 2.004.133.983.546 1.917.666 2.908.117 1.038.038 2.113 0 3.146-.075 1.559-.633 2.996-1.166 4.442-.38 1.05-1.442 1.908-1.117 3.087.267.938.83 2.042 1.233 2.963.03.046 4.396 9.862 4.396 9.862.254.859.592 1.725.763 2.6.108.634.279 1.021-.409 1.192zm-34.266-50.925c-.313.587-.296 1.862-.384 2.52-.579 4.038-.337 8.917-2.475 12.555.096-.146.142-.092.225-.146-.146.367.013 1.042-.016 1.53-.038.77-.13 1.541-.171 2.295-.067 1.188-.021 2.388-.021 3.571 0 1.23.08 2.475.008 3.688-.029.495-.15 1.07-.27 1.541-.338 1.446-.871 2.825-1.346 4.242-.409 1.258-.913 2.42-1.867 3.379-.783.788-1.708 1.383-2.613 2.004-.72.496-1.837.971-2.366 1.667-1.013 1.342-.93 4-1.184 5.679-.533 3.704-.25 7.55-.295 11.304-.013.909-.788 7.263-2.48 4.917-1.154-1.583-1-3.796-.883-5.63.121-2.045.15-4.062.238-6.103.079-1.984.079-4.03-.267-5.967-.117-.713-.05-1.883-.488-2.43-.15-.2-.8-.591-1.045-.8a13.802 13.802 0 0 1-1.517-1.487c-.596-.666-1.383-1.12-1.88-1.896-1.2-1.837-1.353-4.208-1.824-6.287-.496-2.158-.354-4.35-.354-6.533 0-4.413.525-8.755-.017-13.13-.267-2.2-.142-4.487-.342-6.708-.079-.813-.479-4.633-1.058-7.55 3.45-.333 7.12-.575 11.233-.575 5.25 0 9.917.325 14.096.833-.275 1.575-.492 3.246-.637 3.517zm-30.392-.217c-.592.921-.775 2.167-1.146 3.204-.342.996-.937 1.88-1.279 2.884-.804 2.429-1.392 4.95-2.175 7.375-.308.954-.488 1.892-.68 2.842-.295 1.466-.95 2.85-1.512 4.266-.754 1.896-1.612 3.4-2.633 5.08-.758 1.229-1.796 2.295-2.513 3.55-.883 1.524-2.141 2.908-3.754 3.683-1.296.612-2.754 1.037-3.966 1.77-1.038.626-1.588 1.58-2.167 2.571-.713 1.213-1.733 2.359-2.242 3.75-.35.938-.579 1.85-1.179 2.671-.562.771-1.375 1.392-1.733 2.25-.371.913-.85 1.463-1.475 2.204-.604.709-.93 1.625-2.096 1.421-1.896-.346-.746-1.941-.204-2.854a700.59 700.59 0 0 0 2.116-3.48c.867-1.428 1.746-2.87 2.605-4.3.416-.903.891-1.787 1.158-2.74.896-3.138-.98-7.03-1.592-9.992-.462-2.213-.541-4.325.2-6.43.413-1.154.938-2.229 1.217-3.441.708-3.271 1.817-6.475 2.633-9.63.163-.641.25-1.304.359-1.962l1.12-.4c2.55-2.117 9.875-5.58 22.046-7.33-.47 1.38-.879 2.68-1.108 3.038zm-24.22-66.766l-2.05.433c-.66.837-3.3 4.45-4.093 9.446-.987.266-1.92.616-2.804 1.029-.133-.575-.254-1.233-.591-1.654-.48-.571-1.088-1.025-1.534-1.617-.75-.942-1.35-1.962-2.091-2.892-.442-1.154-.83-2.47-.83-3.562 0-1.1 2.646-6.146 4.155-8.158l.562-.784c1.1-1.537 2.1-2.925 3.625-2.333 2.242.842 4.246 6.17 5.65 10.092zm-27.847 2.8a4.434 4.434 0 0 0-1.27-1.917c-.75-.68-1.817-.888-2.75-1.213-1.146-.4-2.309-.808-3.438-1.27-.958-.396-1.763-1.055-2.67-1.563-.526-.3-1.118-.62-1.584-.992-1.021-.779-1.43-2.212-2.367-2.962-1.625-1.275-4.033-.85-5.92-1.554-1.41-.542-2.65-1.292-4.013-2.025-.875-.45-2.025-.738-2.73-1.38-3.041-2.8-3.929-7.012-4.379-10.92-.108-.996-.108-2.046-.604-2.98-.254-.495-.541-.704-.658-1.254-.258-1.191-.933-2.404-.933-3.65 0-.725-.017-1.416.179-2.116.533-1.963 1.191-4.496 2.546-6.05 1.366-1.571 2.666-3.004 4.575-3.917a21.978 21.978 0 0 1 3.691-1.354c1.654-.454 3.296-1.1 4.975-1.454a5.543 5.543 0 0 1 1.067-.109c.546.009.946-.237 1.375-.475-1.146 3.455-2.304 8.871-.263 13.1 3.259 6.755 3.288 5.384 5.138 7.688 1.867 2.283 3.008 4.93 3.008 4.93s.696-1.384-.229-3.222c-1.787-3.546-4.43-9.841-4.43-16.141 0-4.525 1.063-8.492 3.988-11.809 1.225-.891 2.5-1.704 3.605-2.737 1.258-1.188 2.22-2.525 4.05-2.804 1.287-.209 2.533-.73 3.82-.959.984-.179 1.963-.187 2.967-.187.804 0 1.6-.009 2.396 0 1.23.016 2.48.325 3.692.533 1.283.217 2.583.463 3.8.942.67.266 1.304.529 2.025.691 1.925.442 3.433 1.755 5.079 2.871.429.3.737.525 1.096.867.362.362.77.77 1.212 1.042.625.395 1.304.587 1.87 1.054 1.184 1.02 2.484 2.2 3.005 3.675.43 1.196.754 2.529 1.483 3.625.263.425.546 1.029.93 1.291.266.171.516.125.816.242.784.308.963 1.192 1.217 1.88.175.52.292.874.325 1.424.087 1.104.3 1.954.967 2.838.733.946 1.429 1.996 1.654 3.196.262 1.408.633 2.929 1.254 4.229.825 1.725 1.887 3.158 2.72 4.829.45.896.36 1.87.65 2.8.284.896.98.837 1.48 1.492.317.42.442 1.041.658 1.533.334.758.709 1.508.938 2.32.308 1.122.646 2.21.95 3.317.404 1.463.87 2.88.87 4.4 0 .792-.266 1.959.221 2.6.209.288.417.388.571.705.271.52.271 1.133.55 1.65.617 1.166 1.121 2.445 1.63 3.695.312.767.72 1.517.65 2.367-.038.496-.184.775-.371 1.154-.025.059-.088.159-.13.238-1.579-.384-3.216-.584-4.879-.4-2.254-3.009-5.666-5.246-8.404-6.692l-6.083 1.292c-.6-2.204-1.354-4.354-1.9-5.438-1.588-3.175-3.159-10.079-3.159-11.433 0-.367.063-1.292.142-2.508.338-5.309.617-10.638.058-12.38-.795-2.491-6.179-6.445-6.791-6.891a.764.764 0 0 0-1.017.12.766.766 0 0 0 .03 1.026c.012.012.916.954 2.666 4.237 1.262 2.37 1.142 4.488.975 7.417-.058 1.1-.133 2.3-.133 3.633 0 3.4-2.092 7.133-3.175 8.842a9.798 9.798 0 0 1-.909-2.7c-.487-2.688-1.7-4.413-1.75-4.488a.759.759 0 0 0-.962-.233.763.763 0 0 0-.38.908c.009.03.859 2.792-.033 9.904-.875 7-9.8 12.896-9.896 12.955-.087.054-.079.179-.141.266-.35.192-.721.371-1.03.604-.562.4-.841.934-1.479 1.2-.554.238-1.629.367-2.141-.05-.384-.32-.421-.945-.563-1.395zm37.113-83.03c.412-1.845 1.912-2.875 2.029-4.537.054-.804.162-1.021.133-1.763-.046-.858.267-2.212.65-2.933.421-.712 1.121-1.296 1.613-1.942.72-.916 1.47-1.391 2.32-2.108.684-.587 1.417-1.133 2.213-1.558 1.55-.804 3.35-1.088 5-1.609 2.113-.658 9.25-.3 11.338 1.038 1.154.75 3.958 2.567 5.504 3.57.958 1.517 3 5.226 3 9.5 0 3.638 1.108 10.338 1.896 14.576.408 2.254 1.52.954 1.52.954s1.234-10.413 1.463-16.463c.217-5.533.437-6.408 1.73-8.116 3.062-1.392 6.132-2.784 9.19-4.167.58-.267 1.126-.587 1.734-.658 1.55-.2 3.23-.496 4.783-.4.875.041 1.771.087 2.621.191.804.105 1.434.334 2.221.588 1.425.479 2.88 1.129 4.138 2.025 1 .72 2.175 1.146 3.108 1.967.796.7 1.12 1.729 1.57 2.675l2.21 4.775s1.812 5.97 1.812 11.02c0 2.475-4.271 10.734-4.271 10.734l-8.159 9.908s-.12 2.963-.662 3.742c-.646.904-4.104 2.8-4.104 3.404 0 1.625 3.546.55 3.546.55s-1.288 9.25-1.634 10.833c-.112.496-.379 1.25-.704 2.059-.104.287-.225.583-.354.866-.158.4-.33.792-.488 1.146-.45 1.03-.82 1.825-.82 1.825l-4.58 19.93c-1.02 5.033-1.845 10.14-3.062 15.137-.083.354-.138.741-.208 1.108-.721.438-1.421.913-2.034 1.47l-6.246-9.574h-13.312l-6.33 8.98c-.6-.605-1.295-1.118-2.02-1.6-.104-.922-.338-1.888-.404-2.68-.088-1.03-.396-1.958-.667-2.97-.237-.93-.387-2-.437-3a18.43 18.43 0 0 1-.021-.83c.008-1.217-.059-2.375-.267-3.575a28.063 28.063 0 0 1-.475-4.717c-.012-1.408-.046-2.925-.325-4.241-.354-1.521-.75-3.034-1.067-4.559-.191-.858-.458-1.737-.533-2.62-.142-1.438-.812-2.821-.812-4.3l-.388-2.53c-.162-1.137-.446-.75-.308-1.904-.854-2.162 5.787 1.713 6.958.775.221-1.154-5.82-4.408-6.383-5.012-.204-.784-.484-1.155-.892-1.775-.479-.7-.72-1.746-.946-2.555-.62-2.333-1.483-4.712-1.816-7.154-.209-1.558-.363-3.129-.613-4.683-.183-1.242-.312-2.496-.492-3.75 2.184 1.275 4.788 2.854 6.071 3.7 1.992 1.33 6.109 5.662 6.146 5.708a.767.767 0 0 0 .838.18.752.752 0 0 0 .475-.705c0-.008.004-1.146.162-2.675 0 0 .08-.054.333-.054 1.134 0 3.905 1.188 6.53 4.375 1.712 2.07 1.904 4.892 2.116 7.87.146 2.06.296 4.188 1.004 6.034.467 1.209.68 4.484.875 7.367.392 5.817.58 7.658 1.88 7.658.191 0 .483-.058.75-.333 1.558-1.6 1.395-14.88 1.241-20.77.384-.634 1.659-2.75 2.434-3.934 1.779-2.742 6.245-4.842 11.062-6.93 4.95-2.154 7.221-7.204 7.742-8.52.8-.367 3.125-1.434 4.833-2.188 2.238-.996 5.763-6.741 6.154-7.391a.756.756 0 0 0-.233-1.025.753.753 0 0 0-1.033.195c-1.263 1.784-2.8 3.43-3.205 3.534-.6-.121-1.595-1.017-2.112-1.617a.764.764 0 0 0-1.004-.133.76.76 0 0 0-.238.987c.009.021 1.063 1.996-.262 2.988-.638.475-1.342.72-2.092.72-.27 0-.496-.033-.654-.066-3.742-6.721-3.78-6.721-4.354-6.721a.774.774 0 0 0-.638.346c-.241.37-.087.72.063 1.054l.137.317c.98 2.191 2.796 6.27.146 10.358-1.12 1.725-4.9 3.767-10.646 5.75-2.787.954-5.25 3.283-6.879 4.82-.429.413-.904.855-1.192 1.08-.287-.325-.75-1.067-1.108-1.637-.654-1.042-1.396-2.221-2.254-3.138-1.27-1.362-2.55-1.725-5.1-2.454-1.375-.396-3.083-.883-5.438-1.7-3.954-1.367-4.545-5.68-4.837-7.75-.146-1.042-.246-1.796-1.046-1.796-.629 0-.896.625-1.108 1.125-1.042 2.43-.571 4.304-.13 5.304a4.618 4.618 0 0 1-.67-.316c-1.434-.805-5.213-3.05-7.4-4.359-3.859-4.012-6.288-9.15-6.288-14.729 0-1.967.063-3.733.463-5.592zM198.429 83.433H185.95s-4.617 0-4.617 4.621v55.638c-3.754-.992-8.325-1.967-13.862-2.842V88.025s0-4.62-4.617-4.62h-20.329v-3.8s0-3.792 3.158-7.167l11.234-11.967s3.158-3.371 7.779-3.371H193.8s4.63 0 4.63 4.613v21.72zm-4.47 105.65s-12.476-11.975-79.196-11.975c-66.721 0-78.78 11.975-78.78 11.975l-1.179-29.179s13.163-11.775 79.959-11.775c66.8 0 80.35 11.775 80.35 11.775l-1.155 29.18zm-12.634 33.05s.238 8.784-7.162 8.784c-7.388 0-6.692-8.783-6.692-8.783v-31.005c5.996 1.021 10.508 2.125 13.854 3.138v27.867zm-45.812 23.58c.462 2.77 1.162 7.679-1.838 8.154-3.008.479-5.087-2.15-5.783-3.767-.688-1.616-3.004-6.466-3.925-13.862-.421-3.342 1.57-36.959 1.57-39.5 0-.871.196-4.5.463-9.063 4.063.092 7.863.238 11.446.417-1.325 10.558-4.238 38.367-4.238 43.983 0 6.238 2.034 11.971 2.305 13.638zm-28.392-9.475c-.925 7.396-3.238 12.246-3.93 13.862-.69 1.617-2.774 4.246-5.778 3.767-3-.475-2.305-5.383-1.842-8.154.27-1.667 2.308-7.4 2.308-13.638 0-5.633-2.933-33.612-4.258-44.087 3.583-.163 7.417-.275 11.458-.35.267 4.579.463 8.229.463 9.1 0 2.541 1.996 36.158 1.579 39.5zm-51.758-5.321c-7.396 0-7.163-8.783-7.163-8.783v-27.93c3.358-1.02 7.88-2.12 13.854-3.129v31.059s.696 8.783-6.691 8.783zM31.1 61.713c0-4.613 4.625-4.613 4.625-4.613h29.108c4.617 0 7.78 3.37 7.78 3.37l11.233 11.968c3.158 3.375 3.158 7.166 3.158 7.166v3.8H66.675c-4.62 0-4.62 4.621-4.62 4.621v52.77c-5.534.868-10.105 1.834-13.863 2.826V88.054c0-4.62-4.613-4.62-4.613-4.62H31.1V61.712zm66.996-25.98c9.692-3.879 15.308-1.45 17.446-.07 2.133-1.38 7.754-3.809 17.446.07 9.97 3.992 14.65 10.85 13.029 19.396-1.167 6.2-11.192 17.571-17.888 24.704 7.525 5.763 19.83 14.705 20.096 18.263.688 9.475-1.325 20.796-2.079 26.562-.22 1.688-.938 6.95-1.863 13.721-4.691-.312-9.783-.55-15.304-.7.53-8.608.992-16.02.992-16.02s.458-8.542 0-11.55c-.463-3-5.77-8.309-5.77-8.309s-3.063-3.133-6.534-6.7c3.412-2.492 8.054-6.25 8.608-8.7 1.43-6.275-1.32-7.292-1.637-7.387a.94.94 0 0 0-.98.279.943.943 0 0 0-.158 1.004l.138.262c.087.488.02 1.888-.255 2.834-.75 2.483-2.237 4.154-6.079 4.083-.337 0-1.296-.208-1.808-.296-.442-.012-.904.304-1.013.742-.308 1.225 2.163 2.454 2.275 2.508.134.071.263.13.392.171l-2.17 2.9c-4.072 4.183-8.092 8.3-8.092 8.3s-5.313 5.308-5.775 8.308c-.463 3.009 0 11.55 0 11.55s.458 7.38.987 15.963a421.04 421.04 0 0 0-15.32.625c-.913-6.708-1.617-11.913-1.842-13.588-.755-5.766-2.771-17.087-2.08-26.562.263-3.558 12.567-12.5 20.096-18.263C96.258 72.7 86.234 61.33 85.063 55.13c-1.617-8.546 3.062-15.404 13.033-19.396zM256.226 2.03H0v378.834a875.782 875.782 0 0 0 3.73 11.058l252.495-171 252.505 171c1.241-3.629 2.483-7.292 3.729-11.058V2.029H256.225z"/><path d="M113.33 67.367c-3.5 2.812-7.513 6.454-7.98 8.8-1.387 6.946 4.554 8.762 4.63 8.762l.69.371a.94.94 0 0 0 .45.117h.03c.42.012.954-.4.954-.917a.92.92 0 0 0-.337-.696c-.467-.712-2.142-3.566-1.204-6.008.97-2.538 3.537-2.92 4.983-2.92 1.562 0 2.625.432 2.796.6.208.262.541.6 1.05.6.437 0 .896-.38.987-.788.217-1.009-1.096-3.192-3.654-4.33-.57-.254-1.367-.383-2.425-.362l1.57-1.67c4.084-3.363 8.238-6.755 9.497-8.247 3.7-4.387 5.312-12.012 2.77-15.47-2.045-2.8-6.237-5.78-8.541-6.934-.942-.47-2.87-1.13-4.054-1.52-1.188.39-3.113 1.05-4.054 1.52-2.3 1.154-6.496 4.133-8.542 6.933-2.546 3.459-.93 11.084 2.775 15.471 1.062 1.259 4.204 3.88 7.608 6.688zm-4.884 84.483l2.775 7.196-7.192-2.78v12.45l7.192-2.778-2.767 7.2h12.442l-2.775-7.192 7.192 2.77v-12.45l-7.192 2.78 2.775-7.196h-12.45zm153.342 216.188s0-2.734 2.679-3.271c0 0 13.55-8.213 40.917-8.213 27.362 0 50.02 12.509 50.02 12.509s2.388 1.316 2.388 4.046V521.07s0 2.734-2.683 2.204c0 0-27.313-11.912-55.217-10.987-27.896.92-35.796 5.908-35.796 5.908s-2.308 1.467-2.308-1.266V368.038zM364.442 532.47c3.046-1.658 3.046-4.416 3.046-4.416v-146.02c.391.112.687.291.687.291l12.159 7.58c2.337 1.462 2.337 4.22 2.337 4.22l-.012 156.609c0 2.758-2.5 3.929-2.5 3.929l-10.709-.592s-13.637-16.3-66.046-16.3c-23.237 0-35.625 12.409-35.625 12.409h-23.103s-12.392-12.409-35.63-12.409c-52.413 0-66.042 16.3-66.042 16.3l-10.708.592s-2.492-1.17-2.492-3.93l-.029-156.608s0-2.758 2.346-4.22l12.162-7.58s.305-.179.688-.291v146.02s0 2.759 3.037 4.417c3.042 1.654 6.167.554 6.167.554s38.575-17.12 66.192-11.883c22.137 4.208 32.583 9.296 35.867 11.142 3.275-1.846 13.716-6.934 35.854-11.142 27.616-5.237 66.191 11.883 66.191 11.883s3.134 1.1 6.163-.554zm-209.78-159.36c0-2.73 2.388-4.046 2.388-4.046s22.65-12.509 50.025-12.509c27.359 0 40.909 8.213 40.909 8.213 2.687.537 2.687 3.27 2.687 3.27V516.93c0 2.733-2.317 1.266-2.317 1.266s-7.895-4.987-35.795-5.908c-27.905-.925-55.221 10.987-55.221 10.987-2.675.53-2.675-2.204-2.675-2.204V373.11zM13.009 417.825C80.025 597.334 142.78 591.221 256.221 658.334c113.446-67.113 176.221-61 243.225-240.509L256.554 254.03 13.008 417.825zM696.134 59.738l2.087.191c13.884 1.259 14.784 3.171 15.555 9.134.983 5.425 1.366 13.616 1.366 29.212v15c0 24.08-4.016 51.717-35.316 51.717-23.696 0-35.713-15.15-35.713-45.034V77.321c0-16.7 1.058-16.754 14.025-17.388l2.183-.104v-6.65h-52.42v6.538l2.07.208c13.68 1.375 13.942 1.4 13.942 17.396v47.154c0 21.233 5.842 35.204 18.363 43.954 7.691 5.517 18.825 8.554 31.35 8.554 14.841 0 27.7-4.525 36.216-12.758 10.446-10.275 14.9-24.537 14.9-47.7V98.458c0-15.675.567-23.779.988-28.508.629-6.775 2.483-8.787 14.346-10.025l2.058-.217V53.18h-46v6.559zm141.863.054l2.145.141c13.655.888 15.675 2.896 16.475 10.43.688 5.954.98 14.52.98 28.637v43.825L775.684 53.18h-30.53v6.571l2.1.18c9.826.845 11.488 2.183 15.705 6.645 3.042 3.363 3.612 4.433 3.612 18.158v41.546c0 16.234-.7 24.725-1.12 29.8l-.071.867c-.809 8.358-3.284 10.23-14.704 11.125l-2.121.167v6.583h46.816v-6.575l-2.108-.175c-12.85-1.054-15.079-2.617-15.917-11.183-.795-6.492-1.183-16.505-1.183-30.609V82.538l83.825 93.683.688.762h6.52v-77.8c0-15.8.38-23.32.792-29.066.654-7.696 2.8-9.317 13.5-10.188l2.113-.17v-6.58h-45.604v6.613zm49.025-.009l2.141.146c14.5 1.009 15.063 1.604 15.063 15.954v76.225c0 14.355-.563 14.95-15.063 15.963l-2.141.146v6.604h54.82v-6.604l-2.141-.146c-14.709-1.013-15.28-1.608-15.28-15.963V75.883c0-14.35.571-14.945 15.276-15.95l2.145-.145v-6.609h-54.82v6.604zm192.062-6.603h-45.804v6.487l2.012.254c5.867.737 11.688 1.6 12.742 3.317.746 1.212-.241 4.425-1.425 7.729-8.47 24.112-22.596 57.45-30.312 75-13.488-31.584-27.292-65.2-31.988-77.925-.704-1.896-1.57-4.53-.996-5.45.988-1.604 7.792-2.35 10.696-2.671l2.046-.221v-6.52h-50.804v6.587l2.125.162c10.612.809 12.204 1.496 18.458 16.659 12.842 30.529 26.875 64.929 40.588 99.483l.575 1.45h6.329l.57-1.454c15.45-39.042 36.313-85.588 42.18-98.159 7.125-15.891 8.937-16.67 20.958-17.987l2.05-.221v-6.52zm93.421 91.366c-2.842 6.87-5.917 12.504-8.592 15.78-3.604 4.012-6.358 6.103-25.095 6.103-9.217 0-15.875 0-19.125-2.316-2.15-1.455-3.388-3.942-3.388-12.359V116.65h17.913c16.695 0 17 1.675 18.95 12.57l.341 1.888h6.604V93.813h-6.579l-.358 1.862c-2.038 10.517-2.304 11.87-19.363 11.87h-17.508V64.864c0-.65 0-2.625.196-2.98.18-.12.875-.325 3.504-.325h13.413c15.591 0 20.445 1.013 23.65 4.963 2.466 2.917 4.291 7.142 5.925 13.708l.525 2.109 6.995-1.338-.2-2.083c-.583-5.984-1.387-17.459-1.387-23.442V53.18h-88.833v6.542l2.075.204c13.675 1.375 13.937 1.4 13.937 17.046v75.137c0 14.175-.63 14.771-16.883 15.963l-2.134.154v6.596h95.238l.5-1.625c2.025-6.613 5.675-20.88 6.854-26.78l.45-2.266-6.904-1.337-.72 1.733zm45.833-75.892c0-5.896.675-6.279.967-6.446.621-.32 3.975-1.016 9.95-1.016 16.23 0 25.917 9.879 25.917 26.429 0 9.97-3.2 16.958-10.034 21.967-4.616 3.245-10.17 4.454-20.483 4.454h-6.317V68.654zm67.2 92.359c-5.129-5.442-10.637-12.055-16.837-20.217-5.504-7.283-12.792-17.696-16.73-24.23 16.505-7.12 25.205-18.087 25.205-31.833 0-10.666-4.717-19.508-13.275-24.883-7.475-4.737-16.992-6.67-32.842-6.67h-49.112v6.57l2.1.18c13.566 1.162 14.096 1.208 14.096 15.228v76.95c0 14.355-.555 14.95-14.867 15.963l-2.138.15v6.6h54.013v-6.6l-2.138-.15c-13.991-1-14.675-1.746-14.675-15.963v-30.212h2.713c9.3 0 11.746 2.17 15.13 7.158 2.353 3.317 4.807 6.95 7.337 10.684 4.395 6.491 8.933 13.204 13.525 19.195 9.225 11.984 18.041 16.263 34.783 16.955 1.725.195 3.596.195 5.246.195h1.875l1.237-6.008-2.175-.512c-3.987-.938-6.866-2.45-12.47-8.55zm60.426-56.309l-1.434-.716c-16.97-8.53-24.541-14.321-24.541-26.117 0-11.554 8.045-19.017 20.5-19.017 12.687 0 20.829 7.121 25.629 22.417l.625 1.987 6.787-1.42-.829-5.092c-1.375-8.4-2.37-14.471-2.908-20.23l-.154-1.645-1.609-.38c-.929-.212-1.916-.47-2.979-.741-5.087-1.308-12.054-3.104-21.75-3.104-27.512 0-41.912 16.967-41.912 33.72 0 20.172 19.262 30.155 30.77 36.126l2.863 1.496c14.737 7.825 24.392 13.85 24.392 25.791 0 12.842-8.546 20.825-22.3 20.825-24.517 0-31.296-25.5-31.988-28.404l-.587-2.475-6.675 2.317.133 1.766c.346 4.542 3.3 24.375 5.037 27.925l.363.742.75.342c2.287 1.041 5.579 2.191 10.792 3.762l.875.213c4.37 1.083 10.35 2.558 18.291 2.558 25.604 0 44.909-15.2 44.909-35.358 0-20.859-17.559-29.588-33.05-37.288zm38.262-44.921l2.142.146c14.504 1.009 15.066 1.604 15.066 15.954v76.225c0 14.355-.562 14.95-15.066 15.963l-2.142.146v6.604h54.821v-6.604l-2.142-.146c-14.704-1.013-15.275-1.608-15.275-15.963V75.883c0-14.35.571-14.945 15.271-15.95l2.146-.145v-6.609h-54.82v6.604zm247.896-6.603v6.545l2.08.2c3.558.35 10.966 1.075 11.841 2.654.625 1.13-1.404 5.163-2.063 6.475-5.262 10.325-16.295 28.963-23.545 41.025l-2.163-3.616c-7.558-12.634-16.125-26.95-23.867-40.934-1.275-2.216-1.316-2.837-1.279-3 .159-.312 1.354-1.429 10-2.612l1.988-.271v-6.467h-48.392a102.75 102.75 0 0 1-.03-2.225v-2.296h-5.557l-.684.788c-2.529 2.892-3.916 3.733-8.262 3.733h-79.042c-5.233 0-7.13-.466-8.808-3.375l-.667-1.146h-5.508l-.1 2.192c-.492 10.838-1.363 22.038-2.392 30.72l-.3 2.568h7.146l.45-1.713c1.875-7.092 3.591-11.762 5.6-15.192 2.133-3.858 5.292-5.675 24.992-5.675h8.304v90.913c0 12.625-.446 14.742-16.234 15.596l-2.179.116v6.638h57.625v-6.642l-2.179-.112c-16.825-.867-16.825-3.117-16.825-15.596V61.558h11.308c17.121 0 20.1 1.792 22.396 5.505 1.496 2.691 3.488 6.85 5.592 15.166l.496 1.975 7.07-.916-.262-2.259c-.775-6.504-1.396-14.337-1.725-21.146l1.138.05c10.395.484 10.9 1.305 19.358 14.992 9.883 15.896 17.787 29.217 24.183 40.754 3.063 5.367 3.496 6.967 3.496 10.059v26.195c0 14.521-.587 15.125-15.68 16.134l-2.14.146v6.608h56.624v-6.617l-2.154-.137c-15.842-1.013-16.454-1.613-16.454-16.134V125.55c0-4.746.146-6.504 3.287-11.85 9.196-15.892 16.3-27.475 27.471-43.146l.596-.82c5.171-7.092 6.104-8.367 18.225-9.813l2.025-.242v-6.5h-44.8zM641.6 284.871c-1.104.37-1.983.492-3.479.492-5.966 0-9.67-4.917-9.67-12.838 0-18.158 9.383-27.15 13.991-28.683 1.304-.504 2.484-.704 4.217-.704h.137c5.35 0 8.746 4.883 8.859 12.733.146 14.813-7.125 26.946-14.054 29zm26.963-29.583c0-11.163-6.937-18.1-18.25-18.1-3.48 0-8.77 1.396-13.446 3.541-10.679 4.613-21.454 16.413-21.454 32.367 0 11.554 6.717 18.45 17.967 18.45 6.3 0 13.758-2.675 20.483-7.35 8.93-6.383 14.7-17.73 14.7-28.908z"/><path d="M714.817 205.1c-5.854 0-14.062 3.971-19.937 9.63-5.35 4.895-9.2 12.7-12.088 24.508h-7.296l-4.82 3.17.541 2.784h10.267a4421.92 4421.92 0 0 0-4.45 21.479l-3.183 15.496c-3.417 16.58-6.342 25.858-8.959 28.38-1.266 1.262-3.366 2.107-5.229 2.107-2.267 0-6.408-1.17-8.15-2.633-1.1-.912-2.292-.97-3.696-.13-1.97 1.18-4.091 3.393-4.091 5.46 0 3.49 4.9 5.653 9.437 5.653 4.813 0 10.692-2.654 15.738-7.104 9.075-8.125 12.591-15.2 17.1-34.4 3.541-14.375 5.02-21.741 7.475-33.946l.045-.229 12.388-1.091 5.933-4.996h-16.946c3.925-19.096 7.655-26.925 12.75-26.925 2.571 0 5 1.191 7.188 3.512 1.18 1.334 3.033 1.604 4.687.604 1.013-.645 3.642-2.875 3.638-5.333.08-1.012-.396-2.125-1.325-3.13-1.283-1.387-3.8-2.866-7.017-2.866zm71.675 58.654c-4.383 0-8.383-.533-10.741-1.112v-36.6c0-4.313.375-6.388 1.4-7.042.512-.416 3.254-1.275 8.445-1.275 16.021 0 25.205 8.121 25.205 22.288 0 21.429-17 23.741-24.309 23.741zm31.088-45.483c-6.4-4.004-16.33-6.033-29.517-6.033h-42.525v4.375l1.338.091c11.779.83 12.237 1.317 12.237 13.109v61.858c0 11.533-.612 12.15-13.13 13.125l-1.324.1v4.517h46.608v-4.525l-1.333-.092c-13.52-.975-14.183-1.575-14.183-12.83v-23.82l11.183 2.533c1.683.305 4.992.305 7.28.013 16.995-1.792 35.157-10.833 35.157-30.821 0-9.242-4.075-16.708-11.791-21.6zm60.787 24.375c-8.141 0-15.475 7.817-19.379 12.9v-13.98l-1.946.734c-8.141 3.084-15.008 4.846-22.958 5.892l-1.25.167v3.837l1.267.154c9.141 1.092 9.316 1.284 9.316 10.071v31.875c0 9.083-.566 9.67-10.15 10.5l-1.312.113v4.504H873.1v-4.53l-1.342-.087c-12.77-.842-12.77-1.57-12.77-10.5V265.13c3.924-6.737 7.937-10.295 11.616-10.295 2.412 0 4.033.7 6.67 2.879 1.338 1.096 3.172 1.312 5.772.32 3.766-1.824 5.929-4.466 5.929-7.254 0-3.845-4.359-8.133-10.609-8.133zm31.917-14.304c4.78 0 8.663-3.383 8.663-7.542 0-4.233-3.73-7.546-8.663-7.546-4.683 0-8.492 3.446-8.492 7.688 0 3.942 3.967 7.4 8.492 7.4zm8.663 65.954v-52.575l-1.938.725c-6.696 2.508-14.312 4.396-22.637 5.608l-1.23.18v4.05l1.196.204c8.788 1.5 9.042 1.779 9.042 9.933v31.875c0 9.083-.592 9.67-10.5 10.5l-1.321.108v4.509h39.392V304.9l-1.321-.104c-10.183-.82-10.683-1.312-10.683-10.5zm90.833-.15V265.33c0-14.204-8.646-22.683-23.13-22.683-5.258 0-9.05 1.733-14.253 4.383-3.792 2.009-7.413 4.125-10.238 5.842v-11.317l-1.95.75c-6.758 2.6-13.9 4.475-22.475 5.896l-1.2.2v3.842l1.146.233c8.567 1.771 8.9 1.838 8.9 10.092v31.58c0 9.224-.646 9.824-11.538 10.65l-1.329.1v4.516h39.554v-4.5l-1.308-.117c-9.25-.812-9.8-1.4-9.8-10.5v-35.07c4.62-3.255 11.45-6.572 17.433-6.572 9.975 0 14.621 4.95 14.621 15.584v24.458c0 10.896-.933 11.283-11.029 12.1l-1.32.104v4.513h38.153v-4.496l-1.3-.12c-8.604-.797-8.937-1.197-8.937-10.65zm69.438-2.121c-7.83 6.446-13.225 7.671-20.438 7.671-9.88 0-25.554-7.196-25.554-26.504 0-13.78 7.637-22 20.433-22 6.392 0 11.909 1.804 16.43 5.396 2.008 1.508 2.854 2.037 4.379 2.037 2.391 0 6.208-2.996 6.208-6.541 0-1.95-.963-3.513-3.242-5.234-2.9-2.091-8.812-4.204-15.658-4.204-6.488 0-16.933 2.546-25.646 8.233-12.02 7.763-18.117 17.721-18.117 29.588 0 14.875 12.309 30.687 35.121 30.687 9.6 0 20.617-5.779 29.454-15.458l.875-.95-3.175-3.604-1.07.883zm53.942-27.695c-9.788.279-19.017.295-28.697.295 2.546-10.512 10.046-15.316 16.225-15.316h.167c4.367 0 8.013 1.366 10.546 3.958 2.454 2.508 3.808 6.15 3.712 10.025 0 .437 0 1.033-1.954 1.037zm18.583-.163c0-10.18-10.655-21.521-26.13-21.521-8.525 0-18.166 4.054-25.816 10.85-7.7 6.967-11.771 15.892-11.771 25.808 0 15.342 10.883 31.85 34.77 31.85 5.217 0 17.8-3.145 28.076-15.045l.862-.996-3.22-3.325-1.017.791c-5.938 4.63-12.109 6.975-18.354 6.975-7.113 0-13.813-2.662-18.384-7.304-4.879-4.958-7.404-11.925-7.512-20.72 20.746-.596 40.846-1.859 43.654-2.321 3.07-.634 4.842-1.659 4.842-5.042zm113.662 21.383c-1.812 3.98-4.62 9.446-7.654 12.825-3.58 3.625-6.625 5.1-22.604 5.1-8.254 0-14.225 0-17.246-1.962-2.02-1.25-3.188-3.334-3.188-10.275v-28.692h16.371c15.242 0 15.554 1.604 17.3 10.483l.23 1.163h4.729v-29.213h-4.717l-.238 1.142c-1.783 8.4-2.104 9.913-17.658 9.913h-16.017v-34.796c0-3.08 0-3.08 3.859-3.08h11.808c13.996 0 18.383.859 21.35 4.196 2.225 2.409 3.859 5.859 5.296 11.192l.342 1.27 5.1-.903-.142-1.334c-.52-4.87-1.233-14.154-1.233-18.908v-1.433h-77.125v4.479l1.304.12c12.083 1.113 12.808 1.18 12.808 14.147v60.541c0 11.384-.358 12.271-15.425 13.271l-1.342.088v4.529h82.9l.33-.975c1.737-5.117 4.954-16.596 6.041-21.546l.317-1.458-5.037-.9-.459 1.016zm63.188 10.73c-3.654 2.27-9.55 4.437-15.159 4.437-11.462 0-23.062-8.654-23.062-25.192 0-20.816 13.62-26.366 21.662-26.366 7.105 0 13.109 2.512 16.559 6.908v40.212zm15.554-3.296v-91.867l-1.846.554c-5.95 1.775-16.837 4.15-25.304 5.037l-1.288.138v3.946l1.35.083c11.534.7 11.534 1.38 11.534 9.634v23.166c-3.95-.912-7.846-1.029-10.567-1.029-24.387 0-44.987 16.85-44.987 36.8 0 21.63 19.483 31.708 32.65 31.708 3.425 0 8.191-1.525 14.587-4.662l8.317-4.192v9.409l1.887-.63c6.1-2.029 14.5-3.825 24.967-5.329l1.233-.179v-3.975l-6.57-.717c-5.63-.633-5.963-1.075-5.963-7.895z"/><path d="M1466.735 248.859v-4.463h-32.159v4.433l1.238.171c5.07.709 9.016 1.359 9.916 2.738.592.908.225 2.791-.5 5.325-2.925 9.887-6.608 19.941-10.166 29.666l-1.146 3.13c-7.821-16.325-14.309-30.18-20.221-43.871l-.375-.867h-4.363l-.37.88c-6.446 15.283-12.617 29.395-18.588 43.037-5.37-12.625-9.57-23.146-13.137-32.938-.746-1.975-1.43-3.962-.967-4.737.717-1.192 5.008-1.842 8.983-2.359l1.246-.162v-4.446h-37.267v4.475l1.288.138c7.537.804 8.154 1.279 10.992 8.425 7.262 17.816 14.308 35.258 20.795 52.783l.346.937h4.784l.37-.883c5.113-12.246 10.18-23.333 15.546-35.07 1.196-2.617 2.404-5.255 3.617-7.93 2.012 4.192 4.004 8.275 5.962 12.292 5.171 10.6 10.05 20.608 14.388 30.72l.37.871h4.734l4.23-10.575c6.612-16.554 13.453-33.679 17.266-41.937 3.267-7.2 3.946-8.7 11.917-9.638l1.27-.145zm36.987 47.812c-3.467 2.73-8.496 4.196-11.637 4.196-4.755 0-11.442-3.213-11.442-10.363 0-4.258 2.492-6.762 9.533-9.579 1.417-.587 3.421-1.366 5.559-2.2 2.729-1.062 5.729-2.229 7.987-3.183v21.13zm25.346 2.375c-1.433.917-3.13 1.38-5.046 1.38-3.12 0-4.912-2.5-4.912-6.86v-27.803c0-9.2-2.496-14.942-8.409-19.242-3.737-2.462-8.666-3.846-14.096-3.85-8.775 1.625-20.412 6.958-25.875 10.22-2.85 1.693-5.637 3.572-5.637 6.326 0 3.858 4.45 6.962 8.133 6.962 2.946 0 4.721-1.337 5.58-4.158 1.579-4.62 3.091-7.396 4.941-9.05 1.538-1.52 3.875-2.354 6.58-2.354 8.637 0 13.395 5.742 13.395 16.17v2.817c-4.812 2.713-16.03 6.08-25.42 8.75-9.872 2.88-14.272 7.438-14.272 14.78 0 8.704 8.725 18.02 21.717 18.02 3.675 0 10.696-3.975 18.82-8.783.818 2.063 1.905 4.046 3.668 5.504 2.145 1.93 6.1 3.28 9.612 3.28h.38l14.578-8.284-2.412-4.67-1.325.845zm62-48.266c0-3.846-4.363-8.134-10.617-8.134-8.12 0-15.458 7.813-19.37 12.892v-13.971l-1.946.733c-8.138 3.084-15.005 4.846-22.95 5.892l-1.25.167v3.837l1.266.154c9.13 1.092 9.304 1.28 9.304 10.071v31.875c0 9.083-.566 9.67-10.154 10.5l-1.316.113v4.504h41.154v-4.53l-1.342-.087c-12.767-.842-12.767-1.57-12.767-10.5V265.13c3.925-6.737 7.938-10.295 11.613-10.295 2.417 0 4.037.7 6.68 2.883 1.34 1.092 3.17 1.304 5.766.317 3.766-1.825 5.929-4.471 5.929-7.255z"/><path d="M1640.572 296.28c-3.65 2.27-9.546 4.437-15.146 4.437-11.466 0-23.075-8.654-23.075-25.192 0-20.816 13.621-26.366 21.663-26.366 7.104 0 13.108 2.512 16.558 6.908v40.212zm21.53 4.6c-5.63-.634-5.963-1.076-5.963-7.896v-91.867l-1.846.554c-5.958 1.775-16.854 4.146-25.313 5.037l-1.287.138v3.946l1.346.083c11.533.7 11.533 1.38 11.533 9.634v23.166c-3.946-.912-7.837-1.029-10.558-1.029-24.396 0-45.004 16.85-45.004 36.8 0 21.63 19.487 31.708 32.654 31.708 3.433 0 8.2-1.525 14.579-4.662l8.33-4.192v9.409l1.89-.63c6.1-2.029 14.5-3.825 24.976-5.329l1.233-.179v-3.975l-6.57-.717zM615.659 356.684l1.591.116c25.58 1.938 27.646 4.325 27.646 31.88v140.358c0 27.57-2.066 29.954-27.641 31.875l-1.596.12v7.313h88.775v-7.312l-1.596-.121c-25.88-1.92-27.97-4.3-27.97-31.875V388.679c0-27.558 2.09-29.945 27.97-31.879l1.596-.116v-7.313h-88.775v7.313zm179.371 87.337l-2.43-1.312c-25.954-14.138-42.966-25.284-42.966-50.359 0-17.312 9.7-37.529 37.042-37.529 22.612 0 37.104 13.663 45.604 42.996l.45 1.558 7.575-1.712-.783-5.146c-2.492-16.325-4.288-28.117-5.234-39.238l-.104-1.22-1.188-.3c-1.57-.4-3.241-.867-5.033-1.375-8.55-2.388-20.254-5.663-36.52-5.663-45.33 0-69.047 29.983-69.047 59.604 0 35.584 30.75 52.846 51.1 64.267 1.705.958 3.33 1.867 4.846 2.742 25.767 14.846 42.654 26.325 42.654 49.729 0 25.2-15.366 40.85-40.1 40.85-32.845 0-50.937-29.196-56.445-54.196l-.43-1.942-7.487 2.813.092 1.28c.629 8.97 5.725 44.707 8.308 50.478l.254.567.563.28c3.85 1.878 9.37 3.957 17.991 6.766l1.467.391c7.308 1.959 17.312 4.646 30.592 4.646 48.154 0 74.137-32.246 74.137-62.587 0-36.821-29.175-52.53-54.908-66.388zm222.775 73.854l.508-1.779-8.1-1.7-.475 1.488c-4.291 13.525-9.629 23.991-16.304 31.979-6.592 7.612-16.187 10.058-39.5 10.058-15.38 0-26.117-.687-32.058-4.058-4.913-3.1-6.334-9.413-6.334-28.146V388.35c0-28.625 2.146-29.629 25.275-31.55l1.58-.129v-7.3h-84.013v7.304l1.588.125c24.645 1.942 25.608 3.121 25.608 31.55v140.034c0 28.175-2.071 30.608-27.65 32.529l-1.592.12v7.313h149.204l.363-1.237c1.9-6.504 4.658-18.542 7.092-29.159 1.933-8.441 3.762-16.416 4.808-20.075zm123.392-46.758h-58.663l5.1-13.517c8.259-21.908 16.78-44.533 25.642-66.57l27.92 80.087zm52.32 56.317c-23.229-62.359-45.312-123.892-65.941-181.575l-.588-1.63-7.791 2.846-72.021 179.667c-11.613 29.4-16.284 32.325-34.954 34.175l-1.55.15v7.28h71.1v-7.288l-1.567-.146c-12.183-1.092-19.725-2.483-22.25-6.35-2.354-3.604-.854-10.188 2.32-19.654l1.955-5.875c4.363-13.138 9.3-28 15.625-45.504h67.292l4.854 13.216c7.342 19.984 13.146 35.767 16.462 47.109 1.692 5.366 1.846 8.712.5 10.85-2.083 3.295-8.479 4.779-18.825 6.22l-1.479.209v7.212h82.996v-7.279l-1.554-.15c-19.504-1.904-23.833-4.554-34.583-33.483zm321.005-146.063c0-16.446 1.713-18.558 3.946-19.662 3.35-1.171 9.987-2.567 22.554-2.567 23.088 0 41.792 3.95 55.604 11.754 27.7 15.1 42.959 45.163 42.959 84.642 0 49.175-24.292 101.72-92.446 101.72-21.15 0-32.617-4.812-32.617-30.208V381.371zm130.696-3.57c-19.888-19.13-50.967-28.43-95.013-28.43h-164.908v7.317l1.6.112c23.125 1.646 28.458 5.45 30.025 21.43 1.187 11.087 1.696 26.945 1.696 53.025v86.883l-141.78-168.154-.516-.613h-48.75v7.28l1.558.15c17.404 1.641 20.604 4.445 28.063 13.033 5.804 6.925 6.733 9.879 6.733 35.154v76.492c0 30.27-1.196 45.966-1.908 55.345l-.104 1.371c-1.596 17.759-7.821 21.104-26.996 22.717l-1.575.137v7.296h75.17v-7.291l-1.566-.142c-21.738-1.93-27.425-4.8-29.038-22.758-1.362-12-2.029-30.542-2.029-56.675v-86.838l146.196 177.075.517.625h7.97V431.6c0-29.137.655-43.062 1.355-53.758 1.283-16.333 7.058-19.446 24.958-21.042l1.567-.141v-.142c23.567 1.883 25.787 3.096 25.787 32.162v140.359c0 27.575-2.166 29.958-29 31.875l-1.596.117v7.316h78.221c42.155 0 77.192-9.783 101.325-28.296 26.909-20.55 41.13-51.5 41.13-89.5 0-29.7-10.063-54.862-29.092-72.75z"/></g></svg>