<svg width="94" height="118" xmlns="http://www.w3.org/2000/svg"><g fill="#FFF" fill-rule="evenodd"><path d="M90.218 18.043c-.012.047-.04.107-.064.16 0 .003-.004 0-.006.003 0 .002-.182.226-.395.122a2.074 2.074 0 0 1-.192-.11c-.1-.092-.207-.16-.335-.233a1.291 1.291 0 0 0-.41-.204.693.693 0 0 0-.192-.045c-.072 0-.14.056-.146.128-.01.137.141.16.251.177v-.002c.056.021.124.05.2.093l.274.17c.06.043.122.087.185.13.11.102.2.235.282.414.037.083.056.161.076.238.004.045.013.089.013.135 0 .348.04.831-.207 1.098-.057.063-.082.07-.121.15-.06.117-.115.226-.199.328a3 3 0 0 1-.389.376c-.209.174-.386.318-.635.365-.165.033-.325.038-.487.045-.24-.132-.273-.3-.325-.62a5.265 5.265 0 0 0-.033-.198c-.093-.513-.209-.513-.27-.513a.15.15 0 0 0-.117.059c-.034.045-.067.09.065.478.137.395-.064 1.06-.15 1.307-.17.22-.363.423-.558.628-.293.183-.56.372-.892.473-.18.055-.359.143-.544.191-.146.034-.297.062-.391.186-.068.093-.235.13-.156.38 0 .06.219.19.22.25.01.308-.707.06-.853 0-.146-.057-.234-.068-.384-.125a2.498 2.498 0 0 1-.553-.285c-.132-.095-.237-.257-.345-.375a2.425 2.425 0 0 0-.222-.206c-.33-.381-.718-.884-.944-1.36-.455-.954-.351-1.782-.234-1.884.227-.193.332-.606.342-.653a.134.134 0 0 0-.062-.146.143.143 0 0 0-.162.01c-.02.016-.507.41-.602.804-.074.307-.161.413-.151.426-.203-.084-.47-.907-.47-1.167a3.48 3.48 0 0 0-.03-.32c-.05-.405-.135-1.085.035-1.411.32-.62.874-1.072 1.176-1.286.155-.111.305-.243.256-.392-.023-.068-.091-.148-.294-.148a.643.643 0 0 0-.056.002.152.152 0 0 0-.075.028c-.339.263-.72.545-.907.669-.07-.224-.172-.687-.118-.883.197-.697.18-.72.133-.78a.144.144 0 0 0-.113-.054c-.07 0-.177 0-.366.772-.131.529-.132 1.35-.132 1.38-.015.387-.093 1.07-.23 1.26-.172.232-.085.768.036 1.393.034.172.065.334.065.392-.02.243-1.146 2.527-1.35 2.872a.594.594 0 0 0-.075.175l-1.244-.28c-.509.25-1.143.64-1.565 1.173a2.681 2.681 0 0 0-.982.07 1.66 1.66 0 0 1 .099-.404c.068-.17.092-.342.144-.515.04-.141.073-.277.14-.405.096-.181.316-.338.4-.53.088-.198-.016-.447.07-.647l.62-1.402c.09-.2.183-.383.249-.592.065-.204.153-.4.257-.59.09-.166.236-.295.336-.455.08-.127.186-.325.234-.466.024-.072.019-.166.041-.242.032-.106.09-.209.146-.304.253-.418.692-.673.976-1.063.09-.121.148-.266.252-.374.052-.056.121-.076.177-.123.057-.05.07-.116.114-.182.09-.128.125-.265.16-.415.052-.212.177-.368.278-.539.14-.25.313-.464.554-.632.126-.088.239-.203.385-.256.16-.059.27-.163.422-.25.138-.078.253-.185.38-.273.122-.086.278-.125.43-.16.29-.065.591-.058.885-.094.086-.011.16-.052.25-.06.087-.008.181 0 .269 0 .35 0 .69.006 1.033.043.316.036.667.129.925.307.133.088.242.202.41.256.13.042.258.126.38.189.117.06.156.142.226.26.063.1.157.178.247.263l.03.03c.27.512.726 1.49.664 2.157-.084.93-.597 2.348-.854 2.627-.256.28-.377.59.299.167.769-.483 1.45-2.71 1.45-3.043 0-.219.188-.376.408-.475.04.008.077.017.144.013.385-.023.801.002 1.134.215.265.167.557.296.794.49.288.242.582.766.606 1.138.011.165.003.355-.04.506zM78.19 22.979c.066-.07.16-.188.306-.391l.038-.053c.953-1.332 1.277-1.531 1.385-1.531.28 0 .507.44.545.668.034.204.178.32.306.422a.786.786 0 0 1 .182.178l.026.043c.129.204.393.623.37.903-.003.048-.003.048-.185.222-.13.118-.17.167-.265.29-.134.172-.36.42-.419.618a3.04 3.04 0 0 1-.43.68 3.129 3.129 0 0 0-.52-.203 3.83 3.83 0 0 0-.72-1.706l-.619-.14zm1.024 11.232h-.693c-1.17-.948-4.038-1.9-8.126-1.9-4.088 0-6.885.952-8.056 1.9h-.673l-3.754-7.072 1.401-.62.226 1.636.859-1.238 1.086 2.23-1.491-.02s.813 1.415 2.757 1.149a2.22 2.22 0 0 0 1.34-.657c-.056.02-.588.195-.932-.182-.361-.398.18-.84.18-.84s.047.31.42.353c.372.044.394-.493.394-.493s-.272-.09-.315-.302c-.034-.155.275-.39.275-.39s-.457-1.036-1.135-.76c-.69.282-.046.972-.046.972s-.903-.131-1.293-.484c-.391-.354-.29-1.151.66-1.328.95-.176 1.628.531 1.628.531s-.407-.75-.497-1.458c-.09-.707.408-1.327.408-1.327s.858.443 1.04.841c.18.397.134 1.767.134 1.767s.75-1.038 1.222-1.194c.272-.087.951-.042 1.04.664.09.707-.723 1.282-.723 1.282s.033-.397-.18-.663c-.215-.266-.543-.09-.77.185-.211.257-.226.655-.226.655s.316.265.316.398c0 .131-.134.398-.134.398s.18.353.497.266c.316-.09.18-.71.18-.71s.364.268.589.444c.226.177.046.557-.272.795-.091.068-.23.133-.377.193.33.09.725.146 1.236.116 1.179-.066 1.834-.543 2.195-1.002l.43-1.318-1.448.95-.226-2.83 1.763 1.106-.68-1.856h2.443l-.859 1.902 1.765-1.017-.27 2.785-1.405-1.04.386 1.402c.331.423.84.862 1.605 1.007.541.103 1.071-.008 1.547-.188-.013-.01-.027-.016-.034-.022-.314-.243-.488-.628-.257-.8.228-.173.595-.434.595-.434s-.146.618.168.712c.315.094.502-.258.502-.258s-.131-.267-.129-.399c.003-.133.325-.392.325-.392s-.008-.401-.215-.659c-.222-.277-.545-.459-.765-.198-.22.261-.193.66-.193.66s-.805-.59-.7-1.295c.102-.704.781-.738 1.05-.644.47.162 1.2 1.214 1.2 1.214s-.02-1.371.168-1.766c.187-.394 1.055-.821 1.055-.821s.486.627.383 1.332c-.103.707-.522 1.451-.522 1.451s.688-.697 1.637-.503c.945.192 1.033.989.636 1.337-.395.348-1.303.464-1.303.464s.66-.68-.028-.974c-.673-.289-1.145.742-1.145.742s.302.237.266.393c-.049.213-.323.295-.323.295s.013.54.389.502c.371-.039.424-.348.424-.348s.535.452.165.843c-.274.294-.673.239-.856.192.25.325.556.616.935.758 1.575.588 2.895-.929 2.895-.929l-1.537-.21 1.356-2.265.815 1.59.225-1.811 1.355 1.016-3.978 6.189zm-.066 9.706c-.09.023-.198-.028-.261-.084-.181-.16-.288-.402-.453-.582-.117-.129-.2-.33-.258-.495-.041-.112-.147-.508-.31-.439.019-.17-.19-.413-.263-.561-.087-.173-.12-.347-.19-.523-.063-.164-.212-.222-.374-.318-.284-.17-.537-.391-.784-.614-.356-.323-.612-.69-.91-1.056a.89.89 0 0 1-.192-.406c-.039-.147-.164-.261-.19-.403-.029-.154.024-.333.012-.492-.01-.198-.13-.312-.233-.473-.152-.241-.215-.52-.288-.783-.06-.22-.052-.462-.13-.677-.085-.223-.254-.418-.364-.625-.082-.155-.13-.312-.21-.464-.056-.108-.09-.393-.135-.671 2.084.324 3.349.906 3.797 1.268l.287.101c.037.197.086.393.128.577.088.393.21.786.28 1.187.048.253.135.507.187.76.02.1.036.24.053.36.025.176.1.343.122.521.022.186.007.379 0 .564-.013.28-.116.537-.214.795-.07.189-.264.342-.204.554.048.169.152.366.226.53l.806 1.77c.047.153.109.308.14.465.02.114.051.183-.075.214zm-6.284-9.129c-.058.106-.055.334-.071.453-.107.723-.061 1.597-.454 2.25.018-.026.026-.016.041-.026-.026.066.003.186-.003.273-.007.14-.023.277-.031.413-.013.212-.004.427-.004.639 0 .22.015.444.001.66a1.574 1.574 0 0 1-.049.277c-.061.26-.16.507-.247.761-.074.226-.167.434-.343.605-.142.142-.313.248-.479.36-.132.089-.336.173-.433.298-.186.241-.171.717-.217 1.019-.098.663-.047 1.352-.055 2.025-.002.163-.144 1.303-.454.881-.213-.283-.184-.68-.162-1.008.021-.367.027-.728.043-1.094a4.857 4.857 0 0 0-.048-1.07c-.022-.128-.01-.337-.09-.436-.027-.035-.147-.106-.192-.142a2.662 2.662 0 0 1-.279-.268c-.108-.119-.253-.2-.344-.34-.22-.328-.249-.754-.334-1.126-.091-.386-.065-.78-.065-1.17 0-.792.096-1.57-.003-2.354-.05-.395-.026-.805-.063-1.203-.014-.145-.089-.83-.195-1.353a21.81 21.81 0 0 1 4.647.046c-.052.283-.091.582-.117.63zm-5.575-.038c-.109.165-.142.389-.21.575-.063.177-.172.336-.234.516-.149.435-.256.888-.4 1.322-.057.17-.09.34-.125.509-.054.264-.173.511-.276.765-.14.34-.297.61-.484.91-.14.22-.33.412-.46.636-.162.274-.393.522-.69.661-.236.11-.505.186-.727.318-.19.111-.291.283-.397.46-.13.218-.317.422-.411.672-.065.169-.106.332-.217.48-.103.137-.252.249-.318.403-.068.163-.156.262-.27.394-.111.127-.17.292-.384.255-.348-.062-.137-.348-.038-.512.13-.207.26-.414.389-.623l.478-.771c.075-.162.163-.32.211-.492.165-.562-.179-1.259-.292-1.79-.084-.397-.099-.775.037-1.152.076-.208.173-.4.223-.618.13-.586.334-1.16.483-1.725.03-.115.046-.235.067-.352l.204-.072c.469-.38 1.812-1 4.044-1.313-.086.246-.161.48-.203.544zm-4.442-11.968l-.377.079a3.83 3.83 0 0 0-.75 1.693 3.08 3.08 0 0 0-.515.184c-.024-.103-.045-.222-.108-.296-.088-.103-.199-.185-.281-.29-.138-.17-.247-.353-.384-.518-.08-.208-.152-.443-.152-.64s.486-1.101.762-1.462l.104-.14c.2-.276.385-.525.665-.418.41.15.778 1.106 1.036 1.808zm-5.107.503a.795.795 0 0 0-.234-.344c-.138-.121-.333-.159-.504-.217-.21-.072-.424-.146-.63-.229-.177-.07-.324-.189-.49-.28-.097-.053-.205-.11-.291-.177-.188-.14-.262-.396-.434-.53-.298-.23-.74-.153-1.086-.28-.259-.096-.486-.231-.736-.362-.16-.082-.371-.132-.5-.248-.559-.501-.722-1.256-.804-1.958-.02-.177-.02-.366-.11-.534-.048-.088-.1-.125-.122-.224-.046-.213-.17-.43-.17-.654 0-.13-.003-.254.033-.38.097-.352.218-.805.467-1.084.25-.281.489-.539.839-.702.215-.1.445-.181.676-.243.304-.08.605-.197.913-.26.063-.012.128-.02.196-.02.1.001.173-.043.252-.085-.21.62-.422 1.59-.049 2.348.598 1.211.603.965.943 1.378.343.41.551.884.551.884s.128-.248-.04-.578c-.329-.635-.814-1.763-.814-2.893 0-.811.196-1.522.731-2.117.225-.16.46-.305.661-.49.231-.213.409-.452.743-.503.237-.038.465-.13.701-.171.18-.032.36-.034.545-.034h.439c.225.003.455.058.678.096.234.038.473.082.696.168.123.048.239.095.371.124.353.08.63.314.932.515.08.053.136.094.201.155.067.065.141.138.223.187.114.07.238.105.342.19.217.182.456.393.552.658.078.214.138.453.271.65.05.075.1.184.172.23.048.03.094.023.149.044.144.055.177.214.223.337a.87.87 0 0 1 .06.256c.016.197.054.35.177.507.134.17.262.359.303.574.049.252.116.524.23.758.151.31.346.566.5.866.082.16.065.334.118.502.053.16.18.15.272.266.058.076.08.187.12.275.061.137.13.271.173.417.057.2.118.395.174.594.074.262.16.515.16.788 0 .143-.049.351.04.467.039.051.077.069.105.125.05.094.05.204.101.297.112.208.205.438.298.662.057.137.132.272.12.424-.007.089-.034.14-.068.207l-.024.042a2.684 2.684 0 0 0-.895-.072c-.414-.539-1.039-.94-1.542-1.198l-1.115.231a6.003 6.003 0 0 0-.348-.974c-.291-.57-.58-1.807-.58-2.05 0-.065.012-.232.026-.45.062-.95.114-1.907.011-2.219-.147-.446-1.134-1.154-1.245-1.235a.142.142 0 0 0-.187.022.134.134 0 0 0 .005.184c.003.002.168.171.489.759.232.425.21.804.18 1.33-.012.197-.026.411-.026.65 0 .61-.384 1.279-.581 1.586a1.714 1.714 0 0 1-.167-.484 2.107 2.107 0 0 0-.322-.804.14.14 0 0 0-.176-.043c-.06.03-.09.1-.07.164.002.005.158.5-.005 1.775-.16 1.255-1.798 2.311-1.815 2.321-.017.01-.016.032-.026.049-.064.034-.132.066-.189.107-.103.073-.155.168-.272.215-.102.044-.298.066-.393-.008-.07-.057-.076-.17-.102-.25zm6.806-14.882c.076-.331.35-.516.372-.814.01-.144.03-.183.025-.316a1.183 1.183 0 0 1 .12-.526c.076-.128.204-.232.295-.348.132-.164.27-.25.425-.378.126-.105.26-.203.406-.28.284-.143.614-.194.918-.287.387-.118 1.696-.054 2.079.186l1.01.64c.175.271.55.936.55 1.703 0 .651.203 1.853.347 2.612.075.404.28.171.28.171s.226-1.866.267-2.95c.04-.992.081-1.149.317-1.455.563-.25 1.126-.5 1.686-.747.106-.049.207-.105.318-.119.284-.035.593-.089.878-.07.16.006.325.014.481.034.147.018.262.06.407.104.262.086.528.203.758.364.184.128.4.205.57.352.147.125.206.31.289.48l.405.855s.332 1.07.332 1.976c0 .444-.783 1.924-.783 1.924L75.8 13.29s-.022.53-.121.67c-.119.162-.753.502-.753.61 0 .291.651.1.651.1s-.237 1.657-.3 1.94c-.02.09-.07.225-.13.37a1.63 1.63 0 0 1-.064.155 7.44 7.44 0 0 1-.089.206c-.083.184-.15.326-.15.326l-.841 3.573c-.186.902-.338 1.818-.561 2.713-.016.063-.025.133-.039.199-.132.078-.26.163-.373.263l-1.145-1.716h-2.442l-1.16 1.609c-.11-.108-.239-.2-.37-.286-.02-.166-.063-.34-.075-.481-.017-.184-.073-.35-.123-.532a2.82 2.82 0 0 1-.084-.686 3.537 3.537 0 0 0-.048-.642 4.846 4.846 0 0 1-.088-.845 3.8 3.8 0 0 0-.06-.76c-.065-.272-.137-.544-.195-.817-.036-.154-.084-.312-.098-.47-.026-.257-.15-.506-.15-.77l-.07-.453c-.03-.205-.081-.135-.057-.342-.157-.387 1.062.307 1.276.14.042-.208-1.067-.792-1.17-.9-.038-.14-.088-.206-.163-.318-.088-.126-.133-.313-.174-.457-.114-.42-.272-.845-.333-1.283-.039-.279-.066-.561-.113-.839-.034-.223-.057-.448-.09-.672.401.228.879.51 1.113.662.366.24 1.12 1.016 1.128 1.023.04.04.1.054.153.033a.134.134 0 0 0 .087-.127s.001-.204.03-.478c0 0 .015-.01.061-.01.209 0 .717.212 1.199.784.313.371.349.877.388 1.41.026.37.054.751.184 1.082.085.217.124.803.16 1.32.072 1.043.107 1.373.344 1.373a.19.19 0 0 0 .139-.06c.285-.287.256-2.666.227-3.722.07-.114.304-.493.447-.705.325-.493 1.145-.869 2.029-1.242.907-.386 1.323-1.292 1.419-1.528.147-.065.573-.257.886-.392.41-.178 1.057-1.208 1.13-1.325a.133.133 0 0 0-.044-.183.14.14 0 0 0-.19.035c-.23.319-.513.614-.586.632-.11-.02-.293-.181-.388-.29a.143.143 0 0 0-.184-.023.135.135 0 0 0-.044.177c.002.003.196.358-.047.535a.64.64 0 0 1-.505.118c-.685-1.205-.693-1.205-.798-1.205a.144.144 0 0 0-.117.062c-.045.066-.016.129.012.189l.025.056c.179.394.513 1.124.026 1.858-.205.31-.899.675-1.953 1.03-.51.17-.962.589-1.261.865a4.107 4.107 0 0 1-.218.193 3.008 3.008 0 0 1-.204-.293 3.79 3.79 0 0 0-.414-.564c-.232-.243-.467-.309-.934-.44-.252-.07-.567-.158-.998-.304-.725-.244-.834-1.017-.887-1.389-.027-.186-.046-.321-.192-.321-.116 0-.165.11-.204.201-.19.436-.104.772-.023.95a.904.904 0 0 1-.123-.056c-.263-.145-.956-.547-1.358-.781-.707-.72-1.152-1.64-1.152-2.64 0-.353.01-.67.084-1.002zM36.395 14.59h-2.288s-.848 0-.848.83v9.972a26.017 26.017 0 0 0-2.542-.51v-9.468s0-.83-.847-.83h-3.73v-.68s0-.679.58-1.284l2.06-2.146s.58-.603 1.427-.603h5.339s.848 0 .848.826v3.893zm-.82 18.938S33.288 31.38 21.05 31.38c-12.237 0-14.448 2.147-14.448 2.147l-.217-5.23s2.415-2.11 14.665-2.11c12.252 0 14.737 2.11 14.737 2.11l-.21 5.23zm-2.317 5.923s.043 1.575-1.313 1.575c-1.356 0-1.228-1.575-1.228-1.575v-5.557c1.1.183 1.928.381 2.541.562v4.995zm-8.403 4.226c.086.497.214 1.377-.337 1.462-.552.086-.933-.385-1.06-.675-.127-.29-.551-1.16-.72-2.484-.078-.6.288-6.625.288-7.081 0-.155.036-.806.084-1.624.745.017 1.442.042 2.1.074-.243 1.893-.777 6.878-.777 7.885 0 1.118.372 2.145.422 2.443zm-5.207-1.697c-.17 1.325-.594 2.194-.72 2.484-.127.29-.51.761-1.06.675-.551-.085-.424-.965-.338-1.462.05-.298.422-1.325.422-2.443 0-1.01-.538-6.025-.78-7.903.657-.029 1.36-.049 2.102-.063.048.821.084 1.475.084 1.63 0 .457.367 6.482.29 7.082zm-9.494-.954c-1.355 0-1.313-1.575-1.313-1.575v-5.005a21.14 21.14 0 0 1 2.541-.562v5.567s.128 1.575-1.228 1.575zm-4.449-30.33c0-.825.847-.825.847-.825h5.34c.847 0 1.427.603 1.427.603l2.06 2.146c.58.605.58 1.284.58 1.284v.68h-3.73c-.847 0-.847.83-.847.83v9.458c-1.015.155-1.853.33-2.543.506V15.42c0-.829-.846-.829-.846-.829H5.705v-3.893zm12.287-4.655c1.778-.696 2.809-.26 3.2-.013.391-.247 1.423-.683 3.2.013 1.83.716 2.688 1.944 2.39 3.476-.214 1.111-2.053 3.15-3.281 4.429 1.38 1.033 3.637 2.634 3.686 3.273.126 1.698-.243 3.727-.382 4.761-.04.302-.172 1.246-.34 2.459a76.362 76.362 0 0 0-2.808-.126l.182-2.87s.084-1.532 0-2.07c-.085-.539-1.058-1.49-1.058-1.49l-1.2-1.2c.627-.448 1.479-1.121 1.58-1.56.262-1.126-.243-1.307-.3-1.324a.172.172 0 0 0-.18.05.162.162 0 0 0-.029.179l.026.048c.015.087.004.338-.048.507-.136.446-.41.744-1.115.732-.062 0-.237-.037-.33-.053-.082-.002-.166.055-.186.133-.058.22.396.44.416.45a.717.717 0 0 0 .072.03l-.397.52-1.485 1.487s-.974.952-1.059 1.49c-.085.539 0 2.07 0 2.07l.181 2.862a78.47 78.47 0 0 0-2.81.112 752.116 752.116 0 0 1-.337-2.436c-.14-1.034-.509-3.063-.382-4.761.048-.639 2.304-2.24 3.685-3.273-1.227-1.279-3.067-3.318-3.281-4.43-.297-1.53.561-2.76 2.39-3.475zM46.995 0H0v67.902c.228.675.456 1.332.685 1.982l46.31-30.65 46.313 30.65c.228-.65.456-1.307.684-1.982V0H46.995z"/><path d="M20.786 11.711c-.642.503-1.378 1.157-1.463 1.577a1.279 1.279 0 0 0 .85 1.571l.126.066a.168.168 0 0 0 .083.021h.005c.077.003.175-.071.175-.164a.163.163 0 0 0-.062-.125c-.085-.128-.392-.639-.221-1.077.179-.455.65-.524.914-.524.286 0 .481.079.513.108.038.047.099.108.192.108a.2.2 0 0 0 .182-.142c.039-.18-.2-.572-.67-.775a1.072 1.072 0 0 0-.445-.066l.288-.299c.748-.602 1.51-1.21 1.742-1.478.678-.787.973-2.153.508-2.773-.375-.502-1.144-1.035-1.567-1.243a7.598 7.598 0 0 0-.743-.273 7.62 7.62 0 0 0-.744.273c-.422.208-1.192.74-1.567 1.243-.466.62-.17 1.986.509 2.773.195.226.772.696 1.395 1.2m-.896 15.142l.51 1.29-1.319-.498v2.231l1.319-.498-.508 1.29h2.283l-.51-1.288 1.32.496v-2.231l-1.32.498.51-1.29H19.89m28.126 38.749s0-.49.492-.586c0 0 2.485-1.473 7.504-1.473 5.018 0 9.175 2.242 9.175 2.242s.437.237.437.726v26.521s0 .49-.491.395c0 0-5.01-2.135-10.128-1.969-5.117.165-6.565 1.059-6.565 1.059s-.424.263-.424-.227V65.603zm18.829 29.474c.558-.298.558-.792.558-.792V68.112c.071.02.126.052.126.052l2.23 1.358c.43.263.43.757.43.757l-.003 28.071c0 .494-.46.704-.46.704l-1.963-.106s-2.501-2.921-12.114-2.921c-4.262 0-6.534 2.224-6.534 2.224h-4.237s-2.274-2.224-6.535-2.224c-9.613 0-12.114 2.921-12.114 2.921l-1.964.106s-.457-.21-.457-.704l-.005-28.07s0-.495.43-.758l2.231-1.358s.055-.032.126-.052v26.173s0 .494.557.792c.558.296 1.131.099 1.131.099s7.076-3.069 12.141-2.13c4.06.754 5.976 1.666 6.578 1.997.6-.33 2.516-1.243 6.577-1.997 5.064-.939 12.14 2.13 12.14 2.13s.574.197 1.13-.1zM28.367 66.512c0-.489.438-.726.438-.726s4.155-2.242 9.176-2.242c5.018 0 7.504 1.473 7.504 1.473.492.096.492.586.492.586V92.29c0 .49-.425.227-.425.227s-1.448-.894-6.565-1.059c-5.119-.166-10.128 1.97-10.128 1.97-.492.094-.492-.396-.492-.396v-26.52zM2.386 74.527c12.292 32.176 23.803 31.08 44.609 43.11 20.808-12.03 32.321-10.934 44.61-43.11L47.056 45.17 2.386 74.527z"/></g></svg>